<svg width="66" height="49" viewBox="0 0 66 49" fill="none" xmlns="http://www.w3.org/2000/svg">
<g clip-path="url(#clip0_6513_832)">
<g clip-path="url(#clip1_6513_832)">
<g clip-path="url(#clip2_6513_832)">
<path d="M11.1916 27.5817C9.26034 28.619 7.46625 29.6944 5.57238 30.5936C4.79987 30.9431 4.12715 31.4689 3.41694 31.8061C2.94347 32.0309 2.74438 32.6587 2.68239 33.3246C2.62072 34.644 2.22253 35.8995 1.94896 37.1303C1.87432 37.4066 2.04891 37.6333 1.97427 37.9096C1.5386 38.9765 1.82578 40.0958 1.71414 41.1637C1.615 42.2945 1.45354 43.4377 1.54131 44.5313C1.57911 45.3734 1.4175 46.1898 1.51761 47.0196C1.58023 47.6607 1.81713 47.875 2.40272 47.5626C3.28735 47.1254 4.32158 46.7892 5.03162 46.1252C5.57973 45.6242 6.20264 45.1736 6.83804 44.7859C7.69769 44.223 8.55733 43.66 9.35467 43.1095C10.2641 42.4712 11.2484 41.8835 12.1454 41.1824C12.7683 40.7319 13.4535 40.2689 14.1637 39.9318C14.6372 39.707 14.9361 39.2554 15.4095 39.0306C15.9951 38.7182 16.4439 39.0212 16.8678 39.1984C17.0174 39.2994 17.2417 39.4509 17.3788 39.489C18.1017 39.5414 18.6502 40.0206 19.2859 40.2864C19.7097 40.4636 20.1959 40.6285 20.6197 40.8057C21.5296 41.1477 22.5269 41.6032 23.4368 41.9452C24.0725 42.211 24.6585 42.5521 25.3939 42.6674C26.0543 42.7322 26.715 43.1238 27.2386 43.4773C27.9741 43.9193 28.7468 43.8965 29.2449 43.144C29.656 42.6048 29.9923 42.0151 30.4158 41.5388C31.0012 40.8997 31.5243 40.2729 32.1096 39.6337C32.6328 39.0069 33.131 38.2543 33.6666 37.6904C34.2022 37.1265 34.6505 36.4492 35.1239 35.8976C35.5474 35.4213 35.8212 34.8441 36.332 34.4811C37.1169 33.8677 37.4529 32.9513 38.1007 32.2997C38.5865 31.811 38.9226 31.2214 39.2714 30.6946C39.6698 30.0925 40.1306 29.4781 40.604 28.9266C41.0275 28.4503 41.3014 27.873 41.7249 27.3967C42.2978 26.6947 42.8832 26.0555 43.3814 25.3029C44.0289 24.3246 44.8511 23.573 45.4364 22.6071C45.8224 21.9422 46.5075 21.4793 46.8936 20.8143C47.4165 19.8608 48.1764 19.1216 48.7617 18.1557C49.4465 17.0392 50.2188 16.0361 50.9785 14.9702C51.128 14.7444 51.2026 14.4682 51.352 14.2424C52.1117 13.1764 53.1956 12.4382 54.1299 11.599C55.4005 10.4969 56.6712 9.39473 57.9543 8.35548C58.5648 7.84205 59.2374 7.31623 59.8604 6.86567C60.3089 6.51513 60.7947 6.02646 61.2432 5.67592C62.0903 5.05009 62.7006 4.2099 63.5477 3.58407C63.9962 3.23353 64.2951 2.782 64.594 2.33047C65.0423 1.65317 64.7554 1.18732 63.9328 0.958643C63.3219 0.81857 62.699 0.942377 62.1132 0.928053C61.0788 0.93752 60.0944 1.19848 59.1098 1.1327C58.3247 1.09264 57.5522 1.44221 56.7295 1.21353C56.1188 1.07346 55.3338 1.36016 54.6234 1.37059C53.6513 1.36768 52.7292 1.61626 51.8319 1.66384C49.9127 1.78376 48.0187 2.35618 46.087 2.41323C45.8253 2.39988 45.6011 2.57515 45.3393 2.5618C44.2053 2.72177 43.0463 2.756 41.9871 2.96647C40.4917 3.26361 39.0214 3.68649 37.501 3.85787C37.1272 3.93216 36.8656 4.24556 36.4045 4.20647C36.0056 4.15501 35.5322 4.3798 35.1583 4.45409C33.8624 4.77695 32.5912 4.89882 31.2952 5.22168C30.6098 5.35787 29.8871 5.63219 29.0896 5.52926C28.6409 5.55305 28.0054 5.61398 27.6192 5.95214C27.3948 6.12741 27.158 5.91306 26.8465 5.97496C26.0365 6.13591 25.1891 6.43498 24.3542 6.47018C23.0083 6.54155 21.8993 7.15403 20.6407 7.33877C20.2669 7.41305 19.9181 7.61308 19.4694 7.63687C17.8244 7.83302 16.1922 8.41879 14.5722 8.74069C13.8245 8.88926 13.027 9.11308 12.2793 9.26165C12.0924 9.29879 11.8557 9.41119 11.7186 9.37307C11.0205 9.11963 10.7965 9.62166 10.5598 10.0608C9.94974 11.2278 9.40195 12.3823 8.70456 13.4359C8.05699 14.4142 7.53402 15.3678 7.02355 16.3842C6.68735 16.9739 6.10176 17.2863 5.97747 17.9646C5.84068 18.5799 5.19278 18.9048 4.91889 19.482C4.68231 19.9212 4.32113 20.3851 4.22166 20.8624C4.1097 21.2767 3.73586 21.351 3.5366 21.652C3.34984 22.0159 3.22539 22.3675 3.03862 22.7314C2.71492 23.3839 2.22911 23.8726 2.04251 24.5632C1.89323 25.1157 1.93071 25.3043 2.49163 25.5197C3.53868 25.8998 4.66036 26.0037 5.68242 26.2581C7.1158 26.6269 8.56151 26.7318 9.95757 27.2387C10.3689 27.353 10.7678 27.4045 11.1916 27.5817ZM63.4723 2.22657C62.2016 3.32869 60.9933 4.41843 59.8348 5.43291C59.0126 6.18449 57.941 6.65884 57.2312 7.64954C57.1813 7.72479 57.0567 7.74955 56.9321 7.77431C56.2594 8.30013 55.5742 8.76307 54.9139 9.35176C54.6399 9.60228 54.3658 9.85281 54.1043 10.1662C53.7431 10.6301 53.095 10.6282 52.7213 11.0292C52.248 11.5808 51.7124 12.1447 51.1518 12.5829C49.2085 14.2108 47.1903 15.7883 45.1721 17.3657C44.8357 17.6286 44.3498 17.7905 44.138 18.0287C43.5651 18.7307 42.7801 19.0174 42.1822 19.5937C41.1358 20.5206 39.7652 21.1197 38.7313 22.1094C38.5693 22.2723 38.4074 22.4352 38.2205 22.4724C37.722 22.5714 37.3358 22.9096 37.012 23.2354C36.1898 23.9869 35.1431 24.2603 34.3957 25.0624C33.748 25.7139 32.8008 25.8367 32.0782 26.4378C31.418 27.0265 30.6331 27.3132 29.9604 27.839C29.3997 28.2772 28.7518 28.602 28.1787 28.9773C27.2692 29.6155 26.3598 30.2537 25.4378 30.8291C25.1513 31.0167 24.7775 31.091 24.5658 31.3291C23.4696 32.3313 22.1737 32.9809 20.9902 33.8696C19.9686 34.5954 18.8722 35.2708 17.7759 35.9462C17.0283 36.4215 16.2934 36.9597 15.5459 37.435C14.462 38.1732 13.4031 39.0372 12.3192 39.7754C11.3474 40.426 10.3881 41.1395 9.42883 41.8529C8.46956 42.5664 7.34819 43.116 6.38892 43.8295C5.30504 44.5677 4.14635 45.2554 3.06247 45.9937C2.95035 46.0813 2.78841 46.2442 2.63881 46.1432C2.48921 46.0422 2.51404 45.8412 2.53886 45.6402C2.56353 45.1125 2.77512 44.5476 2.68767 44.1074C2.56273 43.4787 2.76183 42.8509 2.71169 42.2727C2.66156 41.6944 2.86065 41.0666 2.88532 40.5389C2.9598 39.9359 3.10908 39.3834 3.10876 38.7298C3.08346 37.9506 3.36969 37.1094 3.40669 36.3178C3.40621 35.3375 3.67994 34.4335 3.75426 33.5038C3.79142 33.0389 3.97818 32.675 4.38935 32.4626C4.96244 32.0873 5.63532 31.8882 6.10863 31.3366C6.38269 31.0861 6.89364 31.05 7.16769 30.7994C7.98986 30.0478 8.94929 29.6611 9.88373 29.1487C10.7559 28.6486 11.653 28.2743 12.5377 27.8371C13.4223 27.3998 14.2695 26.774 15.2414 26.4502C16.2008 26.0635 16.9731 25.3871 17.92 24.9376C19.3405 24.2632 20.636 23.2868 21.9692 22.4991C22.8414 21.999 23.7757 21.4865 24.7227 21.0369C25.084 20.8998 25.196 20.4854 25.5698 20.4111C26.3798 20.2501 26.9653 19.611 27.8375 19.4376C28.2737 19.351 28.6973 18.8747 29.1084 18.6623C29.694 18.3498 30.292 18.1003 30.8776 17.7879C31.9991 17.2382 33.1079 16.6258 34.2293 16.0762C34.9893 15.6637 35.7369 15.1884 36.5094 14.8388C37.1074 14.5893 37.6306 14.2892 38.2163 13.9768C38.8019 13.6644 39.3625 13.2262 40.0104 12.9014C40.9449 12.3889 41.8295 11.9517 42.7764 11.5021C43.5364 11.0897 44.3713 10.7277 45.069 10.3276C45.7667 9.92757 46.5767 9.76662 47.1871 9.25319C47.6854 8.82739 48.3708 8.6912 48.9563 8.37877C49.4921 8.1416 49.9406 7.79106 50.5512 7.60438C51.2241 7.40532 51.847 6.95476 52.4949 6.62995C53.666 6.00509 54.9244 5.4936 56.1082 4.93161C57.4039 4.28199 58.8869 3.92199 60.1951 3.33524C61.2294 2.99902 62.3259 2.65042 63.4723 2.22657ZM3.31364 24.4413C3.60003 23.9269 3.7618 23.4373 4.07318 23.0486C4.83287 21.9827 5.44297 20.8157 6.12787 19.6993C6.61351 18.8839 7.16146 18.0561 7.6471 17.2407C8.08293 16.5005 8.38165 15.7222 8.76767 15.0573C9.5397 13.7275 10.2494 12.41 11.0215 11.0802C11.4573 10.34 11.9558 10.2409 12.6412 10.1048C13.3265 9.96856 13.9994 9.7695 14.6973 9.69619C15.445 9.54762 16.1802 9.33618 16.9154 9.12474C17.5882 8.92567 18.2986 8.91524 18.9715 8.71618C19.6444 8.51712 20.3795 8.30567 21.0648 8.16949C23.1833 7.74855 25.2893 7.26473 27.4202 6.90666C28.5543 6.74669 29.7255 6.44858 30.847 6.22573C31.9062 6.01526 32.9033 5.81717 33.9625 5.6067C35.4578 5.30957 36.9408 5.27631 38.3988 4.79055C38.9469 4.61625 39.5578 4.75632 40.1559 4.50677C40.5172 4.36961 40.9035 4.3582 41.2899 4.34679C41.9254 4.28586 42.5235 4.03631 43.0843 3.92488C43.8943 3.76393 44.7292 3.72873 45.4769 3.58017C46.6608 3.34494 47.8696 3.23545 49.0036 3.07548C49.7513 2.92691 50.4617 2.91647 51.1595 2.84316C51.7202 2.73173 52.281 2.62031 52.8668 2.63463C53.6395 2.61181 54.3996 2.52612 55.1598 2.44043C55.7954 2.3795 56.4933 2.30618 57.1163 2.18238C58.2503 2.0224 59.347 2.00055 60.4686 1.7777C60.967 1.67866 61.4157 1.65487 61.9266 1.6187C60.88 2.21879 59.8209 2.75602 58.7369 3.16749C57.6156 3.7171 56.5065 4.00282 55.4225 4.4143C54.9988 4.56383 54.5752 4.71337 54.164 4.92579C52.7934 5.52491 51.4352 6.18691 49.965 6.6098C48.021 7.25747 46.1021 8.0309 44.2332 8.72907C42.7878 9.2777 41.3174 9.70058 39.9593 10.3626C38.8878 10.837 37.7912 11.1856 36.782 11.6475C35.05 12.3838 33.2931 12.9943 31.5487 13.6678C29.8167 14.404 28.122 15.0022 26.3776 15.6756C25.2437 16.1623 24.0975 16.5862 22.951 17.01C22.166 17.2967 21.4809 17.7597 20.7332 17.9082C19.6117 18.1311 18.5651 18.7312 17.5434 19.1303C15.9859 19.7666 14.4284 20.4028 12.8833 21.102C10.9895 22.0011 8.89596 22.5478 6.91479 23.3336C6.31671 23.5832 5.59385 23.5308 5.02075 23.9061C4.44766 24.2814 3.9617 24.4433 3.31364 24.4413ZM49.4458 15.4054C49.0725 16.46 48.3874 17.2497 47.8395 18.0775C47.2416 18.9805 46.5193 19.9084 45.8467 20.7609C45.1244 21.6888 44.5391 22.6547 43.7294 23.4691C43.0816 24.1207 42.5337 24.9485 41.9733 25.7134C41.4254 26.5412 40.653 27.2176 40.1051 28.0454C39.8062 28.4969 39.4324 28.8979 39.0713 29.3618C38.4361 30.0763 37.7883 30.7278 37.365 31.5309C37.0786 32.0453 36.6426 32.4587 36.2689 32.8597C35.5839 33.6494 35.198 34.6411 34.2761 35.2164C34.2761 35.2164 34.2886 35.2793 34.2387 35.3546C33.7904 36.0319 33.205 36.671 32.7442 37.2855C32.2833 37.8999 31.6728 38.4133 31.2868 39.0782C30.8636 39.8813 30.1286 40.4195 29.6429 41.2349C29.3565 41.7493 28.7211 42.137 28.4347 42.6514C28.1483 43.1658 27.9114 42.9514 27.6248 42.8123C26.7645 42.395 25.8795 41.852 25.0319 41.4976C23.9848 41.1174 23.0746 40.4486 21.9904 40.2066C20.557 39.8378 19.2854 38.9794 17.827 38.4849C17.5527 38.4087 17.154 38.3572 16.9419 37.9419C17.3283 37.9305 17.5525 37.7552 17.8514 37.6304C18.3748 37.3304 18.873 36.9046 19.4711 36.655C20.007 36.4178 20.6051 36.1683 21.1033 35.7425C21.639 35.1786 22.3367 34.7785 22.9471 34.2651C23.4454 33.8393 24.1058 33.5773 24.6789 33.202C24.9654 33.0144 25.1521 32.6505 25.4511 32.5257C26.5725 31.9761 27.5443 31.3255 28.5658 30.5997C29.4753 29.9614 30.3724 29.2604 31.2943 28.685C32.0417 28.2097 32.7644 27.6086 33.4994 27.0704C34.4089 26.4322 35.2435 25.7435 36.153 25.1053C37.0624 24.4671 38.0717 24.0051 38.9686 23.3041C39.7037 22.7659 40.5135 22.2782 41.236 21.6771C41.6845 21.3266 42.1455 21.0389 42.5317 20.7007C42.8056 20.4502 43.005 20.1492 43.3538 19.9491C43.8646 19.5862 44.3754 19.2233 44.8862 18.8604C45.2849 18.5851 45.671 18.2469 46.0697 17.9716C46.6428 17.5963 47.1286 17.1077 47.7017 16.7324C48.2748 16.3571 48.8229 15.856 49.4458 15.4054ZM4.95893 24.8987C4.94643 24.8358 4.93394 24.773 4.92145 24.7101C5.59433 24.511 6.21724 24.0605 6.8528 23.9995C7.48836 23.9386 7.99915 23.5757 8.54742 23.4014C9.58165 23.0652 10.5286 22.6156 11.5504 22.2165C12.5721 21.8174 13.7559 21.5821 14.7652 21.1202C15.6623 20.7458 16.6092 20.2963 17.5063 19.9219C18.7648 19.4104 20.0981 18.9494 21.3566 18.4379C22.1914 18.076 23.0261 17.714 23.8734 17.415C25.0198 16.9911 26.2161 16.492 27.3624 16.0681C28.5711 15.6319 29.8294 15.1204 31.0131 14.5584C32.0847 14.0841 33.1688 13.6726 34.1906 13.2735C34.6142 13.124 34.8758 12.8106 35.2994 12.661C36.2838 12.4001 37.2558 12.0762 38.265 11.6143C39.3241 11.0771 40.5079 10.8418 41.6543 10.4179C42.2523 10.1684 42.8754 10.0446 43.4485 9.66927C43.6229 9.56925 43.8596 9.45686 43.9719 9.69598C44.0842 9.93509 43.7727 9.99699 43.6481 10.0218C42.9504 10.4218 42.2402 10.759 41.4677 11.1086C40.4086 11.6458 39.2997 12.2583 38.2407 12.7955C37.2439 13.3204 36.2597 13.9081 35.1756 14.3196C34.8143 14.4567 34.5902 14.9588 34.0916 14.731C33.5809 15.4207 32.7335 15.7198 32.0233 16.057C31.2509 16.4066 30.5159 16.9448 29.6686 17.2438C28.5844 17.6553 27.6127 18.3059 26.6159 18.8307C25.4447 19.4556 24.2737 20.0805 23.115 20.7682C22.305 21.2559 21.4329 21.756 20.6106 22.1808C20.3738 22.2932 19.9875 22.3046 19.8256 22.4675C19.1031 23.0686 18.2682 23.4305 17.5082 23.843C16.3993 24.4554 15.2906 25.0679 14.1942 25.7433C13.6211 26.1186 13.1103 26.4815 12.4997 26.6682C11.453 26.9415 10.4182 26.2975 9.45848 26.0307C8.63583 25.802 7.77571 25.3847 6.89076 25.1684C6.24271 25.1665 5.63197 25.0264 4.95893 24.8987Z" fill="#BBB0DB"/>
<path d="M9.26518 38.7483C9.67618 38.2091 10.3366 37.9472 10.8348 37.5214C11.5574 36.9203 12.3547 36.3698 13.1645 35.8821C13.9121 35.4067 14.5598 34.7552 15.3073 34.2799C16.0673 33.8674 16.7151 33.2159 17.4876 32.8663C17.9611 32.6415 18.3222 32.1776 18.7832 31.8899C19.7052 31.3146 20.6021 30.6135 21.4493 29.9877C22.2964 29.3618 23.1311 28.6731 24.053 28.0978C24.514 27.8101 24.8627 27.2833 25.4983 27.2224C25.6229 27.1976 25.8097 26.8337 25.9716 26.6709C26.3578 26.3327 26.8187 26.045 27.2299 25.8326C27.8155 25.5202 28.1517 24.9305 28.8121 24.6686C29.4725 24.4067 30.1079 24.019 30.6062 23.5932C31.3162 22.9292 32.3629 22.6559 32.9857 21.8786C33.2473 21.5652 33.5588 21.5033 33.8453 21.3156C34.4682 20.8651 35.1286 20.6031 35.7515 20.1526C36.3246 19.7773 36.8852 19.3391 37.5206 18.9514C38.4551 18.4389 39.3022 17.8131 40.2367 17.3006C40.9967 16.8882 41.7442 16.4129 42.4419 16.0128C44.0741 15.1003 45.7062 14.1878 47.3259 13.2124C48.1855 12.6494 49.2073 12.2503 50.0544 11.6245C50.7397 11.1615 51.4249 10.6986 52.0478 10.2481C52.1599 10.1604 52.272 10.0728 52.1099 9.90893C52.0226 9.79557 51.9105 9.8832 51.8607 9.95846C51.4247 10.3719 50.8889 10.609 50.4155 10.8338C49.2443 11.4587 48.1729 12.2598 46.8396 12.7208C46.1169 12.9951 45.5065 13.5085 44.8088 13.9086C44.1734 14.2963 43.4507 14.5706 42.8278 15.0211C42.0305 15.5717 41.1458 16.0089 40.2737 16.509C39.3517 17.0843 38.4548 17.7854 37.4455 18.2474C36.9721 18.4722 36.5236 18.8227 36.0003 19.1228C35.477 19.4228 34.9412 19.66 34.5052 20.0734C33.8948 20.5869 33.1971 20.9869 32.5617 21.3746C31.5775 21.9623 30.6182 22.6758 29.6464 23.3264C28.5625 24.0646 27.5535 24.8533 26.3948 25.5411C25.5849 26.0288 24.9247 26.6175 24.1897 27.1556C23.3425 27.7815 22.3831 28.1682 21.7105 29.0208C21.449 29.3342 20.963 29.4961 20.5518 29.7085C19.8043 30.1838 19.0818 30.7849 18.3343 31.2602C17.0261 32.1737 15.6557 33.0996 14.3726 34.1388C13.65 34.7399 12.7404 35.0513 12.0927 35.7029C11.1086 36.6174 9.91244 37.1165 8.91584 37.9681C8.41755 38.3939 7.88177 38.6311 7.44578 39.0445C7.28385 39.2074 7.29634 39.2702 7.38364 39.3836C7.47093 39.497 7.54573 39.5475 7.65785 39.4598C8.25593 39.2103 8.71691 38.9226 9.26518 38.7483Z" fill="#BBB0DB"/>
<path d="M10.3815 31.6637C10.0824 31.7884 10.1697 31.9018 10.2695 32.078C10.4566 32.3676 10.6684 32.4563 10.9425 32.2057C11.1044 32.0428 11.2789 31.9428 11.1043 31.7161C10.8799 31.5646 10.643 31.3503 10.3815 31.6637Z" fill="#BBB0DB"/>
<path d="M33.6077 19.7943C33.5577 19.5428 33.757 19.2417 33.4205 19.1779C33.2834 19.1398 32.9843 19.2646 33.0093 19.3903C33.0593 19.6418 33.3708 19.5799 33.6077 19.7943Z" fill="#BBB0DB"/>
<path d="M50.7453 4.68936C50.5458 4.33687 50.1844 4.47403 49.9975 4.51117C48.3152 4.84545 46.6328 4.85297 45.0128 5.17487C43.8913 5.39772 42.7572 5.55769 41.6232 5.71767C40.6263 5.91576 39.6169 6.05098 38.62 6.24907C38.0592 6.36049 37.4113 6.6853 36.8879 6.6586C35.841 6.60519 34.8816 6.9919 33.8722 7.12712C32.8005 7.27471 31.6914 7.56044 30.6322 7.77091C29.8222 7.93186 28.9749 8.23093 28.1399 8.26613C27.8034 8.20229 27.4296 8.27657 27.0807 8.4766C26.7319 8.67663 26.2832 8.70042 25.8969 8.71183C24.9498 8.83467 24.0527 9.209 23.1056 9.33184C22.0214 9.41656 21.0121 9.87853 19.8906 10.1014C18.8314 10.3118 17.7348 10.6605 16.6133 10.8833C15.9279 11.0195 15.2052 11.2938 14.4949 11.3042C14.3578 11.2661 14.1709 11.3033 14.0837 11.5167C13.9966 11.73 13.897 11.8806 14.2833 11.8691C15.2554 11.8721 16.215 11.8121 17.1246 11.5006C17.5482 11.3511 17.9844 11.2644 18.3582 11.1902C19.6917 11.0559 20.9003 10.6197 22.134 10.3092C22.9938 10.073 23.8911 10.0254 24.8132 9.77681C25.7228 9.46536 26.6949 9.46827 27.617 9.21969C28.5516 9.03398 29.4862 8.84827 30.4083 8.59968C31.2058 8.37586 32.0283 8.27779 32.9006 8.10446C33.7604 7.86826 34.7075 7.74542 35.5798 7.57209C36.5767 7.374 37.5861 7.23879 38.583 7.0407C39.7045 6.81785 40.8385 6.65787 41.9351 6.30927C42.4834 6.13497 43.1314 6.13692 43.7545 6.01311C44.9383 5.77788 46.1471 5.6684 47.4058 5.48366C48.3529 5.36082 49.3248 5.03698 50.2844 4.97702C50.3965 4.88939 50.5584 4.7265 50.7453 4.68936Z" fill="#BBB0DB"/>
<path d="M12.7394 12.2415C12.7767 12.1034 13.026 12.0539 12.8016 11.9024C12.652 11.8014 12.5147 11.4365 12.1783 11.6995C12.0662 11.7871 11.8295 11.8995 12.0664 12.1138C12.2908 12.2653 12.5525 12.2787 12.7394 12.2415Z" fill="#BBB0DB"/>
<path d="M26.56 39.4285C26.4852 39.378 26.5848 39.2275 26.3729 39.1389C25.0641 38.7454 23.7679 38.4148 22.4341 37.8955C22.0851 37.7688 21.6738 37.6544 21.3247 37.5277C21.1253 37.502 20.9384 37.5391 20.8886 37.6144C20.789 37.7649 21.0009 37.8535 21.2128 37.9421C21.9233 38.2584 22.6836 38.4995 23.419 38.6148C24.2915 38.7682 25.052 39.336 25.9617 39.3513C26.1736 39.4399 26.3731 39.4657 26.56 39.4285Z" fill="#BBB0DB"/>
<path d="M31.8664 32.5575C31.8661 31.904 31.4921 31.6515 31.1056 31.3362C30.9435 31.1723 30.6693 31.0961 30.445 31.2714C30.3329 31.359 30.2333 31.5095 30.1211 31.5972C30.2832 31.761 30.4453 31.9249 30.6572 32.0135C31.1309 32.1154 31.5297 32.1669 31.8664 32.5575Z" fill="#BBB0DB"/>
<path d="M27.7196 36.1268C27.8818 36.6174 28.3678 36.4555 28.5422 36.3555C28.8413 36.2307 28.4548 35.9153 28.5294 35.6391C28.1929 35.5752 27.9185 35.1723 27.632 35.3599C27.2956 35.6228 27.4827 35.9124 27.7196 36.1268Z" fill="#BBB0DB"/>
</g>
</g>
</g>
<defs>
<clipPath id="clip0_6513_832">
<rect width="65" height="48" fill="white" transform="translate(0.609375 0.5)"/>
</clipPath>
<clipPath id="clip1_6513_832">
<rect width="65" height="48" fill="white" transform="translate(0.609375 0.5)"/>
</clipPath>
<clipPath id="clip2_6513_832">
<rect width="65" height="48" fill="white" transform="translate(0.609375 0.5)"/>
</clipPath>
</defs>
</svg>
