<svg width="47" height="47" viewBox="0 0 47 47" fill="none" xmlns="http://www.w3.org/2000/svg">
<g clip-path="url(#clip0_6513_874)">
<g clip-path="url(#clip1_6513_874)">
<g clip-path="url(#clip2_6513_874)">
<path d="M1.27743 35.1523C1.47744 33.5523 2.47744 32.2523 3.37744 31.1523C4.17744 30.1523 4.77744 28.8523 5.47744 27.7523C6.17744 26.6523 7.17744 25.6523 7.47744 24.3523C7.57744 23.9523 8.17744 23.5523 8.57744 23.1523C9.07744 22.6523 9.27744 22.0523 9.87744 21.7523C10.9775 21.0523 10.1774 20.2523 9.77744 19.5523C8.87744 18.1523 7.37744 17.2523 6.27744 15.9523C5.47744 15.0523 4.77744 13.9523 4.07744 12.8523C3.87744 12.5523 3.67744 12.2523 3.47744 12.0523C2.87744 11.5523 2.47744 11.2523 3.07744 10.3523C3.67744 9.45226 4.07744 9.55225 5.07744 9.75225C6.17744 9.95225 7.27744 10.5523 8.17744 10.4522C9.77744 10.1522 11.1775 10.9523 12.5775 11.2523C13.4775 11.4523 14.3775 12.0523 15.2775 12.3523C15.8775 12.5523 16.1775 12.4523 16.5775 11.9523C17.1775 11.1523 17.7775 10.3523 18.3775 9.65226C18.7775 9.15226 19.2775 8.55225 19.8775 8.05225C20.7775 7.35225 21.5775 6.55225 21.7775 5.35225C21.7775 5.15225 21.9775 4.85225 22.0775 4.85225C23.4775 4.75225 23.7775 3.25225 24.9775 2.75225C25.6775 2.45225 26.3775 1.65225 26.7775 0.952254C27.0775 0.452254 27.4775 0.452254 27.7775 0.552254C28.2775 0.652254 28.6775 0.852254 28.6775 1.45225C28.6775 2.15225 28.7775 2.75225 28.6775 3.45225C28.4775 4.95225 28.5775 6.45225 28.3775 8.05225C28.0775 9.65225 28.2775 11.3523 28.1775 13.0523C28.0775 14.5523 28.5775 15.1523 29.7775 15.6523C31.5775 16.4523 33.2775 17.3523 34.8775 18.3523C35.8775 18.9523 36.9775 19.2523 37.8775 20.0523C38.3775 20.4523 39.0775 20.7523 39.6775 21.0523C41.6775 21.8523 43.0775 23.4523 44.8775 24.3523C45.6775 24.7523 45.5775 25.1523 44.8775 25.6523C43.5775 26.6523 41.9775 26.1523 40.5775 26.1523C39.1775 26.1523 37.8775 26.4523 36.4775 26.6523C34.9775 26.8523 33.4775 27.1523 31.9775 27.3523C30.9775 27.4523 30.0775 27.9523 28.9775 27.8523C28.3775 27.8523 28.1775 28.7523 28.1775 28.9523C28.1775 31.6523 27.6775 34.2523 27.3775 36.8523C27.1775 39.0523 26.9775 41.2523 26.8775 43.4523C26.8775 43.8523 26.9775 44.4523 26.9775 44.8523C26.9775 45.3523 27.0775 46.0523 26.4775 46.1523C25.9775 46.2523 25.4775 46.2523 24.9775 45.8523C23.9775 45.1523 23.4775 43.9523 23.3775 43.1523C23.1775 41.5523 22.0775 40.5523 21.5775 39.1523C21.2775 38.4523 21.2775 37.6523 20.8775 36.9523C20.4775 36.1523 20.3775 35.2523 19.5775 34.7523C19.3775 34.6523 19.1775 34.4523 19.1775 34.0523C19.4775 32.3523 17.9775 31.2523 17.7775 29.7523C17.7775 29.5523 17.5775 29.4523 17.4775 29.5523C16.2775 30.6523 14.3775 30.5523 13.0775 31.6523C12.1775 32.3523 10.7775 32.4523 9.77744 33.2523C7.97744 34.4523 5.87744 35.0523 4.07744 36.0523C3.27744 36.4523 2.57744 36.7523 1.77744 37.0523C1.27743 37.2523 0.777433 37.4523 0.477433 37.1523C0.277433 36.9523 0.577433 36.3523 0.677433 35.9523C0.777433 35.6523 1.27743 35.5523 1.27743 35.1523ZM29.5775 17.3523C28.7775 16.8523 27.7775 16.1523 26.7775 15.4523C26.3775 15.1523 26.0775 14.9523 26.1775 14.2523C26.3775 13.3523 26.4775 12.4523 26.5775 11.5523C26.5775 11.0523 25.9775 10.9523 26.3775 10.3523C26.9775 9.35225 26.1775 8.05225 26.9775 7.05225C27.0775 6.95225 26.8775 6.75225 26.8775 6.65225C26.5775 6.05225 26.4775 5.45225 26.8775 4.85225C26.9775 4.75225 27.2775 4.05225 26.7775 3.85225C26.2775 3.65225 26.0775 4.05225 25.8775 4.35225C24.9775 5.35225 23.8775 6.15225 23.0775 7.25225C22.2775 8.25225 21.1775 8.75225 20.4775 9.75225C20.2775 10.1522 20.2775 10.7523 19.7775 10.8523C18.7775 11.1523 18.2775 11.9523 17.6775 12.6523C16.3775 14.1523 15.2775 14.3523 13.4775 13.6523C12.3775 13.2523 11.2775 12.7523 10.1774 12.9523C9.07744 13.1523 8.37744 11.0523 7.17744 12.5523C7.17744 12.5523 7.07744 12.4523 6.97744 12.4523C6.77744 12.3523 6.47744 12.1523 6.37744 12.3523C6.17744 12.6523 6.47744 12.8523 6.57744 13.0523C6.77744 13.2523 6.87744 13.4523 7.07744 13.7523C8.17744 15.8523 10.1774 17.1523 11.5775 18.9523C11.7775 19.2523 12.4775 19.1523 12.3775 19.7523C12.3775 20.3523 12.4775 21.0523 12.1775 21.3523C10.9775 22.5523 10.4775 24.1523 9.37744 25.3523C7.17744 27.7523 6.17744 30.9523 4.07744 33.3523C3.97744 33.5523 3.87744 33.7523 3.97744 33.8523C4.17744 34.1523 4.27744 33.8523 4.47744 33.7523C6.17744 33.1523 7.57744 32.1523 9.07744 31.3523C10.3774 30.6523 11.5775 29.7523 12.8775 29.2523C13.8775 28.8523 14.8775 28.2523 16.0775 28.0523C17.0775 27.8523 17.8775 26.7523 19.0775 27.8523C19.2775 28.0523 19.4775 27.7523 19.3775 28.2523C19.2775 28.9523 19.1775 29.8523 20.1775 30.0523C20.6775 30.1523 20.3775 30.2523 20.3775 30.4523C20.3775 31.6523 20.4775 32.8523 21.7775 33.4523C21.9775 33.5523 21.9775 33.8523 21.8775 33.9523C21.6775 34.3523 21.8775 34.6523 21.9775 34.9523C22.1775 36.5523 23.4775 37.7523 23.9775 39.3523C24.1775 39.9523 24.3775 40.7523 24.8775 41.3523C24.9775 41.4523 24.9775 41.6523 25.1775 41.5523C25.2775 41.5523 25.3775 41.4523 25.3775 41.3523C25.1775 40.4523 25.3775 39.6523 25.5775 38.7523C26.0775 36.9523 25.7775 35.0523 26.0775 33.1523C26.3775 31.6523 26.3775 29.9523 26.2775 28.3523C26.2775 27.6523 26.4775 27.0523 27.2775 26.7523C28.9775 26.0523 30.7775 25.9523 32.5775 25.6523C34.0775 25.3523 35.4775 25.1523 36.9775 25.0523C37.3775 25.0523 37.5775 24.7523 38.1775 24.7523C39.2775 24.8523 40.3775 25.0523 41.4775 24.7523C41.6775 24.7523 41.9775 24.7523 41.8775 24.4523C41.8775 24.2523 41.6775 24.1523 41.4775 24.0523C40.0775 23.1523 38.5775 22.5523 37.0775 21.8523C36.2775 21.4523 35.7775 20.6523 34.9775 20.3523C33.4775 19.4523 31.6775 18.4523 29.5775 17.3523Z" fill="#BBB0DB"/>
<path d="M21.3759 18.6523C21.2759 18.9523 21.0759 19.0523 20.6759 18.9523C20.2759 18.7523 19.7759 17.0523 20.0759 16.7523C20.2759 16.4523 20.6759 16.5523 20.9759 16.6523C21.3759 16.6523 21.5759 18.2523 21.3759 18.6523Z" fill="#BBB0DB"/>
<path d="M22.4766 23.5523C23.0766 22.6523 23.6766 22.7523 24.0766 23.6523C23.5766 24.1523 22.9766 24.0523 22.4766 23.5523Z" fill="#BBB0DB"/>
</g>
</g>
</g>
<defs>
<clipPath id="clip0_6513_874">
<rect width="46" height="46" fill="white" transform="translate(0.410156 0.5)"/>
</clipPath>
<clipPath id="clip1_6513_874">
<rect width="46" height="46" fill="white" transform="translate(0.410156 0.5)"/>
</clipPath>
<clipPath id="clip2_6513_874">
<rect width="46" height="46" fill="white" transform="translate(0.410156 0.5)"/>
</clipPath>
</defs>
</svg>
