<svg width="514" height="301" viewBox="0 0 514 301" fill="none" xmlns="http://www.w3.org/2000/svg">
<g clip-path="url(#clip0_6513_880)">
<g clip-path="url(#clip1_6513_880)">
<g clip-path="url(#clip2_6513_880)">
<path d="M217.135 -76.4198C167.829 -104.434 124.042 -106.226 89.1594 -99.4C39.1113 -89.5984 -0.810337 -61.1968 1.80517 -4.00892C2.30653 6.81958 4.63764 19.2735 13.2106 32.433C26.589 52.9636 50.4684 68.4875 71.2663 79.1771C123.079 105.821 171.997 118.449 218.832 128.267C262.454 137.416 305.084 144.463 346.722 149.409C379.222 153.296 411.643 155.766 435.843 147.071C439.301 145.82 442.776 143.936 441.938 139.232C441.25 136.136 439.273 132.591 436.418 129.331C424.81 115.57 408.128 110.579 395.791 109.284C333.752 102.963 295.635 134.032 273.661 175.863C266.615 189.307 261.058 205.475 269.926 227.856C281.809 257.922 317.19 289.964 348.62 305.893C380.049 321.823 408.154 325.007 434.242 326.384C500.021 329.78 560.134 323.73 613.286 308.364" stroke="#BBB0DB" stroke-width="2" stroke-miterlimit="10"/>
</g>
</g>
</g>
<defs>
<clipPath id="clip0_6513_880">
<rect width="514" height="300" fill="white" transform="translate(0 0.5)"/>
</clipPath>
<clipPath id="clip1_6513_880">
<rect width="514" height="300" fill="white" transform="translate(0 0.5)"/>
</clipPath>
<clipPath id="clip2_6513_880">
<rect width="514" height="300" fill="white" transform="translate(0 0.5)"/>
</clipPath>
</defs>
</svg>
