<svg width="58" height="63" viewBox="0 0 58 63" fill="none" xmlns="http://www.w3.org/2000/svg">
<g clip-path="url(#clip0_6513_844)">
<g clip-path="url(#clip1_6513_844)">
<g clip-path="url(#clip2_6513_844)">
<path d="M25.2053 61.5522C24.9078 61.0329 24.5198 60.4118 24.0514 59.8442C23.6894 59.4372 23.5095 58.8859 23.169 58.4415C22.9348 58.1577 22.7108 58.029 22.299 58.1408C21.8872 58.2526 21.4008 58.3215 20.9743 58.0267C20.825 57.9409 20.601 57.8122 20.3815 57.935C20.3012 57.9883 20.093 57.9185 20.0772 57.8597C19.6461 57.3135 18.9199 57.1948 18.4458 56.7234C18.2648 56.5199 18.025 56.3324 17.9402 56.1343C17.792 55.7008 17.3655 55.4061 17.2976 54.9192C17.2501 54.7426 17.0906 54.5017 16.9842 54.341C16.6912 54.0732 16.7139 53.688 16.7093 53.4366C16.6946 53.0301 16.3858 52.7033 16.5849 52.2703C16.6494 52.158 16.2704 52.0399 16.0623 51.97C15.4163 51.798 14.9581 51.3855 14.3766 51.1012C14.0191 50.9456 13.9513 50.4587 13.5078 50.4528C13.3528 50.4633 13.5191 50.2602 13.3913 50.137C13.0451 49.7889 12.8222 49.3125 12.5564 48.9109C12.1469 48.3273 12.3256 47.584 11.9161 47.0003C11.8629 46.92 11.9433 46.8666 11.9862 46.7918C12.217 46.4765 11.9727 46.0375 12.2408 45.7437C12.1288 45.6793 12.1775 45.5082 11.9908 45.401C11.3776 44.999 10.743 44.6344 10.2101 44.179C9.4748 43.5575 8.80395 42.8237 8.49172 41.8979C8.41253 41.6035 8.41367 41.2558 8.39331 40.9455C8.39897 40.8493 8.44196 40.7744 8.38879 40.6941C8.08561 40.2711 8.45555 39.8865 8.51551 39.5228C8.52117 39.4265 8.60149 39.3731 8.4895 39.3088C7.71117 38.7621 7.1953 38.0179 6.70094 37.2362C6.2439 36.476 5.86719 35.6624 5.70995 34.726C5.65226 34.3943 5.59457 34.0626 5.63304 33.7363C5.68734 33.4689 5.624 33.2335 5.44299 33.0299C5.00631 32.58 4.56964 32.1301 4.3366 31.4986C4.26759 31.3594 4.18275 31.1613 4.05491 31.0381C3.62389 30.4919 3.72232 29.802 3.46779 29.2079C3.35127 28.8921 3.51306 28.4376 3.57302 28.074C3.6658 27.4803 3.59679 27.3411 3.05263 27.0783C2.58315 26.8583 2.2958 26.4942 2.02995 26.0926C1.90777 25.8732 1.66228 25.7819 1.51861 25.5998C1.42811 25.4981 1.30027 25.3749 1.30593 25.2786C1.21204 24.5777 0.845507 23.9192 0.692791 23.2343C0.423556 22.2336 0.40547 21.2279 0.446213 20.2063C0.458665 19.666 0.684937 19.0992 0.852378 18.5485C0.97117 18.1688 1.20196 17.8535 1.28342 17.4524C1.31623 17.2225 1.73369 17.0144 1.86832 16.6936C2.17491 16.0735 2.73717 15.6998 3.27794 15.3635C3.74404 14.9843 4.29047 14.5517 4.9636 14.5901C5.19325 14.6225 5.41838 14.4034 5.70687 14.4199C6.32116 14.4742 6.91396 14.5659 7.50111 14.7539C7.84276 14.8506 8.03056 14.6102 8.2342 14.4286C8.7003 14.0494 9.20374 13.6916 9.68568 13.3713C10.6711 12.6933 11.6938 12.0366 12.7855 11.5192C13.3206 11.2792 13.8614 10.9429 14.3965 10.7029C14.8942 10.4414 15.4667 10.2228 15.9113 9.88107C16.736 9.30978 17.6773 9.05426 18.4963 8.57926C19.3584 8.02941 20.268 7.65616 21.1832 7.18663C22.4571 6.525 23.7309 5.86337 24.9833 5.23916C25.7594 4.83898 26.6418 4.59943 27.3704 4.02267C27.9971 3.5367 28.789 3.1954 29.538 2.92892C30.5437 2.56115 31.4963 2.11306 32.502 1.74529C33.3686 1.44688 34.182 1.06815 35.1594 1.18178C35.3518 1.19274 35.5599 1.26256 35.7036 1.44462C35.9909 1.80876 36.241 2.15145 36.491 2.49414C36.7783 2.85828 36.8247 3.38257 37.3157 3.5651C37.353 3.58655 37.3417 3.77911 37.3949 3.85942C37.5487 4.19664 37.7026 4.53385 37.8994 4.79623C38.2241 5.18181 38.4469 5.6582 38.654 6.07573C38.93 6.63243 39.2434 7.21057 39.5409 7.72985C39.8916 8.32945 40.1834 8.94501 40.5341 9.5446C40.8 9.94616 41.007 10.3637 41.1925 10.8186C41.3996 11.2362 41.4833 11.7819 41.9098 12.0767C42.0591 12.1625 41.8985 12.2693 41.9301 12.387C42.2424 13.3128 42.7955 14.0785 43.2899 14.8602C43.4336 15.0423 43.4381 15.2937 43.523 15.4917C43.7141 15.8504 43.9053 16.209 44.118 16.5303C44.5377 17.2691 44.8183 18.0772 45.2595 18.7785C45.6633 19.4584 45.9869 20.1917 46.2946 20.8662C46.5491 21.4603 46.7233 22.1078 47.0955 22.6699C47.5955 23.3553 47.7369 24.2328 48.1781 24.9342C48.5503 25.4963 48.6815 26.2187 49.0164 26.7594C49.3886 27.3216 49.5413 28.0065 49.892 28.6061C50.0673 28.9059 50.1035 29.275 50.2789 29.5748C50.7676 30.4528 51.176 31.3841 51.6059 32.278C51.9351 32.915 52.2801 33.6109 52.5505 34.2639C52.8265 34.8206 53.0222 35.4307 53.2767 36.0248C53.6003 36.7581 53.9238 37.4914 54.2474 38.2247C54.6773 39.1186 55.1445 40.0339 55.6332 40.9119C56.037 41.5918 56.3018 42.341 56.5291 43.0689C56.6773 43.5023 56.5269 43.7643 56.1682 43.9564C56.0076 44.0631 56.0234 44.122 56.0121 44.3146C56.0212 44.8174 56.0517 45.2829 56.0822 45.7483C56.1976 46.4118 56.1365 47.1231 56.4872 47.7227C56.5936 47.8834 56.7157 48.1028 56.9352 47.9801C57.0529 47.9482 57.1762 47.8199 57.2825 47.9806C57.3515 48.1197 57.2655 48.2694 57.1422 48.3976C56.5528 48.905 55.7722 49.0538 55.1353 49.3846C54.4984 49.7154 53.7924 49.9071 53.2675 50.3022C53.0853 50.4464 52.8342 50.4514 52.6736 50.5582C52.4326 50.7184 52.1543 50.8571 51.8975 50.9584C51.1644 51.2837 50.4686 51.6305 49.7729 51.9773C49.1359 52.3081 48.4402 52.6549 47.7659 52.9642C46.9152 53.3215 46.0429 53.7162 45.2454 54.1538C45.0259 54.2766 44.7001 54.2387 44.4591 54.3988C43.6774 54.8953 42.7949 55.1349 41.9815 55.5136C41.3073 55.8229 40.5742 56.1483 39.8999 56.4577C38.9258 56.9432 37.9043 57.2521 36.9302 57.7376C36.1756 58.1003 35.421 58.4631 34.6133 58.7455C33.7252 59.0814 32.853 59.4761 32.0181 59.8922C31.5203 60.1537 30.9637 60.4311 30.4557 60.5374C29.8674 60.6971 29.3482 60.996 28.7599 61.1557C28.3854 61.2889 28.0109 61.4221 27.6897 61.6357C27.1862 61.9934 26.5346 61.9177 26.0312 62.2754C25.9452 62.4251 25.3693 62.0445 25.2053 61.5522ZM42.4669 50.8656C42.4669 50.8656 42.4454 50.903 42.4081 50.8816C42.3232 50.6836 42.1683 50.6941 42.0076 50.8008C41.8899 50.8328 41.8255 50.945 41.6863 51.0144C40.9102 51.4145 40.0493 51.6167 39.3106 52.0383C39.1714 52.1077 39.0854 52.2573 38.9304 52.2678C38.0853 52.5288 37.2878 52.9664 36.4744 53.3451C36.3352 53.4145 36.2175 53.4464 36.0784 53.5158C35.1688 53.889 34.2751 54.3212 33.4028 54.7158C33.0069 54.8865 32.6109 55.0572 32.215 55.2278C31.7817 55.377 31.3642 55.5851 30.8721 55.7503C29.6899 56.166 28.5925 56.7797 27.5698 57.4363C27.1897 57.6658 27.1455 58.0883 27.1071 58.4146C27.0743 58.6446 27.4114 58.4899 27.5822 58.5383C27.5607 58.5757 27.5766 58.6346 27.5551 58.672C26.951 58.7728 26.8265 59.2487 26.7394 59.7461C26.7337 59.8424 26.7066 59.9761 26.7439 59.9975C26.8186 60.0404 26.9362 60.0085 27.0166 59.9551C27.2632 59.6987 27.5732 59.6777 27.8831 59.6567C28.097 59.6302 28.3266 59.6626 28.4499 59.5344C28.9319 59.2141 29.4828 59.0329 29.9806 58.7715C30.8958 58.3019 31.8269 57.8913 32.7048 57.4003C33.5239 56.9253 34.4119 56.5895 35.2468 56.1733C35.9211 55.864 36.5954 55.5546 37.195 55.2023C37.9337 54.7807 38.72 54.5357 39.4587 54.114C39.8977 53.8686 40.4328 53.6286 40.9622 53.4848C41.2564 53.405 41.5879 53.3466 41.8288 53.1864C42.5302 52.7433 43.2792 52.4769 44.0338 52.1141C44.7668 51.7888 45.4784 51.5008 46.2115 51.1755C47.0034 50.8342 47.801 50.3966 48.6461 50.1356C49.1382 49.9704 49.5772 49.7249 50.0535 49.5009C51.7979 48.7115 53.5899 48.0987 55.3344 47.3093C55.4736 47.24 55.8367 47.2993 55.7417 46.9461C55.6942 46.7695 55.684 46.6144 55.6738 46.4592C55.6331 45.8386 55.4464 45.7314 54.8955 45.9126C54.4622 46.0618 54.0289 46.211 53.5741 46.3976C52.8037 46.7015 52.0706 47.0268 51.2844 47.2718C50.5354 47.5383 49.8397 47.8851 49.1281 48.173C48.4968 48.4076 47.9345 48.7813 47.2931 48.8607C47.2241 48.7215 47.2297 48.6252 47.4436 48.5987C47.9142 48.471 48.2943 48.2415 48.7491 48.0548C49.2842 47.8148 49.8351 47.6337 50.3114 47.4096C51.1033 47.0683 51.8738 46.7644 52.6815 46.482C53.3931 46.1941 54.1421 45.9276 54.8536 45.6397C55.2281 45.5064 55.8051 45.5393 55.5189 44.8275C55.503 44.7686 55.5947 44.5226 55.52 44.4798C55.4295 44.378 55.2632 44.581 55.2044 44.597C54.9374 44.5432 54.8084 44.7677 54.6104 44.853C53.7382 45.2477 52.8818 45.7013 52.0095 46.096C51.4529 46.3734 50.8963 46.6508 50.2865 46.8479C49.7944 47.0131 49.3396 47.1997 48.9007 47.4452C48.5421 47.6373 48.1834 47.8294 47.7875 48.0001C46.9367 48.3574 46.1765 48.8164 45.3257 49.1737C44.7318 49.4297 44.1695 49.8034 43.5598 50.0005C43.1853 50.1337 42.9172 50.4276 42.5054 50.5394C42.3662 50.6087 42.3764 50.7639 42.4669 50.8656ZM12.0171 29.1925C12.0578 29.813 12.6608 30.0599 12.6856 30.6216C12.7218 30.9908 13.0895 31.3015 13.1845 31.6547C13.3587 32.3022 13.8701 32.795 14.0228 33.48C14.033 33.6351 14.283 33.9778 14.7321 33.8874C15.5715 33.7227 16.4427 33.6757 17.2855 34.1102C18.1283 34.5446 18.7516 35.1017 19.1872 35.8994C19.2562 36.0385 19.2822 36.2525 19.5446 36.055C19.6465 35.9642 19.8388 35.9751 19.9293 36.0769C20.0571 36.2001 20.2008 36.3821 20.0933 36.5692C19.9644 36.7937 19.8727 37.0397 19.5944 37.1784C19.2143 37.4079 18.8998 37.1775 18.6815 36.9525C18.5004 36.749 18.6079 36.5619 18.7901 36.4177C18.8704 36.3643 18.8546 36.3055 18.8172 36.284C18.5932 36.1553 18.514 35.861 18.3489 35.7164C17.6825 35.234 16.9517 34.864 16.1293 34.7398C15.7661 34.6805 15.403 34.6212 15.0342 34.6582C14.8203 34.6846 14.6755 34.8503 14.8034 34.9735C15.1066 35.3965 15.3667 35.8943 15.6484 36.3547C15.9833 36.8954 16.1417 37.4841 16.455 38.0622C16.7684 38.6404 17.0818 39.2185 17.3521 39.8715C17.4528 40.1284 17.7356 40.2411 17.9121 40.1932C18.4472 39.9532 18.954 40.1946 19.4507 40.2808C20.0435 40.3726 20.7268 40.566 21.185 40.9786C21.4248 41.1661 21.6974 41.1237 21.8999 41.2898C22.2461 41.6379 22.6353 41.9113 22.9011 42.3128C23.0448 42.4949 23.1511 42.6555 23.3808 42.6879C23.6478 42.7418 23.6896 43.0146 23.6195 43.2232C23.5222 43.5654 23.2439 43.7041 22.9656 43.8428C22.6873 43.9815 22.426 43.8314 22.3411 43.6334C22.2563 43.4353 21.9848 43.1301 22.3649 42.9005C22.4452 42.8471 22.435 42.692 22.323 42.6277C22.1205 42.4616 21.9769 42.2795 21.7744 42.1134C21.4225 41.8615 21.0492 41.647 20.6759 41.4326C20.3399 41.2395 19.9337 41.2551 19.5763 41.0995C19.1814 40.9224 18.7753 40.9379 18.3318 40.932C18.1983 40.9051 18.0807 40.937 18.0003 40.9904C17.9359 41.1026 17.946 41.2578 18.1169 41.3061C18.5649 41.5635 18.5151 42.0823 18.8024 42.4465C19.0366 42.7303 19.1848 43.1638 19.3975 43.485C19.8443 44.0901 20.0129 44.8339 20.4812 45.4015C20.7154 45.6854 20.9813 46.0869 21.0706 46.5364C21.0865 46.5952 21.2086 46.8147 21.3795 46.8631C22.3139 47.0516 23.2382 47.0849 24.167 47.3696C24.925 47.606 25.4951 48.0829 26.1671 48.4689C26.6151 48.7263 26.9126 49.2456 27.114 49.7594C27.2147 50.0163 27.2565 50.2891 27.6253 50.2522C27.7215 50.2577 27.7532 50.3754 27.769 50.4342C27.8855 50.75 27.7396 51.2634 27.424 51.3806C27.1298 51.4605 26.8085 51.674 26.537 51.3688C26.244 51.1009 26.3198 50.7961 26.5664 50.5396C26.7112 50.374 26.6852 50.16 26.5732 50.0957C26.2587 49.8652 26.0461 49.544 25.7904 49.2976C25.3537 48.8476 24.7824 48.7185 24.3027 48.3434C24.0097 48.0755 23.6353 48.2088 23.3151 48.0746C22.8241 47.8921 22.4293 47.715 21.8625 47.8373C21.5684 47.9172 21.6804 47.9815 21.6906 48.1367C21.7856 48.4898 22.0571 48.7951 22.1736 49.1109C22.4485 50.0153 22.9859 50.7221 23.4214 51.5198C23.9633 52.478 24.5855 53.3829 25.1489 54.3037C25.5369 54.9247 26.0697 55.3801 26.5007 55.9264C26.5912 56.0281 26.6817 56.1299 26.6919 56.285C26.7394 56.4616 26.7756 56.8308 27.1128 56.6761C27.3696 56.5748 27.6796 56.5538 27.8617 56.4096C28.3651 56.0519 28.9749 55.8547 29.5473 55.6362C30.5587 55.1721 31.5486 54.7455 32.56 54.2814C33.154 54.0255 33.7479 53.7695 34.326 53.4546C35.0648 53.033 35.8295 52.8254 36.5841 52.4626C37.376 52.1213 38.1148 51.6997 38.8694 51.337C39.7416 50.9423 40.555 50.5635 41.4273 50.1688C42.08 49.8969 42.7328 49.6249 43.3324 49.2727C43.9693 48.9419 44.6006 48.7073 45.216 48.4139C45.8903 48.1045 46.5645 47.7952 47.2388 47.4858C47.7739 47.2458 48.2875 47.0432 48.8226 46.8032C49.5184 46.4564 50.2458 46.2273 50.8669 45.8377C51.9485 45.1651 53.1307 44.7494 54.1907 44.1142C54.6727 43.7939 55.2553 43.7305 55.6999 43.3887C55.9035 43.2071 55.9092 43.1108 55.8085 42.8539C55.6762 42.4793 55.3243 42.2274 55.2666 41.8957C55.1309 40.9219 54.5562 40.1936 54.201 39.3426C53.9623 38.8074 53.7824 38.2561 53.4849 37.7369C53.0969 37.1158 52.9068 36.4095 52.5403 35.751C52.2111 35.114 51.9622 34.4236 51.633 33.7866C51.4418 33.4279 51.4056 33.0588 51.1341 32.7535C50.9531 32.55 50.7778 32.2502 50.7359 31.9773C50.6364 31.3727 50.2212 30.8854 50.004 30.3127C49.8184 29.8577 49.5526 29.4562 49.3671 29.0012C49.0119 28.1502 48.5978 27.3152 48.1838 26.4801C47.8546 25.8431 47.6057 25.1527 47.2765 24.5157C47.0695 24.0982 46.9428 23.6273 46.6769 23.2257C46.1237 22.46 45.8862 21.5771 45.5094 20.7635C45.0581 19.907 44.6282 19.0131 44.2198 18.0817C44.0976 17.8622 43.8951 17.6962 43.8476 17.5196C43.3499 16.1388 42.3871 14.7895 41.7401 13.3229C41.2151 12.0758 40.4923 10.914 39.8497 9.69883C39.7649 9.50079 39.6585 9.34017 39.5737 9.14213C39.0906 8.16791 38.3293 7.3324 38.0069 6.2514C37.991 6.19253 37.9005 6.09078 37.8632 6.06933C37.6132 5.72664 37.224 5.45331 37.2738 4.93448C37.2794 4.8382 37.2636 4.77934 37.2478 4.72048C36.9344 4.14233 36.5781 3.63902 36.2432 3.09829C36.0147 2.71818 35.8077 2.30066 35.5418 1.8991C35.4196 1.67962 35.2171 1.51352 34.9977 1.63626C34.484 1.83886 33.9761 1.94517 33.4251 2.12632C32.5212 2.40329 31.649 2.79798 30.7982 3.15526C29.926 3.54996 29.0752 3.90724 28.2618 4.28597C27.8659 4.45662 27.5231 4.70759 27.1271 4.87824C26.5117 5.17164 25.8804 5.40617 25.2808 5.75844C25.1417 5.82779 25.0342 6.01488 24.8792 6.02537C24.4142 6.05685 24.0126 6.32379 23.6325 6.55331C23.1132 6.85218 22.594 7.15106 22.0215 7.36962C21.8824 7.43898 21.759 7.5672 21.6041 7.5777C21.4276 7.62561 21.3948 7.85558 21.2398 7.86608C20.6413 7.87063 20.2657 8.35158 19.7148 8.53273C19.0835 8.76726 18.4409 9.19436 17.8255 9.48776C17.167 9.85599 16.4181 10.1225 15.797 10.5122C14.6137 11.2756 13.3828 11.8624 12.1836 12.5669C11.1236 13.202 10.042 13.8746 8.96049 14.5472C8.41973 14.8835 8.43556 14.9424 8.95256 15.3389C8.9899 15.3604 9.02723 15.3818 9.06456 15.4033C9.46391 15.8317 9.82026 16.335 10.1981 16.8009C10.5601 17.208 10.6653 17.7163 10.9685 18.1393C11.1495 18.3428 10.9561 18.6796 11.1959 18.8671C11.5477 19.119 11.5466 19.4667 11.4334 19.7501C11.3418 19.996 11.0205 20.2096 10.7105 20.2306C10.4967 20.257 10.2886 20.1872 10.1822 20.0266C10.0759 19.866 10.0872 19.6734 10.232 19.5078C10.3123 19.4544 10.2965 19.3955 10.3021 19.2992C10.0273 18.3948 9.83269 17.437 9.10301 16.7192C8.93784 16.5746 8.75117 16.4674 8.66633 16.2693C8.47514 15.9107 8.112 15.8513 7.85633 15.6049C7.76582 15.5032 7.64817 15.5351 7.45019 15.6204C7.25221 15.7058 7.0859 15.9088 6.85059 15.9727C6.35847 16.1379 6.35281 16.2342 6.59717 16.6731C6.85736 17.171 7.13905 17.6314 7.34041 18.1452C8.03049 19.5369 8.44226 21.0674 9.03051 22.55C9.14703 22.8657 9.3337 22.973 9.56901 22.9091C10.9322 22.6969 11.8972 23.3508 12.7276 24.3255C12.8554 24.4487 12.9403 24.6467 13.0523 24.7111C13.5059 24.8722 13.5263 25.1824 13.3702 25.5406C13.2785 25.7866 12.7434 26.0266 12.4821 25.8765C12.1834 25.7049 12.0024 25.5014 12.2174 25.1272C12.2603 25.0524 12.2445 24.9935 12.2128 24.8758C11.921 24.2602 11.301 24.3022 10.8157 24.0234C10.4797 23.8304 10.0521 23.8833 9.7319 23.7491C9.29975 23.5506 9.43776 23.829 9.42645 24.0216C9.40947 24.3104 9.6923 24.4231 9.73415 24.696C9.79184 25.0277 9.9242 25.4023 10.0781 25.7396C10.4231 26.4354 10.7681 27.1313 11.0328 27.8806C11.1335 28.1375 11.336 28.3036 11.5283 28.3145C11.9877 28.3793 12.4843 28.4656 12.9221 28.5678C13.7762 28.8096 14.636 28.9552 15.2481 29.7049C15.3917 29.887 15.5773 30.3419 16.1124 30.1019C16.4495 29.9472 16.6825 30.5788 16.4517 30.8941C16.2424 31.172 15.9698 31.2144 15.6598 31.2354C15.1949 31.2669 15.0455 31.1811 15.0897 30.7585C15.0795 30.6034 15.0851 30.5071 14.9358 30.4213C14.5998 30.2283 14.3441 29.9819 14.0296 29.7515C13.4753 29.3335 12.7648 29.2737 12.0171 29.1925ZM56.2723 48.0969C56.2089 47.8615 55.9261 47.7487 55.9001 47.5347C55.8842 47.4759 55.8096 47.433 55.6331 47.4809C55.2156 47.689 54.857 47.8811 54.4237 48.0303C53.5141 48.4035 52.5831 48.8142 51.6735 49.1874C50.2718 49.7259 48.9176 50.4409 47.4786 50.9579C46.5905 51.2937 45.7341 51.7473 44.8834 52.1045C44.0699 52.4833 43.2565 52.862 42.3899 53.1604C42.1546 53.2243 41.882 53.2667 41.7213 53.3735C41.4374 53.6085 41.1217 53.7258 40.7846 53.8804C40.073 54.1684 39.4146 54.5366 38.703 54.8245C37.7346 55.2137 36.8137 55.7795 35.8238 56.2062C35.4867 56.3609 35.2242 56.5584 34.8712 56.6543C34.5986 56.6967 34.3361 56.8943 34.0578 57.033C33.5601 57.2944 33.0091 57.4756 32.5645 57.8174C32.302 58.0149 31.9706 58.0733 31.6334 58.228C30.9592 58.5374 30.2849 58.8468 29.648 59.1776C29.0699 59.4924 28.4759 59.7484 27.8662 59.9455C27.5505 60.0628 27.2666 60.2978 26.8604 60.3133C26.6093 60.3183 26.3672 60.8262 26.521 61.1634C26.6217 61.4203 26.8627 61.2601 27.0392 61.2122C27.6059 61.09 28.1037 60.8285 28.6388 60.5885C29.5111 60.1938 30.3777 59.8954 31.2126 59.4792C31.63 59.2712 32.0316 59.0042 32.4808 58.9139C33.1494 58.7008 33.7433 58.4448 34.3587 58.1514C35.033 57.842 35.6699 57.5112 36.3227 57.2393C37.1734 56.882 38.0185 56.621 38.8376 56.146C38.9983 56.0392 39.1216 55.911 39.3354 55.8845C40.0198 55.7303 40.6409 55.3406 41.2937 55.0687C42.2248 54.658 43.1558 54.2473 44.0869 53.8367C44.6593 53.6181 45.285 53.4799 45.8042 53.181C45.8846 53.1276 45.8427 52.8547 46.0667 52.9834C46.2534 53.0906 46.3982 52.925 46.5747 52.8771C47.1844 52.68 47.5974 52.2205 48.1856 52.0608C48.7739 51.9011 49.283 51.447 49.8713 51.2873C50.5399 51.0743 51.1395 50.722 51.7764 50.3912C52.2742 50.1297 52.8093 49.8897 53.3229 49.6871C54.2325 49.3139 55.0731 48.8014 56.02 48.4496C56.2338 48.4232 56.3571 48.295 56.2723 48.0969ZM4.19414 26.042C4.11947 25.9991 4.11947 25.9991 4.08214 25.9777C4.31745 25.9138 4.1636 25.5766 4.34008 25.5287C4.80053 25.2458 5.05847 24.7968 5.48158 24.4924C5.5834 24.4016 5.66373 24.3482 5.51439 24.2624C5.27456 24.0749 5.3877 23.7915 5.39901 23.599C5.48274 22.5025 5.31533 21.411 5.45789 20.2985C5.53483 19.646 5.57443 18.972 5.65137 18.3195C5.71134 17.9558 5.7713 17.5921 5.7566 17.1856C5.70005 16.5061 5.71816 15.8696 6.48858 15.5657C6.54741 15.5497 6.5689 15.5123 6.5904 15.4749C6.67072 15.4215 6.71371 15.3466 6.66054 15.2663C6.62887 15.1486 6.53271 15.1431 6.43654 15.1377C6.24422 15.1267 6.12091 15.2549 5.95008 15.2065C5.00997 15.1144 4.1909 15.5894 3.49966 16.1876C3.29603 16.3692 3.0494 16.6256 2.82992 16.7484C2.42831 17.0153 2.25069 17.4109 2.03573 17.7851C1.7348 18.3089 1.54586 18.8971 1.41009 19.5656C1.24604 20.7155 1.25847 21.8175 1.48471 22.893C1.57974 23.2462 1.74942 23.6423 1.84445 23.9955C1.93947 24.3486 2.25397 24.5791 2.3275 24.9697C2.40669 25.264 2.6567 25.6067 2.9497 25.8745C3.07754 25.9977 3.3072 26.0301 3.39204 26.2282C3.43955 26.4048 3.62621 26.512 3.74387 26.4801C3.97918 26.4162 4.07082 26.1702 4.19414 26.042ZM25.0764 60.1344C25.177 60.3913 25.3524 60.6911 25.4689 61.0069C25.5006 61.1246 25.6284 61.2478 25.7144 61.0981C25.8275 60.8148 25.9407 60.5314 25.9576 60.2426C25.9588 59.8949 26.0561 59.5526 26.1477 59.3067C26.3095 58.8522 26.546 58.4406 26.5742 57.9592C26.5856 57.7666 26.538 57.5901 26.4102 57.4668C25.8615 56.9526 25.693 56.2088 25.1873 55.6197C24.7348 55.1109 24.4271 54.4365 24.0176 53.8529C23.6985 53.371 23.4383 52.8732 23.1193 52.3913C22.8003 51.9094 22.5243 51.3527 22.1679 50.8494C21.9711 50.587 21.9722 50.2393 21.7754 49.977C21.3975 49.5111 21.298 48.9065 21.0966 48.3926C20.9959 48.1357 20.9914 47.8843 20.5423 47.9747C20.152 48.049 19.7617 48.1234 19.3499 48.2352C19.0772 48.2776 18.8679 48.5555 18.6111 48.6568C18.5896 48.6942 18.5466 48.7691 18.5466 48.7691C18.7277 48.9726 18.5184 49.2505 18.7955 49.4595C18.9449 49.5453 19.0829 49.8236 19.205 50.0431C19.3431 50.3214 19.2774 50.7814 19.7582 50.8088C19.7956 50.8302 19.8114 50.8891 19.8273 50.948C20.0806 51.8898 20.5694 52.7677 21.0637 53.5494C21.5954 54.3525 21.988 55.225 22.4982 56.0655C22.9394 56.7668 23.4021 57.4308 23.7415 58.2229C24.108 58.8814 24.6137 59.4705 25.0764 60.1344ZM20.497 47.1027C20.264 46.4711 19.7685 46.0372 19.669 45.4326C19.6531 45.3737 19.6373 45.3148 19.5999 45.2934C19.2379 44.8864 19.0151 44.41 18.7707 43.971C18.2662 43.0342 17.799 42.1188 17.3317 41.2035C17.2786 41.1232 17.2254 41.0428 17.1077 41.0748C16.6371 41.2025 16.1348 41.2126 15.7332 41.4795C15.6529 41.5329 15.6314 41.5703 15.5352 41.5648C15.2094 41.527 15.0374 41.8263 14.8338 42.0079C14.6732 42.1147 14.8915 42.3396 14.9232 42.4574C14.9752 42.8854 15.3644 43.1587 15.4379 43.5493C15.4956 43.8811 15.6924 44.1434 15.8519 44.3844C15.9051 44.4647 16.0171 44.529 16.0273 44.6842C16.1698 45.2139 16.4085 45.7492 16.792 46.1188C17.266 46.5902 17.4832 47.1629 17.7219 47.6981C17.8916 48.0942 18.0896 48.0089 18.2876 47.9235C18.9302 47.4964 19.6101 47.0908 20.497 47.1027ZM12.9558 47.6971C12.9501 47.7934 13.0836 47.8203 13.1153 47.9381C13.1401 48.4998 13.4648 48.8854 13.7522 49.2495C14.2522 49.9349 15.0362 50.3853 15.6595 50.9424C15.7874 51.0656 15.9695 50.9214 16.0385 51.0606C16.1019 51.2961 16.2625 51.1893 16.3428 51.1359C16.4605 51.104 16.6155 51.0935 16.6268 50.9009C16.6076 50.2429 16.8712 49.6976 17.1721 49.1738C17.2796 48.9867 17.4142 48.6659 17.3769 48.6445C17.0737 48.2215 16.9742 47.6169 16.6121 47.2098C16.3938 46.9849 16.2128 46.7814 16.1178 46.4282C16.0544 46.1927 15.9809 45.8021 15.6551 45.7642C15.3293 45.7264 14.9016 45.7793 14.5702 45.8377C14.0622 45.944 13.6187 45.9381 13.1221 45.8518C13.0259 45.8464 12.9411 45.6483 12.8336 45.8354C12.7691 45.9476 12.6673 46.0385 12.7521 46.2365C12.837 46.4345 12.8947 46.7663 12.889 46.8625C12.7544 47.1833 12.9139 47.4243 12.9558 47.6971ZM12.3168 35.5853C11.7601 35.8628 11.6742 36.0124 11.8337 36.2534C11.9932 36.4943 12.1097 36.8101 12.2104 37.067C12.4706 37.5648 12.7896 38.0467 12.9321 38.5765C13.0272 38.9296 13.2398 39.2509 13.3937 39.5881C13.6539 40.0859 13.9729 40.5678 14.1528 41.119C14.1686 41.1779 14.2161 41.3545 14.3179 41.2637C14.5216 41.0821 14.8101 41.0985 15.0137 40.9169C15.2977 40.6819 15.6133 40.5646 15.9821 40.5277C16.8589 40.3844 16.8215 40.3629 16.4233 39.5868C16.179 39.1478 15.8385 38.7033 15.7276 38.2913C15.6066 37.7241 15.1212 37.4453 15.0002 36.8781C14.9323 36.3912 14.4956 35.9413 14.2943 35.4275C14.2151 35.1332 14.0556 34.8922 13.6008 35.0789C13.2263 35.2121 12.681 35.297 12.3168 35.5853ZM10.9581 34.4067C11.1017 34.5888 11.2771 34.8885 11.4524 35.1883C11.5215 35.3275 11.5803 35.3116 11.6233 35.2367C12.1109 34.8201 12.7048 34.5641 13.2829 34.2493C13.5827 34.0732 13.6042 34.0357 13.4662 33.7574C13.1585 33.083 12.8723 32.3711 12.5057 31.7127C12.1234 30.9953 11.7998 30.262 11.4175 29.5447C11.2953 29.3252 11.2421 29.2449 11.0283 29.2714C10.4672 29.2974 9.95921 29.4037 9.48293 29.6278C9.28495 29.7131 8.99647 29.6966 8.86749 29.9212C8.71703 30.1831 9.05868 30.2798 9.12203 30.5153C9.13787 30.5741 9.1752 30.5956 9.1537 30.633C9.40258 31.3234 9.76911 31.9818 10.0983 32.6189C10.2205 32.8383 10.4388 33.0633 10.449 33.2185C10.501 33.6465 10.7726 33.9517 10.9581 34.4067ZM9.91716 42.2689C10.0122 42.622 10.2939 43.0825 10.7362 43.4361C11.1944 43.8486 11.6955 44.1863 12.1967 44.524C12.234 44.5454 12.4207 44.6526 12.3732 44.4761C12.3313 44.2032 12.5135 44.059 12.5463 43.829C12.7137 43.2782 12.9773 42.733 13.3903 42.2735C13.6799 41.9422 13.6007 41.6479 13.4253 41.3481C13.2025 40.8717 12.9208 40.4113 12.6979 39.9349C12.6504 39.7583 12.5656 39.5602 12.3461 39.683C11.9501 39.8536 11.5972 39.9495 11.1537 39.9435C10.5394 39.8892 9.92964 40.0863 9.35381 39.7058C9.24181 39.6414 9.12415 39.6734 9.13433 39.8285C9.31872 40.6312 9.48728 41.3749 9.91716 42.2689ZM18.7536 55.7556C18.9719 55.9806 19.1688 56.2429 19.4086 56.4305C19.9471 56.7896 20.5931 56.9616 21.1745 57.2459C21.5694 57.423 21.8963 57.1132 22.238 57.2099C22.3341 57.2154 22.324 57.0602 22.2708 56.9799C22.1644 56.8193 22.0796 56.6213 21.9303 56.5355C21.7809 56.4497 21.6904 56.3479 21.7176 56.2142C21.7504 55.9843 21.6226 55.861 21.4789 55.679C21.1915 55.3148 20.8454 54.9667 20.7402 54.4583C20.6768 54.2229 20.5331 54.0408 20.411 53.8213C20.1666 53.3824 19.8634 52.9594 19.7424 52.3922C19.6949 52.2156 19.5308 51.7232 19.1722 51.9153C18.7333 52.1608 18.3113 52.1175 17.8622 52.2078C17.4934 52.2448 17.2682 52.4638 17.3417 52.8544C17.3994 53.1861 17.4786 53.4804 17.7128 53.7643C17.766 53.8446 17.8621 53.8501 17.8191 53.9249C17.663 54.2831 18.0363 54.4976 18.0567 54.8078C18.1676 55.2199 18.6212 55.381 18.7536 55.7556ZM8.02357 28.1922C8.12991 28.3528 8.17742 28.5294 8.28376 28.69C8.45345 29.0861 8.72609 29.0437 9.04173 28.9264C9.59268 28.7453 10.0961 28.3875 10.7002 28.2867C10.914 28.2602 10.7862 28.137 10.7704 28.0781C10.638 27.7035 10.4842 27.3663 10.3303 27.0291C9.99659 26.1407 9.46489 25.3375 9.27032 24.3797C9.13345 23.7537 8.71713 23.6141 8.13903 23.9289C7.72157 24.137 7.28828 24.2862 6.90816 24.5157C6.82784 24.5691 6.4002 24.622 6.61854 24.847C7.03938 25.238 6.72713 25.9544 7.3516 26.1639C7.23281 26.5435 7.52581 26.8114 7.64233 27.1272C7.67853 27.4963 7.86972 27.855 8.02357 28.1922ZM8.68523 38.2766C8.9047 38.1539 8.98051 37.849 9.06649 37.6994C9.40023 36.9456 10.0428 36.5185 10.5417 35.9093C10.708 35.7062 10.751 35.6314 10.613 35.3531C10.4218 34.9944 10.07 34.7425 10.018 34.3145C9.88109 33.6884 9.90258 33.651 9.34032 34.0247C9.34032 34.0247 9.34032 34.0247 9.28149 34.0407C8.48505 34.1306 7.66712 34.2579 6.87181 34.0001C6.73832 33.9731 6.57881 33.7322 6.47133 33.9193C6.34802 34.0475 6.35254 34.2989 6.37856 34.513C6.44643 34.9998 6.7926 35.348 6.94079 35.7815C7.14216 36.2953 7.34352 36.8091 7.72137 37.275C7.93405 37.5962 8.20556 37.9015 8.45557 38.2442C8.50874 38.3245 8.54608 38.346 8.68523 38.2766ZM6.24306 17.1167C6.26681 18.0261 6.21023 18.9889 6.19664 19.8769C6.20002 20.476 6.08575 21.1071 6.03031 21.7222C5.95337 22.3747 5.93526 23.0112 6.1683 23.6428C6.23165 23.8782 6.36514 23.9052 6.52579 23.7984C6.75092 23.5794 7.08239 23.521 7.37653 23.4411C7.69217 23.3238 7.96029 23.03 8.38227 23.0733C8.51576 23.1003 8.79406 22.9615 8.67755 22.6458C8.54519 22.2711 8.43433 21.8591 8.30197 21.4845C7.97843 20.7512 7.65489 20.0179 7.39017 19.2686C6.99197 18.4924 6.64693 17.7966 6.24306 17.1167ZM5.38871 31.6551C5.49505 31.8157 5.60139 31.9763 5.69189 32.0781C5.79823 32.2387 5.91589 32.2068 5.96454 32.0356C6.05731 31.442 6.35259 31.0144 6.74403 30.5924C6.99065 30.3359 7.23728 30.0795 7.55858 29.8659C7.71923 29.7591 7.84254 29.6309 7.68303 29.39C7.37984 28.967 7.25315 28.4961 7.12645 28.0252C6.93074 27.4151 6.81195 27.7947 6.57664 27.8586C6.06868 27.9649 5.58222 28.0338 5.0754 27.7924C4.92606 27.7066 4.77673 27.6209 4.64324 27.5939C4.47241 27.5456 4.32308 27.4598 4.32195 27.8075C4.25519 28.6151 4.61606 29.3699 4.80611 30.0762C4.92715 30.6434 5.18734 31.1413 5.38871 31.6551ZM9.18308 33.0884C9.20457 33.051 9.47156 33.1048 9.34939 32.8853C9.24305 32.7247 9.1582 32.5267 9.07336 32.3286C8.87765 31.7185 8.32332 31.3006 8.24527 30.6585C8.21359 30.5408 8.15477 30.5568 8.01561 30.6261C7.65133 30.9145 7.56421 31.4119 7.14676 31.62C7.08793 31.6359 7.16259 31.6788 7.1411 31.7162C7.22594 31.9143 7.0438 32.0585 6.90465 32.1278C6.60485 32.304 6.69987 32.6571 6.54941 32.9191C6.50642 32.9939 6.62859 33.2134 6.70892 33.16C7.02455 33.0427 7.18406 33.2837 7.39222 33.3535C8.03819 33.5255 8.56199 33.4781 9.18308 33.0884ZM11.0587 36.3058C11.1006 36.5787 11.1266 36.7927 10.8008 36.7548C10.7046 36.7494 10.5067 36.8347 10.458 37.0058C10.4094 37.1769 10.3392 37.3855 10.2159 37.5137C9.91044 37.7861 9.81314 38.1283 9.61968 38.4651C9.51221 38.6522 9.55406 38.925 9.78371 38.9574C10.1842 39.0382 10.5688 39.0601 10.9852 39.1997C11.3268 39.2965 11.7013 39.1632 12.0011 38.9871C12.1617 38.8803 12.1674 38.7841 12.1572 38.6289C12.1267 38.1635 11.7805 37.8153 11.6696 37.4033C11.5158 37.0661 11.3461 36.67 11.0587 36.3058ZM14.4718 43.2431C14.3813 43.1414 14.3123 43.0022 14.2059 42.8416C14.1369 42.7024 13.9819 42.7129 13.9174 42.8251C13.7455 43.1245 13.4615 43.3595 13.4977 43.7286C13.5339 44.0978 13.2714 44.2954 13.1583 44.5787C13.0452 44.8621 13.0983 44.9424 13.3065 45.0122C13.8563 45.1788 14.3858 45.0351 14.9311 44.9502C15.2037 44.9078 15.1935 44.7526 15.0872 44.592C14.939 44.1585 14.6946 43.7195 14.4718 43.2431ZM6.00763 25.3918C5.94428 25.1563 5.83228 25.092 5.65014 25.2362C5.54832 25.327 5.4465 25.4178 5.36052 25.5675C5.14556 25.9416 4.93061 26.3158 4.71566 26.69C4.60818 26.8771 4.72018 26.9414 4.87517 26.9309C5.34013 26.8994 5.82094 26.9268 6.28591 26.8953C6.38207 26.9008 6.49972 26.8689 6.46805 26.7511C6.4047 26.5157 6.28252 26.2962 6.278 26.0448C6.25198 25.8308 5.97368 25.9695 6.03816 25.8572C6.18297 25.6916 6.07663 25.531 6.00763 25.3918ZM17.9889 49.3942C17.5273 50.0248 17.4345 50.6185 17.3791 51.2336C17.3463 51.4636 17.4266 51.4102 17.5974 51.4585C18.0353 51.5608 18.2932 51.1118 18.6778 51.1337C18.774 51.1391 18.903 50.9146 18.7751 50.7914C18.5036 50.4862 18.4889 50.0796 18.1586 49.7903C18.1428 49.7314 17.8916 49.7364 17.9889 49.3942Z" fill="#BBB0DB"/>
<path d="M42.4684 50.8656C42.7354 50.9195 42.9017 50.7164 43.1585 50.6151C43.8701 50.3272 44.5817 50.0393 45.2243 49.6122C45.8239 49.2599 46.471 49.0842 47.0649 48.8283C47.2041 48.7589 47.1984 48.8552 47.2516 48.9355C46.7267 49.3307 46.1327 49.5866 45.5388 49.8426C44.9234 50.136 44.3079 50.4294 43.7298 50.7443C43.4888 50.9044 43.1947 50.9843 42.8791 51.1015C42.0068 51.4962 41.1289 51.9872 40.2194 52.3605C39.3313 52.6963 38.5869 53.2142 37.7576 53.5341C37.1263 53.7686 36.5268 54.1209 35.9113 54.4143C35.4724 54.6597 35.0334 54.9052 34.5413 55.0704C33.9689 55.289 33.4813 55.7056 32.9088 55.9241C32.2187 56.1747 31.6508 56.6446 30.9607 56.8951C30.4471 57.0977 29.9651 57.4181 29.4674 57.6795C29.4515 57.6207 29.4142 57.5992 29.3984 57.5404C29.576 57.1447 29.9821 57.1292 30.2819 56.9531C30.903 56.5634 31.5931 56.3129 32.2142 55.9232C32.9744 55.4642 33.7879 55.0855 34.5639 54.6853C35.1635 54.333 35.8378 54.0237 36.4532 53.7303C37.1275 53.4209 37.8074 53.0152 38.519 52.7273C39.1129 52.4713 39.7657 52.1994 40.3438 51.8845C41.0237 51.4789 41.767 51.3087 42.3723 50.8601C42.4096 50.8816 42.4311 50.8442 42.4684 50.8656Z" fill="#BBB0DB"/>
<path d="M20.3403 28.1015C20.2079 27.7269 19.9523 27.4805 19.7769 27.1807C19.5325 26.7417 19.347 26.2868 19.1615 25.8318C18.9601 25.318 18.6999 24.8202 18.4986 24.3064C18.2339 23.5571 17.9103 22.8238 17.5868 22.0905C17.0562 20.9397 16.5845 19.7729 15.9148 18.6915C15.7394 18.3917 15.6229 18.0759 15.4102 17.7547C15.2349 17.4549 15.5935 17.2628 15.7915 17.1775C16.5562 16.9698 17.183 16.4839 17.9319 16.2174C18.4829 16.0363 19.0711 15.8766 19.4943 15.5722C19.8959 15.3053 20.3665 15.1775 20.7839 14.9694C21.1641 14.7399 21.6347 14.6122 22.0521 14.4041C23.085 13.9026 24.0648 13.3208 25.1508 12.8997C25.8409 12.6492 26.4993 12.2809 27.1736 11.9716C28.0673 11.5395 28.9611 11.1073 29.8548 10.6752C30.5132 10.307 31.2033 10.0565 31.9149 9.7686C32.3109 9.59795 32.6537 9.34698 33.0496 9.17633C33.5259 8.95228 34.0237 8.69083 34.5373 8.48823C34.7353 8.4029 34.9231 8.16243 35.1098 8.26967C35.4457 8.46269 35.7444 8.63426 35.9514 9.05179C36.3655 9.88684 36.6992 10.7752 37.1132 11.6103C37.4741 12.365 37.8135 13.1572 38.1529 13.9493C38.4391 14.6612 38.7626 15.3945 39.1292 16.0529C39.5805 16.9094 40.1281 17.7714 40.3012 18.7666C40.4165 19.4301 40.2876 19.6546 39.7095 19.9694C38.8745 20.3856 37.9706 20.6625 37.1301 21.175C36.6481 21.4953 36.0542 21.7513 35.5621 21.9164C34.8935 22.1295 34.2407 22.4015 33.6253 22.6949C33.0902 22.9349 32.5924 23.1964 32.0573 23.4364C31.4633 23.6924 30.8479 23.9858 30.2166 24.2203C29.703 24.4229 29.1679 24.6629 28.7233 25.0047C28.4608 25.2022 28.1452 25.3195 27.851 25.3994C27.0433 25.6818 26.395 26.2052 25.6405 26.5679C24.8056 26.9841 23.9865 27.4591 23.2262 27.9181C22.7873 28.1636 22.3268 28.4465 21.8879 28.692C21.2136 29.0014 20.8346 28.8832 20.5269 28.2088C20.3346 28.1978 20.3403 28.1015 20.3403 28.1015ZM35.5498 9.31872C35.1833 8.66027 34.9005 8.54755 34.4344 8.92674C33.9683 9.30593 33.449 9.6048 32.9354 9.8074C32.1434 10.1487 31.33 10.5274 30.5166 10.9061C29.6444 11.3008 28.7936 11.6581 27.9372 12.1117C27.5786 12.3038 27.1611 12.5118 26.7652 12.6825C26.3907 12.8157 25.9948 12.9864 25.6361 13.1785C25.1542 13.4988 24.6191 13.7388 24.084 13.9788C23.3509 14.3042 22.6766 14.6135 21.9435 14.9389C20.991 15.387 20.0384 15.835 19.0485 16.2617C18.4172 16.4962 17.7486 16.7093 17.1864 17.083C16.8651 17.2966 16.4431 17.2532 16.1218 17.4668C15.9023 17.5895 15.8752 17.7232 15.9815 17.8838C16.4216 18.9329 17.0381 19.934 17.537 20.9671C17.9827 21.9199 18.3696 22.8886 18.7938 23.8788C19.2396 24.8316 19.6638 25.8218 20.1095 26.7746C20.295 27.2295 20.6197 27.6151 20.8052 28.07C20.9534 28.5035 21.1559 28.6696 21.5361 28.4401C21.7555 28.3174 21.975 28.1946 22.216 28.0345C22.8212 27.5859 23.4797 27.2177 24.1381 26.8495C24.8553 26.4653 25.5941 26.0436 26.3113 25.6594C27.1677 25.2059 28.0456 24.7149 28.9179 24.3202C29.453 24.0802 30.0254 23.8616 30.5017 23.6376C31.7111 23.0882 32.9046 22.48 34.1298 21.9894C34.7826 21.7175 35.4195 21.3867 36.0723 21.1147C37.2228 20.5813 38.3519 20.0853 39.5024 19.5519C39.7004 19.4666 39.8984 19.3812 39.7977 19.1243C39.602 18.5143 39.4063 17.9042 39.1303 17.3475C38.8701 16.8496 38.5511 16.3678 38.3712 15.8166C38.0058 14.8104 37.4424 13.8896 37.0555 12.9208C36.8066 12.2304 36.4775 11.5934 36.1697 10.919C35.9525 10.3463 35.6765 9.78963 35.5498 9.31872Z" fill="#BBB0DB"/>
<path d="M50.7599 41.7934C50.0426 42.1776 49.3898 42.4496 48.7586 42.6841C47.9723 42.9291 47.2335 43.3507 46.4473 43.5958C45.8963 43.7769 45.3397 44.0544 44.911 44.455C44.6643 44.7114 44.2265 44.6092 43.9494 44.4002C43.3045 43.8805 43.3554 43.0139 42.8498 42.4248C42.7593 42.3231 42.6688 42.2213 42.6371 42.1036C42.5896 41.927 42.3554 41.6432 42.8419 41.5743C43.2107 41.5373 43.5161 41.2649 43.8001 41.0299C43.9607 40.9231 44.1055 40.7575 44.351 40.8488C44.3997 40.6777 44.592 40.6886 44.7311 40.6193C45.2504 40.3204 45.8014 40.1392 46.3365 39.8992C47.0107 39.5899 47.7755 39.3822 48.3649 38.8748C48.5686 38.6932 48.9215 38.5974 49.2157 38.5176C49.4136 38.4322 49.5901 38.3843 49.7723 38.2401C50.0936 38.0266 50.2214 38.1498 50.3753 38.487C50.4601 38.685 50.6038 38.8671 50.6886 39.0651C50.9861 39.5844 51.321 40.1252 51.442 40.6923C51.5518 41.4521 51.4341 41.484 50.7599 41.7934ZM43.8148 41.4365C43.0229 41.7778 43.0387 41.8367 43.4052 42.4951C43.5274 42.7146 43.6439 43.0304 43.7231 43.3247C43.929 44.0899 44.3238 44.267 45.0037 43.8613C45.5603 43.5839 46.0796 43.285 46.6521 43.0665C47.1657 42.8639 47.754 42.7042 48.1771 42.3998C48.7178 42.0635 49.3593 41.9841 49.8627 41.6264C50.0449 41.4822 50.382 41.3275 50.6761 41.2477C50.8526 41.1998 51.0936 41.0396 51.0087 40.8416C50.8707 40.5632 50.8504 40.2529 50.6909 40.012C50.4409 39.6693 50.2497 39.3106 50.1603 38.8612C50.1128 38.6846 49.985 38.5614 49.8085 38.6093C49.477 38.6677 49.1082 38.7046 48.9046 38.8862C48.3151 39.3937 47.5934 39.5264 46.9564 39.8572C46.7584 39.9426 46.5763 40.0868 46.341 40.1506C46.0842 40.2519 45.7901 40.3318 45.5332 40.4331C44.8748 40.8013 44.4031 41.2768 43.8148 41.4365Z" fill="#BBB0DB"/>
<path d="M29.3913 5.43226C29.0428 5.77951 28.5292 5.98211 28.1276 6.24904C27.485 6.67614 26.7949 6.92664 26.0991 7.27343C24.6488 7.98297 23.2041 8.59623 21.7696 9.36464C21.0523 9.74884 20.3724 10.1545 19.6925 10.5601C18.7128 11.1419 17.6584 11.6808 16.6787 12.2626C15.501 12.9297 14.3391 13.6557 13.1988 14.3442C12.899 14.5203 12.589 14.5413 12.3265 14.7389C12.1874 14.8083 11.9792 14.7384 11.8729 14.5778C11.8039 14.4386 12.0177 14.4122 12.098 14.3588C12.8956 13.9212 13.752 13.4676 14.5869 13.0515C14.8652 12.9128 15.0688 12.7312 15.3471 12.5925C16.8835 11.7333 18.4571 10.8955 19.9561 10.0149C20.8555 9.48646 21.7391 8.8992 22.6916 8.45112C23.5639 8.05643 24.3513 7.46369 25.314 7.17075C25.667 7.07493 25.9939 6.7651 26.3899 6.59445C27.0856 6.24766 27.8187 5.92232 28.5145 5.57554C28.8731 5.38344 29.2102 5.22875 29.5689 5.03665C29.708 4.96729 29.906 4.88196 29.975 5.02114C30.044 5.16031 29.846 5.24564 29.7442 5.33644C29.6266 5.36838 29.5621 5.48064 29.3913 5.43226Z" fill="#BBB0DB"/>
<path d="M26.2617 31.105C26.9088 30.9293 27.3964 30.5127 27.9903 30.2568C28.5254 30.0167 29.0289 29.659 29.5266 29.3976C30.2224 29.0508 30.9023 28.6451 31.5234 28.2554C32.0642 27.9191 32.7271 27.8023 33.2521 27.4072C34.061 26.777 35.0079 26.4252 35.9016 25.9931C36.3779 25.7691 36.8915 25.5665 37.3893 25.305C37.5873 25.2197 37.8542 25.2735 38.0579 25.0919C38.1382 25.0385 38.309 25.0869 38.3622 25.1672C38.4154 25.2475 38.2762 25.3169 38.1959 25.3703C37.5001 25.7171 36.7829 26.1013 36.0871 26.4481C35.1934 26.8802 34.2997 27.3123 33.4218 27.8033C32.6457 28.2034 31.9228 28.6839 31.184 29.1055C30.8039 29.3351 30.4079 29.5057 30.012 29.6764C29.0967 30.1459 28.1657 30.5566 27.2504 31.0261C26.9133 31.1808 26.6033 31.2018 26.2617 31.105Z" fill="#BBB0DB"/>
<path d="M48.0208 29.2723C47.7696 29.2773 47.738 29.1596 47.6316 28.9989C47.1916 27.9499 46.6927 26.9168 46.1938 25.8837C45.5784 24.5349 44.9041 23.202 44.2514 21.8317C44.0127 21.2964 43.7955 20.7238 43.5353 20.2259C43.1846 19.6263 43.0692 18.9629 42.6167 18.4541C42.5262 18.3523 42.5907 18.2401 42.559 18.1223C42.5058 18.042 42.3033 17.8759 42.4425 17.8066C42.6031 17.6998 42.8 17.9622 42.8158 18.021C43.2185 19.0486 43.7604 20.0069 44.2435 20.9811C44.7265 21.9553 45.0863 23.0578 45.6282 24.016C46.1169 24.894 46.4291 25.8198 46.8805 26.6763C47.2945 27.5114 47.6282 28.3998 48.0208 29.2723Z" fill="#BBB0DB"/>
<path d="M29.5469 32.6446C32.0618 31.5514 34.5292 30.2815 37.1131 29.3274C34.7464 30.8541 32.2688 31.9689 29.5469 32.6446Z" fill="#BBB0DB"/>
<path d="M37.8102 50.3299C34.8077 51.8398 31.7419 53.1142 28.6602 54.3298C31.6412 52.8573 34.6754 51.4651 37.8102 50.3299Z" fill="#BBB0DB"/>
<path d="M42.5568 48.3783C42.1167 48.9715 41.5658 49.1526 40.9831 49.2161C40.8281 49.2265 40.7048 49.3548 40.603 49.4456C40.5227 49.499 40.4265 49.4935 40.3734 49.4132C40.3202 49.3329 40.4005 49.2795 40.422 49.2421C40.4435 49.2046 40.4808 49.2261 40.5023 49.1887C41.1709 48.9756 41.723 48.4467 42.5568 48.3783Z" fill="#BBB0DB"/>
<path d="M31.7344 4.2906C32.0399 4.01819 32.446 4.00268 32.73 3.76768C32.8318 3.67688 32.9868 3.66638 33.0558 3.80556C33.1407 4.0036 32.9483 3.99264 32.868 4.04603C32.6112 4.14733 32.3544 4.24863 32.0976 4.34992C32.0173 4.40331 31.8408 4.45122 31.7344 4.2906Z" fill="#BBB0DB"/>
<path d="M28.2406 38.463C28.4317 38.8217 28.2654 39.0247 28.0618 39.2063C27.9385 39.3346 27.8536 39.1365 27.8378 39.0777C27.6998 38.7993 27.8502 38.5374 28.0912 38.3772C28.1342 38.3024 28.2677 38.3293 28.2406 38.463Z" fill="#BBB0DB"/>
<path d="M40.2597 46.412C40.116 46.23 39.9882 46.1068 39.8818 45.9461C39.8287 45.8658 39.7008 45.7426 39.7868 45.593C39.8513 45.4807 39.9848 45.5076 40.1183 45.5346C40.2303 45.5989 40.4011 45.6473 40.3898 45.8398C40.3785 46.0324 40.3886 46.1875 40.2597 46.412Z" fill="#BBB0DB"/>
<path d="M39.4754 34.4659C39.6518 34.418 39.8555 34.2364 39.903 34.413C39.972 34.5521 39.8215 34.814 39.6609 34.9208C39.5217 34.9902 39.3453 35.0381 39.2604 34.8401C39.1971 34.6046 39.3577 34.4978 39.4754 34.4659Z" fill="#BBB0DB"/>
<path d="M49.0864 31.4776C49.3579 31.7829 49.5547 32.0453 49.4948 32.409C49.3567 32.1306 48.9619 31.9536 49.0864 31.4776Z" fill="#BBB0DB"/>
<path d="M44.1785 26.3678C44.3278 26.4536 44.5315 26.272 44.5733 26.5449C44.6208 26.7215 44.4602 26.8283 44.3584 26.9191C44.278 26.9724 44.1717 26.8118 44.1559 26.753C44.0868 26.6138 44.1513 26.5015 44.1785 26.3678Z" fill="#BBB0DB"/>
<path d="M26.7804 42.9973C26.8981 42.9654 27.0101 43.0297 27.0044 43.126C27.0146 43.2812 27.0191 43.5326 26.8585 43.6394C26.7193 43.7087 26.7306 43.5161 26.6774 43.4358C26.5553 43.2164 26.7159 43.1096 26.7804 42.9973Z" fill="#BBB0DB"/>
<path d="M48.678 49.3065C48.652 49.0925 48.8658 49.066 48.9835 49.0341C49.7483 48.8265 50.3965 48.3031 51.2303 48.2347C51.547 47.7697 52.1342 47.9577 52.52 47.6319C52.7021 47.4877 52.9318 47.5201 53.1456 47.4936C53.1184 47.6273 53.0008 47.6593 52.9205 47.7127C52.1874 48.038 51.4169 48.3419 50.6465 48.6458C50.1329 48.8484 49.6193 49.051 49.0842 49.291C48.9077 49.3389 48.7685 49.4083 48.678 49.3065Z" fill="#BBB0DB"/>
<path d="M29.4335 57.5618C29.4493 57.6207 29.4867 57.6421 29.5025 57.701C29.0635 57.9465 28.5341 58.0902 28.1268 58.4534C28.025 58.5442 27.8542 58.4958 27.6992 58.5063C28.24 58.17 28.7219 57.8497 29.2627 57.5134C29.3215 57.4975 29.3962 57.5404 29.4335 57.5618Z" fill="#BBB0DB"/>
<path d="M39.6693 53.4885C39.0753 53.7444 38.444 53.979 37.8286 54.2724C37.8128 54.2135 37.8128 54.2135 37.7969 54.1546C38.3909 53.8987 39.0063 53.6053 39.6376 53.3707C39.6161 53.4081 39.6534 53.4296 39.6693 53.4885Z" fill="#BBB0DB"/>
<path d="M48.6773 49.3065C48.6558 49.3439 48.6932 49.3654 48.6773 49.3065C48.2169 49.5894 47.6818 49.8294 47.1523 49.9731C47.5539 49.7062 48.0461 49.541 48.4477 49.2741C48.528 49.2207 48.6185 49.3225 48.6773 49.3065Z" fill="#BBB0DB"/>
<path d="M45.625 50.6398C45.952 50.33 46.3479 50.1593 46.7971 50.069C46.4859 50.4377 45.9678 50.3888 45.625 50.6398Z" fill="#BBB0DB"/>
<path d="M21.1765 18.7787C21.9152 18.3571 22.5737 17.9889 23.2694 17.6421C23.6869 17.434 24.1258 17.1885 24.5806 17.0019C25.0354 16.8153 25.4585 16.5109 25.9348 16.2869C26.7052 15.983 27.3908 15.481 28.1612 15.1771C29.4452 14.6707 30.6976 14.0464 31.9975 13.5988C32.4896 13.4336 32.9071 13.2256 33.3618 13.0389C33.5383 12.991 33.613 13.0339 33.7193 13.1946C33.8788 13.4355 33.6334 13.3442 33.5745 13.3602C33.1571 13.5683 32.7555 13.8352 32.269 13.9041C32.0552 13.9306 31.761 14.0104 31.5574 14.192C31.2519 14.4644 30.7553 14.3782 30.4125 14.6291C29.8503 15.0029 29.2031 15.1785 28.5877 15.4719C28.1488 15.7174 27.6883 16.0003 27.1645 16.0478C26.833 16.1062 26.6237 16.3841 26.3081 16.5013C25.3182 16.928 24.3442 17.4135 23.3701 17.899C22.8135 18.1764 22.2196 18.4324 21.6844 18.6724C21.4276 18.7737 21.155 18.8161 20.9514 18.9977C20.871 19.0511 20.716 19.0616 20.7002 19.0027C20.6312 18.8636 20.7488 18.8316 20.8665 18.7997C20.9785 18.864 21.1177 18.7947 21.1765 18.7787Z" fill="#BBB0DB"/>
<path d="M22.7109 20.9526C25.8911 19.0471 29.1289 17.4733 32.5794 16.2208C32.3429 16.6324 31.9526 16.7067 31.6528 16.8829C30.9571 17.2297 30.2986 17.5979 29.6244 17.9073C28.9931 18.1418 28.3935 18.4941 27.7996 18.75C27.3233 18.9741 26.7667 19.2515 26.2847 19.5718C25.8831 19.8388 25.348 20.0788 24.7971 20.2599C24.3853 20.3717 24.021 20.6601 23.6035 20.8682C23.3309 20.9106 23.1058 21.1296 22.7109 20.9526Z" fill="#BBB0DB"/>
<path d="M21.9678 26.0495C22.0311 26.285 22.1907 26.5259 21.8909 26.702C21.6714 26.8248 21.4689 26.6587 21.4214 26.4821C21.3365 26.2841 21.5028 26.081 21.6635 25.9742C21.7811 25.9423 21.8988 25.9104 21.9678 26.0495Z" fill="#BBB0DB"/>
<path d="M20.6602 23.3089C20.5697 23.2072 20.3774 23.1962 20.3299 23.0196C20.2665 22.7842 20.262 22.5327 20.503 22.3726C20.6048 22.2818 20.7485 22.4638 20.7428 22.5601C20.71 22.7901 21.003 23.058 20.6602 23.3089Z" fill="#BBB0DB"/>
<path d="M35.6572 17.6906C35.4966 17.7974 35.4219 17.7545 35.3529 17.6153C35.2307 17.3958 35.3857 17.3853 35.5249 17.3159C35.707 17.1718 35.7545 17.3483 35.845 17.4501C35.9887 17.6322 35.6256 17.5729 35.6572 17.6906Z" fill="#BBB0DB"/>
</g>
</g>
</g>
<defs>
<clipPath id="clip0_6513_844">
<rect width="58" height="62" fill="white" transform="translate(0 0.5)"/>
</clipPath>
<clipPath id="clip1_6513_844">
<rect width="58" height="62" fill="white" transform="translate(0 0.5)"/>
</clipPath>
<clipPath id="clip2_6513_844">
<rect width="58" height="62" fill="white" transform="translate(0 0.5)"/>
</clipPath>
</defs>
</svg>
