<svg width="68" height="36" viewBox="0 0 68 36" fill="none" xmlns="http://www.w3.org/2000/svg">
<g clip-path="url(#clip0_6513_824)">
<g clip-path="url(#clip1_6513_824)">
<g clip-path="url(#clip2_6513_824)">
<path d="M47.0757 31.1402C46.8207 31.5244 46.6932 31.9085 46.1195 31.9726C45.6732 32.0366 45.227 32.3568 44.9082 32.7409C44.5895 33.1251 44.0795 33.1251 43.6332 33.3812C42.8045 33.9575 41.7845 34.4697 40.892 34.918C40.7007 35.046 40.382 34.918 40.127 34.982C39.8082 35.046 40.4457 35.4302 39.9995 35.3662C39.7445 35.3662 39.6807 35.1741 39.617 34.982C39.5532 34.982 39.4895 34.982 39.4257 35.046C38.4057 35.5583 37.322 35.3021 36.302 35.4302C35.537 35.5583 34.7082 35.4942 33.9433 35.3662C33.4333 35.3021 32.987 35.1741 32.4133 35.1741C32.0308 35.1741 31.5208 34.7259 31.0108 34.5338C30.947 34.5338 30.8833 34.3417 30.7558 34.4057C29.2895 34.982 28.397 33.8294 27.3133 33.1891C26.867 32.869 25.9745 32.5488 25.4008 32.5488C25.337 32.5488 25.2733 32.5488 25.2733 32.5488C24.7633 31.5244 23.6158 31.1402 22.8508 30.3078C22.1495 29.6035 21.8308 28.579 20.9383 28.1308C20.1733 27.7466 20.237 26.8502 19.5358 26.466C19.472 26.402 19.1533 25.8257 19.0895 25.3775C19.0258 24.6732 18.6433 24.0329 18.2608 23.4566C17.942 22.8803 18.0058 22.304 17.8145 21.7278C17.5595 20.8954 18.2608 19.9349 17.432 19.1666C17.1133 18.8464 16.667 18.9105 16.3483 18.4622C16.2845 18.3342 15.9658 18.3342 15.9658 18.0781C15.9658 17.95 15.7108 17.886 15.647 17.95C15.2008 18.6543 15.137 17.886 14.882 17.7579C14.2445 17.4378 13.7983 16.7975 13.0333 16.7334C12.9058 16.7334 12.7783 16.7334 12.7783 16.6694C12.7783 15.837 11.6945 16.0931 11.5033 15.4528C11.4395 15.3248 11.312 15.3248 11.1845 15.2607C10.3558 15.1327 9.78204 14.4284 9.0808 14.0442C8.1883 13.596 7.4233 12.9557 6.59455 12.5075C5.6383 11.9952 4.80955 11.1628 3.78956 10.6506C3.59831 10.5866 3.59831 10.2664 3.40706 10.1383C3.27956 10.0103 3.21581 9.8182 3.08831 10.1383C3.02456 10.2664 2.89706 10.2024 2.83331 10.1383C2.38706 9.30596 2.38706 9.30596 1.49456 8.92178C1.11206 8.72969 1.11206 8.21745 0.665811 8.15342C0.0920622 8.02536 0.155812 7.38506 0.0920621 7.00088C0.0283122 6.23252 -0.226688 5.46416 0.538311 4.88789C0.665811 4.82386 0.793311 4.63177 0.92081 4.6958C1.23956 4.6958 1.55831 4.95192 1.62206 4.37565C2.06831 4.6958 2.45081 3.99147 2.96081 4.24759C3.15206 4.37565 3.53456 4.43968 3.59831 3.99147C3.66206 3.73535 3.85331 3.79938 3.9808 3.86341C4.7458 4.11953 5.44705 3.86341 6.21205 3.73535C6.84955 3.60729 7.4233 4.0555 8.0608 4.18356C8.63455 4.24759 9.27205 4.56774 9.84579 4.31162C10.1008 4.18356 10.2283 4.43968 10.4833 4.43968C11.567 4.43968 12.587 5.3361 13.7983 4.6958C13.862 4.6958 14.4358 5.14401 14.8183 5.20804C15.9658 5.46416 16.9858 5.91237 18.197 5.9764C19.0895 6.04043 20.0458 6.29655 20.8108 6.87282C21.1933 7.19297 21.7033 7.51312 21.9583 6.68073C22.022 6.42461 22.277 6.48864 22.4045 6.36058C22.6595 6.16849 22.9783 6.10446 23.1695 5.78431C23.7433 4.88789 24.6358 4.37565 25.592 3.86341C26.102 3.67132 26.4208 3.35117 26.8033 3.09505C27.2495 2.7749 27.6958 2.00654 28.4608 2.32669C28.5883 2.39072 28.907 2.26266 28.9708 2.19863C29.162 1.36624 29.927 1.68639 30.437 1.4943C31.0108 1.17415 31.6483 1.17415 32.2858 1.04609C32.6683 0.982059 33.0508 0.918029 33.4333 0.918029C33.9433 0.982059 34.4533 0.789969 34.9632 0.725939C35.537 0.661909 36.1745 0.341759 36.557 0.597878C37.5132 1.17415 38.6607 0.853999 39.5532 1.4943C39.8082 1.62236 40.0632 1.68639 40.3182 1.68639C41.0832 1.75042 41.7845 2.19863 42.422 2.64684C43.2507 3.15908 44.0795 3.60729 44.9082 4.0555C45.6732 4.43968 46.247 5.01595 46.8207 5.59222C47.4582 6.23252 48.032 6.87282 48.6057 7.51312C49.3707 8.28148 50.0082 9.1779 50.582 10.0103C51.2195 10.9067 51.5382 11.9952 51.857 13.0197C52.1757 14.2363 52.7495 15.4528 52.6857 16.7975C52.6857 17.3097 52.877 17.7579 52.9407 18.2702C53.0045 18.8464 52.877 19.4227 52.8132 20.063C52.6857 20.7673 53.0045 21.2796 53.7695 21.4717C54.152 21.5997 54.407 21.7918 54.7257 21.9839C56.0007 22.8163 57.3395 23.4566 58.5507 24.353C59.762 25.2494 60.9732 26.0178 62.2482 26.7861C63.5232 27.6185 64.7344 28.515 65.8182 29.5394C66.7107 30.3718 67.7944 31.0762 67.9857 32.4848C68.0494 33.2532 67.9219 33.8294 67.1569 33.9575C66.3282 34.0856 65.4994 34.2777 64.6069 34.2136C62.8857 34.2136 61.3557 33.4453 59.6982 33.3172C59.3157 33.3172 58.8057 32.933 58.3595 33.3812C58.1682 33.5733 57.7857 33.0611 57.467 32.933C57.1482 32.805 56.957 32.6129 56.5745 32.7409C55.8095 32.9971 55.172 32.805 54.662 32.2927C54.5345 32.1647 54.4707 32.3568 54.407 32.3568C54.2795 32.4208 53.9607 32.4208 53.897 32.3568C53.5782 31.5244 52.5582 32.0366 52.112 31.4603C51.9845 31.2682 51.4107 31.2682 51.2195 31.5884C51.1557 31.7165 51.0282 31.7805 51.0282 31.7165C50.582 31.0121 49.7532 31.2682 49.1795 30.756C48.6695 30.3078 47.3945 30.5639 47.0757 31.1402ZM24.572 11.4189C23.7433 12.5715 24.1895 13.596 24.2533 14.6204C24.2533 15.1967 24.6995 15.6449 25.0183 16.0931C25.4645 16.7975 25.9108 17.3097 26.5483 17.886C27.887 18.9105 29.417 18.9745 30.7558 18.8464C31.9033 18.7824 33.1783 18.6543 34.3257 18.3342C36.1745 17.8219 38.087 17.3737 39.9995 16.9896C40.382 16.9255 40.8282 17.0536 41.0195 16.9255C41.8482 16.2212 42.8682 16.2852 43.7607 16.2212C44.7807 16.1572 45.8007 16.2212 46.8845 16.3493C48.287 16.5413 49.6257 16.8615 50.7732 17.6299C51.092 17.8219 51.1557 17.5658 51.1557 17.3737C51.2195 16.0931 50.7732 14.8766 50.4545 13.66C50.3907 13.4679 50.1995 13.2758 50.0082 13.2118C49.052 12.8916 48.032 12.6355 47.012 12.3794C45.8007 12.0592 44.5895 12.5075 43.442 12.9557C42.5495 13.3398 41.5932 13.66 40.637 13.9161C38.9795 14.3643 37.322 14.4924 35.6007 14.4284C34.517 14.3643 33.242 14.3643 32.6045 13.4039C31.7758 12.1873 31.6483 10.6506 32.2858 9.24193C32.732 8.21745 33.497 7.44909 34.3895 6.80879C35.3457 6.16849 36.302 5.59222 37.2582 5.01595C37.832 4.63177 38.4695 4.37565 39.107 4.0555C39.4257 3.86341 39.617 3.60729 39.6807 3.28714C39.7445 3.09505 39.617 3.03102 39.4257 3.03102C38.7245 3.03102 38.1507 2.39072 37.4495 2.45475C36.812 2.51878 36.2382 2.58281 35.6007 2.51878C34.7082 2.45475 33.752 2.58281 32.8595 2.51878C32.5408 2.51878 32.3495 2.64684 32.222 2.96699C31.9033 4.0555 31.457 5.07998 30.437 5.72028C29.7995 6.10446 29.2895 6.6167 28.7158 7.06491C28.3333 7.38506 27.5683 7.257 27.5683 7.96133C27.122 7.8973 27.1858 8.5376 26.9308 8.60163C26.4845 8.66566 26.2295 8.92178 26.0383 9.30596C25.5283 10.0103 24.572 10.5866 24.572 11.4189ZM31.6483 3.15908C31.1383 3.22311 30.8195 3.35117 30.5645 3.4152C29.9908 3.47923 29.2258 3.67132 28.8433 3.99147C28.142 4.56774 27.1858 4.82386 26.4845 5.46416C25.7833 6.10446 25.0183 6.68073 24.2533 7.19297C23.4245 7.70521 23.1058 8.72969 22.2133 9.24193C22.0858 9.30596 22.022 9.49805 22.022 9.62611C22.0858 10.0103 21.8945 10.2024 21.6395 10.4585C21.257 10.8427 20.9383 11.3549 20.747 11.8672C20.6195 12.1873 20.3008 12.5075 20.492 13.0837C20.6195 13.4039 20.3645 13.8521 20.0458 14.1722C19.2808 15.0687 19.6633 16.1572 19.5358 17.1176C19.472 17.5658 19.727 17.95 20.492 17.886C21.3208 17.7579 21.8945 18.6543 22.5958 19.0385C23.7433 19.6148 24.827 20.2551 26.0383 20.6393C26.9308 20.9594 27.887 21.2796 28.7795 21.5997C28.9708 21.6637 29.2258 21.7278 29.2258 21.7918C29.3533 22.3681 29.8633 22.304 30.2458 22.4961C30.5008 22.6242 30.7558 22.6242 31.0108 22.6882C31.3933 22.8163 31.712 22.9443 32.0945 23.0084C32.6045 23.1364 32.987 23.8408 33.6883 23.4566C33.8158 23.3926 34.007 23.2645 34.007 23.5206C34.007 24.0969 34.262 23.9048 34.6445 23.8408C34.8995 23.7767 35.282 23.7127 35.537 23.9688C35.792 24.2249 36.1107 24.0969 36.4932 24.0329C37.1945 23.9048 37.6407 23.2645 38.342 23.2005C38.9795 23.1364 39.5532 22.8803 40.127 22.7523C41.147 22.4321 42.2307 22.4321 43.2507 22.112C43.5057 22.0479 43.8245 21.8558 44.1432 21.9839C44.8445 22.24 45.5457 22.304 46.247 22.304C47.4582 22.3681 48.542 22.7523 49.6257 23.3285C49.817 23.3926 50.2632 23.3926 50.2632 23.2645C50.7095 22.3681 51.2832 21.5357 51.2832 20.4472C51.347 18.5903 51.347 18.5903 49.6257 17.8219C47.267 16.7975 44.7807 16.7334 42.3582 17.1176C40.4457 17.4378 38.597 18.014 36.6845 18.3982C36.2382 18.4622 35.8557 18.7824 35.4095 18.7824C34.5807 18.7184 33.8158 18.9745 33.0508 19.1666C31.7758 19.4867 30.5008 19.4227 29.2258 19.4227C28.397 19.4227 27.4408 19.2306 26.5483 18.7184C24.8908 17.6939 23.807 16.2852 23.2333 14.4924C22.6595 12.6355 23.552 10.9707 24.4445 9.43402C24.9545 8.5376 25.7833 7.96133 26.612 7.32103C27.377 6.74476 28.2695 6.29655 29.0345 5.65625C29.927 4.82386 30.7558 4.18356 31.6483 3.15908ZM21.002 8.40954C20.4283 7.70521 19.5358 8.08939 18.962 7.70521C18.8983 7.64118 18.707 7.76924 18.5795 7.76924C18.5158 7.76924 18.5158 8.02536 18.3883 7.8973C18.0695 7.38506 17.4958 7.38506 17.0495 7.32103C15.7745 7.06491 14.5633 6.55267 13.2883 6.68073C13.1608 6.68073 13.097 6.74476 13.0333 6.6167C12.5233 6.16849 11.822 6.10446 11.2483 6.04043C9.90954 5.84834 8.5708 5.78431 7.23205 5.59222C6.84955 5.52819 6.6583 5.91237 6.2758 5.78431C4.80955 5.20804 3.53456 5.84834 2.19581 6.16849C1.87706 6.23252 1.81331 6.6167 1.94081 6.80879C2.19581 7.19297 2.51456 7.64118 2.83331 7.70521C3.72581 7.8973 4.1083 8.79372 5.06455 8.98581C5.7658 9.11387 6.1483 10.2664 7.1683 10.1383C7.23205 10.1383 7.2958 10.2664 7.2958 10.3304C7.2958 11.0348 7.99705 11.3549 8.4433 11.483C9.14455 11.7391 9.65454 12.3154 10.4195 12.4434C11.057 12.5715 11.4395 13.0837 11.9495 13.4679C12.842 14.0442 13.9895 14.3003 14.8183 15.0687C15.137 15.3248 15.8383 15.0046 15.8383 15.773C16.412 15.4528 16.5395 16.0291 16.8583 16.2852C17.3683 16.6694 17.7508 16.5413 17.942 15.901C18.1333 15.3888 17.942 14.7485 18.3883 14.3003C18.5158 14.1722 18.5158 13.9161 18.452 13.7881C18.0058 12.3154 19.1533 11.2909 19.5995 10.1383C19.727 9.8182 20.1095 9.36999 20.3008 8.98581C20.4283 8.60163 20.6195 8.40954 21.002 8.40954ZM50.1357 12.2513C49.7532 11.611 49.307 11.1628 49.1157 10.5866C48.7332 9.36999 47.8407 8.60163 47.0757 7.76924C46.4382 7.06491 45.482 6.6167 44.7807 5.91237C44.3982 5.59222 44.0157 5.52819 43.5695 5.65625C42.8045 5.84834 42.1032 6.23252 41.5295 6.68073C40.9557 7.06491 40.3182 7.51312 40.127 8.28148C40.0632 8.60163 40.127 9.04984 40.3182 9.04984C40.7007 9.11387 40.8282 9.62611 41.2745 9.43402C41.5932 9.36999 41.912 9.24193 42.2945 9.30596C43.2507 9.36999 44.207 9.43402 45.0995 9.04984C45.5457 8.85775 45.8007 8.98581 46.1195 8.98581C46.247 8.98581 46.3107 9.04984 46.3107 9.1779C46.3107 9.36999 46.1195 9.30596 46.0557 9.36999C45.227 10.0103 44.207 9.69014 43.3782 10.0103C42.8045 10.2664 42.167 10.2024 41.4657 10.2024C40.8282 10.1384 40.1907 10.2024 39.6807 9.75417C39.0432 9.24193 39.1707 8.5376 39.362 7.96133C39.6807 7.257 39.9357 6.42461 41.0832 6.23252C41.5932 6.16849 42.1032 5.46416 42.7407 5.20804C42.8045 5.20804 43.1232 5.20804 43.0595 4.95192C42.9957 4.6958 42.8045 4.56774 42.6132 4.63177C41.9757 4.75983 41.7207 3.86341 41.0832 4.18356L40.9557 4.0555C40.5732 3.60729 40.3182 3.60729 39.9995 4.11953C39.872 4.37565 39.6807 4.63177 39.4257 4.75983C38.342 5.3361 37.322 5.9764 36.2382 6.55267C35.2182 7.06491 34.4533 7.8973 33.5607 8.60163C32.8595 9.1779 32.7958 10.0743 32.6683 10.8427C32.5408 11.547 32.6045 12.3154 33.1783 12.9557C33.6245 13.4679 34.3257 13.7881 34.8357 13.7881C36.2382 13.7881 37.6407 14.0442 39.0432 13.5319C39.2982 13.4039 39.2982 13.8521 39.617 13.66C40.5095 13.0837 41.657 13.0197 42.6132 12.6355C43.2507 12.3794 43.8882 12.2513 44.5257 12.0592C45.482 11.8031 46.4382 11.547 47.4582 11.7391C48.4145 11.8031 49.2432 11.9952 50.1357 12.2513ZM49.4345 28.2588C49.307 28.4509 49.1795 28.579 49.307 28.7711C49.3707 28.8991 49.562 28.8991 49.7532 28.8351C50.0082 28.7711 50.2632 28.7711 50.3907 28.8991C51.092 29.6035 52.112 28.8991 52.8132 29.6035C53.3232 29.1553 53.5145 29.6675 53.7695 29.9876C53.897 30.1797 54.0245 30.1157 54.2157 30.0517C54.407 29.9876 54.7257 29.9236 54.8532 29.9876C55.5545 30.4999 56.702 29.7956 57.2757 30.82C57.2757 30.82 57.4032 30.756 57.467 30.82C57.8495 31.0121 58.2957 30.692 58.6782 31.0762C58.8057 31.2042 58.997 31.5244 59.252 31.3963C59.5707 31.2042 59.9532 31.2682 60.0807 31.3323C60.7182 31.5884 61.292 31.7165 61.9932 31.5884C62.1844 31.5244 62.8219 31.2682 62.9494 31.9085C63.3957 31.7805 63.6507 32.3568 64.0332 32.2287C64.6069 32.0366 65.1169 32.1647 65.6907 32.2287C65.8819 32.2287 66.0732 32.4848 66.1369 32.1006C66.2007 31.8445 66.2007 31.7165 65.9457 31.5884C64.9257 30.8841 63.9694 30.1157 62.9494 29.4114C62.0569 28.8351 61.1007 28.3229 60.3357 27.4905C59.3157 26.402 58.1682 25.5055 56.702 25.0573C56.6382 25.0573 56.5107 25.0573 56.5107 24.9933C55.937 24.0969 54.8532 23.8408 54.152 23.2005C53.9607 23.0084 53.7057 22.8163 53.5145 22.8803C53.1957 22.9443 53.0682 22.8803 52.9407 22.6242C52.8132 22.4321 52.622 22.176 52.367 22.304C52.112 22.4321 52.0482 22.6882 52.112 22.9443C52.112 23.1364 52.3032 23.3926 52.112 23.5846C51.4745 24.0969 52.0482 25.0573 51.347 25.5055C51.347 25.5055 51.347 25.5696 51.347 25.6336C51.347 25.8897 51.4107 26.0818 51.0282 26.1458C50.7095 26.2099 50.7095 26.466 50.7732 26.6581C50.837 26.8502 50.837 26.9782 50.6457 27.0423C50.1357 27.2344 49.8807 27.8747 49.4345 28.2588ZM41.7207 31.7165C41.8482 32.1006 42.167 32.1647 42.3582 32.0366C43.1232 31.4603 44.0795 31.1402 44.717 30.3718C44.8445 30.2438 44.9082 29.9236 44.7807 29.9236C44.3982 30.0517 44.2707 29.6035 43.952 29.6035C43.3145 29.5394 42.8045 28.707 42.0395 29.1553C41.657 28.643 41.147 28.643 40.5732 28.707C40.5095 28.707 40.4457 28.643 40.382 28.579C40.127 28.1948 39.617 28.0027 39.1707 28.0667C39.0432 28.0667 38.852 28.1948 38.7882 28.0027C38.342 27.1703 37.1945 27.6185 36.7482 26.8502H36.6207C35.7282 27.1703 35.0907 26.7861 34.4533 26.402C34.0708 26.2099 33.8158 26.2099 33.497 26.466C33.0508 26.8502 32.4133 27.2344 31.967 27.2984C31.0108 27.4264 30.3733 28.1948 29.4808 28.3869C28.907 28.515 28.2695 28.8351 27.6958 28.8351C26.7395 28.8351 25.7195 28.7711 24.7633 28.8351C24.6995 28.8351 24.6358 28.579 24.5083 28.7711C24.3808 28.8991 24.5083 29.0272 24.6358 29.0912C25.1458 29.4114 25.337 29.9876 25.9108 30.2438C26.5483 30.5639 27.1858 30.8841 27.7595 31.2682C28.2058 31.5884 28.4608 31.5884 28.8433 31.2682C29.672 30.692 30.6283 30.4359 31.5845 30.2438C33.0508 29.9236 34.517 29.6035 35.9832 29.9876C37.2582 30.3078 38.7245 30.0517 39.872 30.8841C39.9995 30.9481 39.9357 31.2682 40.3182 31.2042C40.8282 31.0121 41.2107 31.5244 41.7207 31.7165ZM22.4683 27.2984C22.4683 27.2984 22.5958 27.3624 22.6595 27.3624C23.807 27.6826 24.8908 28.1308 26.2295 28.0027C27.9508 27.8747 29.417 27.2984 30.8833 26.5941C31.202 26.466 31.3933 26.2099 31.712 26.0818C31.8395 26.0178 32.0945 26.1458 32.0308 25.7617C32.0308 25.4415 31.8395 25.3775 31.6483 25.3135C30.5645 25.0573 29.672 24.4811 28.7158 24.0329C28.5245 23.9688 28.397 23.9688 28.3333 24.0969C28.0145 24.417 27.8233 24.1609 27.5683 24.0329C26.9945 23.7127 26.5483 22.8163 25.6558 23.3285C25.5283 23.3926 25.4645 23.2005 25.4645 23.0724C25.2095 22.6242 24.572 22.5602 24.4445 22.0479C24.3808 21.8558 24.2533 22.0479 24.1258 22.0479C23.807 22.0479 23.1695 22.0479 23.1695 21.9199C23.042 21.2796 22.4683 21.2796 22.022 21.1515C21.6395 21.0234 21.1933 21.1515 20.8745 20.7033C20.8108 20.5752 20.3008 20.7673 20.1733 20.3191C20.1733 20.2551 19.727 20.3831 19.7908 20.5112C19.982 21.0234 19.727 21.5357 19.8545 22.0479C20.0458 22.8803 20.3008 23.7127 20.747 24.4811C21.1933 25.5055 21.767 26.402 22.4683 27.2984ZM48.1595 26.9782C48.6057 26.6581 48.6057 26.0818 48.9245 25.6976C49.307 25.2494 48.9882 24.417 49.7532 24.0969C49.9445 24.0329 49.7532 23.8408 49.6257 23.7767C49.2432 23.5206 48.8607 23.5846 48.4782 23.5206C47.4582 23.4566 46.4382 23.2005 45.4182 23.1364C44.5895 23.0724 43.8882 23.3285 43.0595 23.2645C42.6132 23.2005 42.1032 23.2645 41.7207 23.3926C40.3182 23.8408 38.9157 24.353 37.4495 24.6732C37.322 24.7372 37.067 24.7372 37.067 24.9933C37.067 25.2494 37.322 25.1854 37.5132 25.2494C38.342 25.4415 39.2982 25.1854 40.0632 25.8257C40.5732 26.2099 41.402 26.0178 41.9757 26.5941C42.2307 26.8502 42.6132 27.1703 42.9957 26.5941C43.1232 26.402 43.2507 26.5941 43.3145 26.7221C43.442 26.8502 43.442 27.0423 43.697 27.0423C44.5257 27.0423 45.1632 27.6826 46.0557 27.8106C47.267 28.0027 47.267 28.1948 48.032 27.2984C48.0957 27.0423 48.1595 26.9782 48.1595 26.9782ZM41.2107 32.4848C40.7645 32.2927 40.5732 32.1006 40.2545 32.0366C39.9357 31.9085 39.4895 32.0366 39.362 31.9085C38.9157 31.2042 38.087 31.2682 37.4495 31.0121C36.8757 30.756 36.047 30.756 35.3457 30.692C34.7083 30.6279 34.007 30.692 33.3695 30.692C32.1583 30.756 30.947 30.8841 29.7995 31.3323C29.6083 31.3963 29.417 31.4603 29.417 31.7165C29.417 31.9726 29.5445 32.1647 29.7358 32.1647C30.3095 32.1647 30.692 32.6769 31.202 32.805C31.6483 32.869 32.1583 32.2927 32.5408 32.869C33.1783 32.3568 33.0508 33.0611 33.1783 33.3172C33.4333 33.3812 33.3695 32.869 33.6883 32.9971C34.4533 33.3812 35.3457 33.1891 36.1107 33.3172C37.9595 33.5093 39.4895 33.1251 41.2107 32.4848Z" fill="#BBB0DB"/>
<path d="M33.8168 16.0291C34.1355 16.2212 34.1355 16.3493 33.9443 16.6694C33.6255 17.1816 33.243 16.8615 32.9243 16.9255C32.9243 16.6694 32.8605 16.4133 33.0518 16.2212C33.243 15.9651 33.4343 15.5809 33.8168 16.0291Z" fill="#BBB0DB"/>
<path d="M28.3983 15.2607C28.2071 15.1967 28.0158 15.0046 28.3346 14.8125C28.7171 14.5564 29.0996 14.4284 29.5458 14.6204C29.7371 14.6845 29.6096 14.9406 29.4821 14.9406C29.0996 15.0687 28.9721 15.837 28.3983 15.2607Z" fill="#BBB0DB"/>
<path d="M28.397 10.9707C28.2058 10.9067 27.887 10.8427 28.2058 10.4585C28.5245 10.0743 28.7158 10.4585 28.9708 10.5225C29.162 10.5866 29.2895 10.7146 29.0983 10.9707C28.7795 11.3549 28.5883 11.3549 28.397 10.9707Z" fill="#BBB0DB"/>
<path d="M37.1935 10.2664C36.9385 10.7146 37.6397 10.6506 37.4485 11.0348C37.321 11.2909 37.0022 11.2269 36.7472 11.0348C36.4922 10.9067 36.4285 10.6506 36.556 10.4585C36.6197 10.2024 36.8747 10.3304 37.1935 10.2664Z" fill="#BBB0DB"/>
</g>
</g>
</g>
<defs>
<clipPath id="clip0_6513_824">
<rect width="68" height="35" fill="white" transform="translate(0 0.5)"/>
</clipPath>
<clipPath id="clip1_6513_824">
<rect width="68" height="35" fill="white" transform="translate(0 0.5)"/>
</clipPath>
<clipPath id="clip2_6513_824">
<rect width="68" height="35" fill="white" transform="translate(0 0.5)"/>
</clipPath>
</defs>
</svg>
