<svg width="45" height="45" viewBox="0 0 45 45" fill="none" xmlns="http://www.w3.org/2000/svg">
<rect x="0.21875" y="0.5" width="44" height="44" rx="22" fill="#5751E1"/>
<g clip-path="url(#clip0_6513_804)">
<path d="M34.9405 32.3533L30.415 32.1933C31.1692 32.16 31.7663 32.1233 32.2063 32.0833C32.6463 32.0433 32.8663 32.0011 32.8663 31.9567C32.8663 31.8922 32.3949 31.8322 31.4521 31.7767C30.5092 31.7211 29.2522 31.6767 27.6808 31.6433C26.1095 31.61 24.3967 31.5933 22.5425 31.5933C20.6883 31.5933 18.9755 31.61 17.4042 31.6433C15.8329 31.6767 14.5758 31.7211 13.633 31.7767C12.6902 31.8322 12.2188 31.8928 12.2188 31.9583C12.2188 32.0239 12.6902 32.0845 13.633 32.14C14.5758 32.1956 15.8329 32.24 17.4042 32.2733C18.9755 32.3067 20.704 32.3233 22.5897 32.3233C23.7839 32.3233 24.9467 32.3156 26.078 32.3C27.2094 32.2845 28.2465 32.2633 29.1893 32.2367L33.7148 32.3967C33.9034 32.4033 34.1076 32.4067 34.3276 32.4067C34.5476 32.4067 34.7519 32.4033 34.9405 32.3967C35.129 32.39 35.2233 32.3828 35.2233 32.375C35.2233 32.3672 35.129 32.36 34.9405 32.3533ZM22.5897 32.26C21.0183 32.26 19.5727 32.2467 18.2527 32.22C16.9328 32.1933 15.8957 32.1567 15.1415 32.11C14.3872 32.0633 14.0101 32.0128 14.0101 31.9583C14.0101 31.9039 14.3872 31.8533 15.1415 31.8067C15.8957 31.76 16.9328 31.7233 18.2527 31.6967C19.5727 31.67 21.0026 31.6567 22.5425 31.6567C24.0824 31.6567 25.5124 31.67 26.8323 31.6967C28.1522 31.7233 29.1893 31.76 29.9436 31.8067C30.6978 31.8533 31.0749 31.9039 31.0749 31.9583C31.0749 32.0128 30.6978 32.0633 29.9436 32.11C29.1893 32.1567 28.1522 32.1933 26.8323 32.22C25.5124 32.2467 24.0981 32.26 22.5897 32.26Z" fill="white"/>
</g>
<defs>
<clipPath id="clip0_6513_804">
<rect width="28.2843" height="1" fill="white" transform="matrix(1 0 0 -1 12.2188 32.5)"/>
</clipPath>
</defs>
</svg>
