<svg width="70" height="71" viewBox="0 0 70 71" fill="none" xmlns="http://www.w3.org/2000/svg">
<rect y="0.170044" width="70" height="70" rx="35" fill="#5751E1"/>
<g clip-path="url(#clip0_6513_898)">
<mask id="mask0_6513_898" style="mask-type:luminance" maskUnits="userSpaceOnUse" x="20" y="20" width="30" height="31">
<path d="M50 20.17H20V50.17H50V20.17Z" fill="white"/>
</mask>
<g mask="url(#mask0_6513_898)">
<path d="M43.7221 38.7539C43.1071 38.1144 42.3652 37.7725 41.5789 37.7725C40.799 37.7725 40.0507 38.1081 39.4103 38.7476L37.4066 40.7421C37.2417 40.6534 37.0768 40.5711 36.9183 40.4888C36.69 40.3748 36.4745 40.2672 36.2906 40.1532C34.4137 38.9629 32.7079 37.4116 31.072 35.4045C30.2794 34.404 29.7467 33.5619 29.3599 32.7072C29.8799 32.2323 30.3618 31.7384 30.831 31.2635C31.0086 31.0862 31.1861 30.9026 31.3637 30.7253C32.6953 29.3957 32.6953 27.6735 31.3637 26.3438L29.6326 24.6152C29.436 24.419 29.2331 24.2163 29.0429 24.0137C28.6624 23.6212 28.2629 23.2159 27.8508 22.836C27.2357 22.2282 26.5002 21.9053 25.7266 21.9053C24.953 21.9053 24.2048 22.2282 23.5707 22.836C23.5643 22.8424 23.5643 22.8424 23.558 22.8487L21.4021 25.0205C20.5904 25.8309 20.1275 26.8187 20.0261 27.9647C19.8739 29.8136 20.4192 31.5358 20.8377 32.6628C21.865 35.4298 23.3995 37.9941 25.6885 40.7421C28.4659 44.0536 31.8075 46.6686 35.6248 48.5111C37.0832 49.2012 39.0298 50.018 41.2048 50.1573C41.3379 50.1637 41.4774 50.17 41.6043 50.17C43.069 50.17 44.2992 49.6445 45.263 48.5997C45.2693 48.5871 45.282 48.5807 45.2883 48.5681C45.6181 48.1692 45.9985 47.8083 46.398 47.422C46.6707 47.1624 46.9497 46.8902 47.2223 46.6052C47.8501 45.9531 48.1798 45.1933 48.1798 44.4145C48.1798 43.6293 47.8437 42.8759 47.2033 42.2427L43.7221 38.7539ZM45.9922 45.4212C45.9858 45.4212 45.9858 45.4276 45.9922 45.4212C45.7449 45.6872 45.4912 45.9278 45.2186 46.1937C44.8064 46.5863 44.3879 46.9978 43.9948 47.46C43.3544 48.1439 42.5998 48.4668 41.6106 48.4668C41.5155 48.4668 41.414 48.4668 41.3189 48.4604C39.4357 48.3401 37.6856 47.6057 36.373 46.9788C32.784 45.2439 29.6326 42.7809 27.0138 39.6594C24.8515 37.057 23.4058 34.651 22.4483 32.0676C21.8586 30.4911 21.643 29.2627 21.7381 28.104C21.8015 27.3632 22.0869 26.749 22.6132 26.2235L24.7755 24.0644C25.0862 23.7731 25.4159 23.6148 25.7393 23.6148C26.1387 23.6148 26.4621 23.8554 26.665 24.0581C26.6714 24.0644 26.6777 24.0707 26.6841 24.0771C27.0709 24.438 27.4386 24.8115 27.8254 25.2104C28.022 25.413 28.2249 25.6157 28.4278 25.8246L30.1589 27.5532C30.831 28.2243 30.831 28.8448 30.1589 29.516C29.975 29.6996 29.7975 29.8832 29.6136 30.0605C29.0809 30.605 28.5737 31.1116 28.022 31.6054C28.0093 31.6181 27.9966 31.6244 27.9903 31.6371C27.445 32.1816 27.5464 32.7135 27.6606 33.0744C27.6669 33.0934 27.6733 33.1124 27.6796 33.1314C28.1298 34.2204 28.7639 35.2462 29.7277 36.4682L29.734 36.4745C31.4841 38.6273 33.3294 40.3052 35.3648 41.5905C35.6248 41.7552 35.8911 41.8881 36.1447 42.0148C36.373 42.1287 36.5886 42.2364 36.7725 42.3503C36.7978 42.363 36.8232 42.382 36.8486 42.3947C37.0642 42.5023 37.2671 42.553 37.4763 42.553C38.0026 42.553 38.3323 42.2237 38.4401 42.1161L40.6087 39.9506C40.8243 39.7353 41.1667 39.4757 41.5662 39.4757C41.9594 39.4757 42.2827 39.7227 42.4793 39.938C42.4857 39.9443 42.4857 39.9443 42.492 39.9506L45.9858 43.4394C46.639 44.0852 46.639 44.7501 45.9922 45.4212Z" fill="white"/>
<path d="M36.2163 27.3063C37.8777 27.5849 39.3868 28.37 40.5916 29.573C41.7964 30.7761 42.5763 32.283 42.8616 33.9419C42.9314 34.3598 43.2928 34.6511 43.705 34.6511C43.7557 34.6511 43.8001 34.6447 43.8508 34.6384C44.3201 34.5624 44.6308 34.1192 44.5547 33.6507C44.2123 31.6435 43.2611 29.8136 41.809 28.3637C40.357 26.9137 38.5244 25.9639 36.5144 25.622C36.0451 25.5461 35.6076 25.8563 35.5252 26.3185C35.4428 26.7807 35.7471 27.2303 36.2163 27.3063Z" fill="white"/>
<path d="M49.988 33.4036C49.4237 30.0985 47.8638 27.091 45.467 24.6976C43.0701 22.3042 40.0582 20.7466 36.7482 20.1831C36.2853 20.1008 35.8478 20.4173 35.7653 20.8796C35.6893 21.3481 36 21.785 36.4692 21.8673C39.4241 22.3675 42.119 23.7668 44.2622 25.9006C46.4054 28.0407 47.8004 30.7317 48.3014 33.6822C48.3711 34.1001 48.7325 34.3914 49.1447 34.3914C49.1954 34.3914 49.2398 34.385 49.2905 34.3787C49.7534 34.3091 50.0705 33.8659 49.988 33.4036Z" fill="white"/>
</g>
</g>
<defs>
<clipPath id="clip0_6513_898">
<rect width="30" height="30" fill="white" transform="translate(20 20.17)"/>
</clipPath>
</defs>
</svg>
