<svg width="70" height="71" viewBox="0 0 70 71" fill="none" xmlns="http://www.w3.org/2000/svg">
<rect y="0.390015" width="70" height="70" rx="35" fill="#5751E1"/>
<g clip-path="url(#clip0_6513_890)">
<path d="M34.7504 20.39C31.8318 20.3933 29.0338 21.5542 26.97 23.6179C24.9063 25.6816 23.7455 28.4796 23.7422 31.3981C23.7422 37.286 33.8278 49.634 34.2571 50.1569C34.317 50.2298 34.3923 50.2885 34.4776 50.3288C34.5629 50.3691 34.656 50.39 34.7504 50.39C34.8447 50.39 34.9378 50.3691 35.0231 50.3288C35.1084 50.2885 35.1837 50.2298 35.2436 50.1569C35.6729 49.634 45.7585 37.286 45.7585 31.3981C45.7552 28.4796 44.5944 25.6816 42.5306 23.6179C40.4669 21.5542 37.6689 20.3933 34.7504 20.39ZM34.7504 48.7315C32.7064 46.1518 25.0188 36.1333 25.0188 31.3982C25.0188 30.1202 25.2705 28.8548 25.7596 27.6741C26.2486 26.4934 26.9654 25.4206 27.8691 24.5169C28.7727 23.6133 29.8455 22.8964 31.0263 22.4074C32.2069 21.9183 33.4724 21.6666 34.7504 21.6666C36.0283 21.6666 37.2938 21.9183 38.4745 22.4074C39.6551 22.8964 40.7279 23.6133 41.6316 24.5169C42.5353 25.4206 43.2521 26.4934 43.7411 27.6741C44.2302 28.8548 44.4819 30.1202 44.4819 31.3982C44.4819 36.1333 36.7943 46.1518 34.7504 48.7315Z" fill="white"/>
<path d="M34.7504 26.5385C33.8618 26.5385 32.9932 26.8019 32.2544 27.2956C31.5156 27.7892 30.9398 28.4909 30.5998 29.3118C30.2598 30.1327 30.1708 31.036 30.3441 31.9075C30.5175 32.7789 30.9453 33.5794 31.5736 34.2077C32.2019 34.836 33.0024 35.2639 33.8739 35.4372C34.7454 35.6106 35.6487 35.5216 36.4696 35.1816C37.2905 34.8415 37.9921 34.2657 38.4858 33.5269C38.9794 32.7881 39.2429 31.9195 39.2429 31.031C39.2415 29.8399 38.7678 28.698 37.9256 27.8558C37.0833 27.0136 35.9414 26.5398 34.7504 26.5385ZM34.7504 34.247C34.1143 34.247 33.4925 34.0583 32.9637 33.705C32.4348 33.3516 32.0226 32.8493 31.7792 32.2617C31.5358 31.6741 31.4721 31.0274 31.5962 30.4036C31.7203 29.7798 32.0266 29.2067 32.4763 28.757C32.9261 28.3072 33.4991 28.0009 34.123 27.8768C34.7468 27.7528 35.3934 27.8164 35.981 28.0598C36.5687 28.3033 37.071 28.7155 37.4243 29.2443C37.7777 29.7732 37.9663 30.3949 37.9663 31.031C37.9653 31.8836 37.6262 32.701 37.0233 33.3039C36.4204 33.9068 35.603 34.246 34.7504 34.247Z" fill="white"/>
</g>
<defs>
<clipPath id="clip0_6513_890">
<rect width="30" height="30" fill="white" transform="translate(20 20.39)"/>
</clipPath>
</defs>
</svg>
