<svg width="70" height="71" viewBox="0 0 70 71" fill="none" xmlns="http://www.w3.org/2000/svg">
<rect y="0.950073" width="70" height="70" rx="35" fill="#5751E1"/>
<path d="M46.75 25.9501H23.25C22.1454 25.9501 21.25 26.9052 21.25 28.0834V43.8168C21.25 44.995 22.1454 45.9501 23.25 45.9501H46.75C47.8546 45.9501 48.75 44.995 48.75 43.8168V28.0834C48.75 26.9052 47.8546 25.9501 46.75 25.9501ZM35 37.7418L23.465 27.2834H46.535L35 37.7418ZM22.5 28.1584L30.0308 34.9863L22.5 43.637V28.1584ZM30.9841 35.8507L34.5952 39.1247C34.7119 39.2305 34.8559 39.2834 35 39.2834C35.1441 39.2834 35.2881 39.2305 35.4048 39.1247L39.0159 35.8507L46.6471 44.6168H23.3529L30.9841 35.8507ZM39.9692 34.9863L47.5 28.1584V43.637L39.9692 34.9863Z" fill="white"/>
</svg>
