<svg width="157" height="52" viewBox="0 0 157 52" fill="none" xmlns="http://www.w3.org/2000/svg">
<g clip-path="url(#clip0_6513_1020)">
<g clip-path="url(#clip1_6513_1020)">
<g clip-path="url(#clip2_6513_1020)">
<path d="M157 0.000244141H0V52.0002H157V0.000244141Z" fill="#1C1B3C"/>
<path d="M14.5977 35.7528V20.2463C14.5977 19.7082 14.9204 19.2339 15.3949 19.0149L24.7434 27.9996L15.3949 36.9842C14.9204 36.7561 14.5977 36.2909 14.5977 35.7528ZM27.7045 30.8455L17.4924 36.519L25.5501 28.7749L27.7045 30.8455ZM30.8839 26.9141C31.2066 27.1604 31.4439 27.5435 31.4439 27.9996C31.4439 28.4556 31.2351 28.8205 30.9029 29.0759L28.7295 30.2799L26.3568 27.9996L28.7295 25.7192L30.8839 26.9141ZM17.4924 19.4801L27.7045 25.1537L25.5501 27.2242L17.4924 19.4801Z" fill="white"/>
<path d="M51.9889 22.1531C51.3076 22.1533 50.6682 22.0275 50.0708 21.7757C49.4828 21.5145 48.9647 21.1553 48.5165 20.6981C48.0777 20.2409 47.7323 19.709 47.4801 19.1024C47.2279 18.4958 47.1018 17.8425 47.1016 17.1425C47.1014 16.4425 47.2272 15.7938 47.4791 15.1964C47.7309 14.5896 48.0807 14.0575 48.5286 13.6001C48.9765 13.1426 49.4991 12.7878 50.0963 12.5357C50.7029 12.2835 51.3609 12.1573 52.0702 12.1571C52.8449 12.1569 53.5589 12.3061 54.2124 12.6045C54.8658 12.903 55.4119 13.3322 55.8507 13.8921L54.9409 14.8023C54.6328 14.3544 54.2267 14.0139 53.7227 13.7807C53.2186 13.5381 52.6679 13.417 52.0706 13.4171C51.3612 13.4173 50.7313 13.5762 50.1807 13.8936C49.6395 14.2111 49.2149 14.6499 48.9071 15.21C48.6085 15.7701 48.4594 16.4141 48.4596 17.1421C48.4598 17.8794 48.614 18.5281 48.9221 19.088C49.2303 19.6479 49.6457 20.0864 50.1685 20.4036C50.6912 20.7208 51.2886 20.8793 51.9606 20.8792C52.6419 20.879 53.2299 20.7481 53.7245 20.4867C54.2284 20.2252 54.6156 19.8424 54.8862 19.3384C55.1567 18.825 55.2919 18.1996 55.2917 17.4623L56.0898 18.036L51.8898 18.0372L51.8895 16.8332L56.6495 16.8319V17.0279C56.6499 18.1572 56.4494 19.1046 56.0483 19.8701C55.6565 20.6262 55.106 21.1956 54.3968 21.5785C53.6969 21.9614 52.8943 22.1529 51.9889 22.1531ZM61.4171 22.1506C60.7544 22.1508 60.157 22.0016 59.6249 21.7031C59.0928 21.3952 58.6727 20.98 58.3646 20.4574C58.0565 19.9348 57.9023 19.3422 57.9021 18.6796C57.9019 18.0262 58.0511 17.4382 58.3496 16.9154C58.6575 16.3927 59.0681 15.9819 59.5813 15.6831C60.1039 15.375 60.6872 15.2208 61.3312 15.2206C61.9472 15.2205 62.4886 15.3603 62.9553 15.6402C63.4314 15.9201 63.8001 16.3073 64.0616 16.8019C64.3324 17.2965 64.4679 17.8564 64.4681 18.4818C64.4681 18.5751 64.4634 18.6778 64.4541 18.7898C64.4448 18.8925 64.4262 19.0138 64.3982 19.1538L58.7842 19.1553L58.784 18.1053L63.726 18.104L63.2641 18.5101C63.264 18.0621 63.1845 17.6841 63.0258 17.3762C62.867 17.0589 62.6429 16.8163 62.3536 16.6484C62.0642 16.4711 61.7142 16.3825 61.3035 16.3826C60.8742 16.3828 60.4962 16.4762 60.1696 16.6629C59.843 16.8497 59.591 17.1111 59.4138 17.4471C59.2365 17.7832 59.148 18.1799 59.1481 18.6372C59.1482 19.1039 59.2417 19.5145 59.4284 19.8691C59.6152 20.2144 59.8813 20.485 60.2267 20.6809C60.572 20.8675 60.9687 20.9607 61.4167 20.9606C61.7901 20.9605 62.1307 20.8951 62.4387 20.7643C62.756 20.6336 63.0266 20.4375 63.2505 20.1761L64.0627 21.0019C63.7455 21.3753 63.3536 21.6601 62.887 21.8562C62.4297 22.0523 61.9397 22.1505 61.4171 22.1506ZM66.8135 22.0091L66.8109 12.5731L68.0709 12.5728L68.0735 22.0088L66.8135 22.0091ZM65.174 16.5076L65.1737 15.3596L69.7097 15.3584L69.71 16.5064L65.174 16.5076ZM74.3619 22.0071L74.3593 12.2911L75.6753 12.2908L75.6779 22.0068L74.3619 22.0071ZM78.9092 22.0059L78.9067 12.5699L80.1667 12.5695L80.1692 22.0055L78.9092 22.0059ZM77.2698 16.5043L77.2695 15.3563L81.8055 15.3551L81.8058 16.5031L77.2698 16.5043ZM90.8817 22.1427C90.191 22.1428 89.547 22.017 88.9496 21.7652C88.3522 21.504 87.8294 21.1448 87.3813 20.6876C86.9332 20.2211 86.583 19.6845 86.3309 19.0779C86.088 18.4713 85.9665 17.8227 85.9663 17.132C85.9661 16.432 86.0873 15.7833 86.3298 15.1859C86.5816 14.5792 86.9268 14.0471 87.3654 13.5896C87.8133 13.1322 88.3312 12.7773 88.9191 12.5252C89.5164 12.273 90.1603 12.1469 90.851 12.1467C91.5417 12.1465 92.181 12.2723 92.7691 12.5241C93.3665 12.776 93.8893 13.1305 94.3374 13.5877C94.7855 14.0449 95.1356 14.5768 95.3878 15.1834C95.64 15.79 95.7662 16.4433 95.7663 17.1433C95.7665 17.834 95.6407 18.4827 95.3889 19.0894C95.137 19.6962 94.7872 20.2283 94.3393 20.6857C93.9008 21.1432 93.3829 21.5027 92.7856 21.7641C92.1977 22.0163 91.563 22.1425 90.8817 22.1427ZM90.8533 20.8827C91.5533 20.8825 92.1646 20.7236 92.6872 20.4062C93.2191 20.0794 93.639 19.6359 93.9469 19.0758C94.2547 18.5064 94.4085 17.8577 94.4083 17.1297C94.4082 16.5884 94.3194 16.0937 94.1419 15.6458C93.9645 15.1885 93.717 14.7919 93.3996 14.456C93.0822 14.1201 92.7088 13.8635 92.2794 13.6863C91.85 13.4997 91.374 13.4065 90.8513 13.4067C90.1607 13.4069 89.5494 13.5657 89.0175 13.8832C88.4949 14.2006 88.0797 14.6394 87.7718 15.1995C87.4733 15.7596 87.3241 16.4036 87.3243 17.1316C87.3245 17.673 87.4086 18.1769 87.5767 18.6435C87.7542 19.1008 87.997 19.4974 88.3051 19.8334C88.6225 20.1599 88.9959 20.4165 89.4253 20.6031C89.864 20.7896 90.34 20.8828 90.8533 20.8827ZM102.193 21.9996L102.192 18.1216C102.192 17.6176 102.033 17.2023 101.715 16.8757C101.398 16.5492 100.987 16.3859 100.483 16.3861C100.147 16.3862 99.8487 16.4609 99.5874 16.6103C99.3261 16.7597 99.1209 16.9651 98.9716 17.2265C98.8223 17.4879 98.7477 17.7865 98.7478 18.1225L98.2298 17.8287C98.2296 17.3247 98.3415 16.8766 98.5654 16.4846C98.7893 16.0925 99.1019 15.7844 99.5031 15.5603C99.9044 15.3269 100.357 15.2101 100.861 15.21C101.365 15.2098 101.808 15.3357 102.191 15.5876C102.583 15.8395 102.891 16.1708 103.115 16.5814C103.339 16.9826 103.451 17.4119 103.452 17.8693L103.453 21.9993L102.193 21.9996ZM97.4889 22.0009L97.4871 15.3509L98.7471 15.3505L98.7489 22.0005L97.4889 22.0009Z" fill="#B2BBCC"/>
<path d="M52.4715 40.1602C51.7035 40.1602 50.9782 40.0109 50.2955 39.7122C49.6128 39.4135 49.0155 39.0029 48.5035 38.4802C47.9915 37.9469 47.5862 37.3335 47.2875 36.6402C46.9995 35.9362 46.8555 35.1842 46.8555 34.3842C46.8555 33.5842 46.9995 32.8375 47.2875 32.1442C47.5862 31.4509 47.9915 30.8429 48.5035 30.3202C49.0262 29.7869 49.6342 29.3762 50.3275 29.0882C51.0315 28.7895 51.7888 28.6402 52.5995 28.6402C53.4848 28.6402 54.3062 28.8109 55.0635 29.1522C55.8208 29.4935 56.4555 29.9789 56.9675 30.6082L55.7195 31.8562C55.3888 31.3869 54.9462 31.0295 54.3915 30.7842C53.8368 30.5282 53.2395 30.4002 52.5995 30.4002C51.8315 30.4002 51.1542 30.5709 50.5675 30.9122C49.9915 31.2429 49.5435 31.7069 49.2235 32.3042C48.9035 32.9015 48.7435 33.5949 48.7435 34.3842C48.7435 35.1735 48.9035 35.8722 49.2235 36.4802C49.5542 37.0775 49.9968 37.5469 50.5515 37.8882C51.1062 38.2295 51.7355 38.4002 52.4395 38.4002C53.1862 38.4002 53.8262 38.2669 54.3595 38.0002C54.9035 37.7229 55.3195 37.3175 55.6075 36.7842C55.8955 36.2402 56.0395 35.5735 56.0395 34.7842L57.1915 35.6162H52.4075V33.9362H57.9435V34.1922C57.9435 35.5255 57.7035 36.6349 57.2235 37.5202C56.7542 38.4055 56.1088 39.0669 55.2875 39.5042C54.4662 39.9415 53.5275 40.1602 52.4715 40.1602ZM63.2149 40.1602C62.4682 40.1602 61.7909 39.9842 61.1829 39.6322C60.5749 39.2695 60.0895 38.7842 59.7269 38.1762C59.3749 37.5682 59.1989 36.8909 59.1989 36.1442C59.1989 35.3975 59.3749 34.7255 59.7269 34.1282C60.0895 33.5309 60.5749 33.0562 61.1829 32.7042C61.7909 32.3415 62.4682 32.1602 63.2149 32.1602C63.9722 32.1602 64.6549 32.3362 65.2629 32.6882C65.8709 33.0402 66.3509 33.5202 66.7029 34.1282C67.0655 34.7255 67.2469 35.3975 67.2469 36.1442C67.2469 36.8909 67.0655 37.5682 66.7029 38.1762C66.3509 38.7842 65.8709 39.2695 65.2629 39.6322C64.6549 39.9842 63.9722 40.1602 63.2149 40.1602ZM63.2149 38.4642C63.6522 38.4642 64.0362 38.3682 64.3669 38.1762C64.7082 37.9735 64.9695 37.6962 65.1509 37.3442C65.3429 36.9922 65.4389 36.5922 65.4389 36.1442C65.4389 35.6962 65.3429 35.3015 65.1509 34.9602C64.9589 34.6189 64.6975 34.3522 64.3669 34.1602C64.0362 33.9575 63.6522 33.8562 63.2149 33.8562C62.7882 33.8562 62.4042 33.9575 62.0629 34.1602C61.7322 34.3522 61.4709 34.6189 61.2789 34.9602C61.0975 35.3015 61.0069 35.6962 61.0069 36.1442C61.0069 36.5922 61.0975 36.9922 61.2789 37.3442C61.4709 37.6962 61.7322 37.9735 62.0629 38.1762C62.4042 38.3682 62.7882 38.4642 63.2149 38.4642ZM72.3905 40.1602C71.6438 40.1602 70.9665 39.9842 70.3585 39.6322C69.7505 39.2695 69.2652 38.7842 68.9025 38.1762C68.5505 37.5682 68.3745 36.8909 68.3745 36.1442C68.3745 35.3975 68.5505 34.7255 68.9025 34.1282C69.2652 33.5309 69.7505 33.0562 70.3585 32.7042C70.9665 32.3415 71.6438 32.1602 72.3905 32.1602C73.1478 32.1602 73.8305 32.3362 74.4385 32.6882C75.0465 33.0402 75.5265 33.5202 75.8785 34.1282C76.2412 34.7255 76.4225 35.3975 76.4225 36.1442C76.4225 36.8909 76.2412 37.5682 75.8785 38.1762C75.5265 38.7842 75.0465 39.2695 74.4385 39.6322C73.8305 39.9842 73.1478 40.1602 72.3905 40.1602ZM72.3905 38.4642C72.8278 38.4642 73.2118 38.3682 73.5425 38.1762C73.8838 37.9735 74.1452 37.6962 74.3265 37.3442C74.5185 36.9922 74.6145 36.5922 74.6145 36.1442C74.6145 35.6962 74.5185 35.3015 74.3265 34.9602C74.1345 34.6189 73.8732 34.3522 73.5425 34.1602C73.2118 33.9575 72.8278 33.8562 72.3905 33.8562C71.9638 33.8562 71.5798 33.9575 71.2385 34.1602C70.9078 34.3522 70.6465 34.6189 70.4545 34.9602C70.2732 35.3015 70.1825 35.6962 70.1825 36.1442C70.1825 36.5922 70.2732 36.9922 70.4545 37.3442C70.6465 37.6962 70.9078 37.9735 71.2385 38.1762C71.5798 38.3682 71.9638 38.4642 72.3905 38.4642ZM81.2461 43.3602C80.4355 43.3602 79.7261 43.2109 79.1181 42.9122C78.5101 42.6242 78.0195 42.2135 77.6461 41.6802L78.7981 40.5282C79.1075 40.9122 79.4595 41.2002 79.8541 41.3922C80.2488 41.5842 80.7235 41.6802 81.2781 41.6802C81.9715 41.6802 82.5208 41.4989 82.9261 41.1362C83.3315 40.7842 83.5341 40.2989 83.5341 39.6802V37.7922L83.8381 36.0962L83.5341 34.3842V32.3202H85.2941V39.6802C85.2941 40.4162 85.1235 41.0562 84.7821 41.6002C84.4408 42.1549 83.9661 42.5869 83.3581 42.8962C82.7501 43.2055 82.0461 43.3602 81.2461 43.3602ZM81.1661 39.8402C80.4835 39.8402 79.8648 39.6749 79.3101 39.3442C78.7661 39.0029 78.3341 38.5389 78.0141 37.9522C77.7048 37.3655 77.5501 36.7095 77.5501 35.9842C77.5501 35.2589 77.7048 34.6082 78.0141 34.0322C78.3341 33.4562 78.7661 33.0029 79.3101 32.6722C79.8648 32.3309 80.4835 32.1602 81.1661 32.1602C81.7741 32.1602 82.3075 32.2829 82.7661 32.5282C83.2248 32.7735 83.5821 33.1149 83.8381 33.5522C84.0941 33.9789 84.2221 34.4802 84.2221 35.0562V36.9442C84.2221 37.5095 84.0888 38.0109 83.8221 38.4482C83.5661 38.8855 83.2088 39.2269 82.7501 39.4722C82.2915 39.7175 81.7635 39.8402 81.1661 39.8402ZM81.5181 38.1762C81.9448 38.1762 82.3181 38.0855 82.6381 37.9042C82.9581 37.7229 83.2035 37.4722 83.3741 37.1522C83.5555 36.8215 83.6461 36.4375 83.6461 36.0002C83.6461 35.5629 83.5555 35.1842 83.3741 34.8642C83.2035 34.5335 82.9581 34.2775 82.6381 34.0962C82.3181 33.9149 81.9448 33.8242 81.5181 33.8242C81.0915 33.8242 80.7128 33.9149 80.3821 34.0962C80.0621 34.2775 79.8115 34.5335 79.6301 34.8642C79.4488 35.1842 79.3581 35.5629 79.3581 36.0002C79.3581 36.4269 79.4488 36.8055 79.6301 37.1362C79.8115 37.4669 80.0621 37.7229 80.3821 37.9042C80.7128 38.0855 81.0915 38.1762 81.5181 38.1762ZM87.4093 40.0002V28.4802H89.1693V40.0002H87.4093ZM94.856 40.1602C94.088 40.1602 93.3947 39.9895 92.776 39.6482C92.168 39.2962 91.6827 38.8162 91.32 38.2082C90.968 37.6002 90.792 36.9175 90.792 36.1602C90.792 35.4029 90.968 34.7255 91.32 34.1282C91.672 33.5202 92.1467 33.0402 92.744 32.6882C93.352 32.3362 94.024 32.1602 94.76 32.1602C95.4747 32.1602 96.104 32.3255 96.648 32.6562C97.2027 32.9869 97.6347 33.4402 97.944 34.0162C98.264 34.5922 98.424 35.2482 98.424 35.9842C98.424 36.1122 98.4133 36.2455 98.392 36.3842C98.3813 36.5122 98.36 36.6562 98.328 36.8162H92.024V35.3762H97.416L96.76 35.9522C96.7387 35.4829 96.648 35.0882 96.488 34.7682C96.328 34.4482 96.0987 34.2029 95.8 34.0322C95.512 33.8615 95.1547 33.7762 94.728 33.7762C94.28 33.7762 93.8907 33.8722 93.56 34.0642C93.2293 34.2562 92.9733 34.5282 92.792 34.8802C92.6107 35.2215 92.52 35.6322 92.52 36.1122C92.52 36.5922 92.616 37.0135 92.808 37.3762C93 37.7389 93.272 38.0215 93.624 38.2242C93.976 38.4162 94.3813 38.5122 94.84 38.5122C95.2347 38.5122 95.5973 38.4429 95.928 38.3042C96.2693 38.1655 96.5573 37.9629 96.792 37.6962L97.912 38.8322C97.5387 39.2695 97.0853 39.6002 96.552 39.8242C96.0187 40.0482 95.4533 40.1602 94.856 40.1602ZM104.861 35.7762V34.1762H107.661C108.046 34.1762 108.382 34.1015 108.669 33.9522C108.968 33.7922 109.203 33.5735 109.373 33.2962C109.544 33.0082 109.629 32.6722 109.629 32.2882C109.629 31.9042 109.544 31.5735 109.373 31.2962C109.203 31.0082 108.968 30.7895 108.669 30.6402C108.382 30.4802 108.046 30.4002 107.661 30.4002H104.861V28.8002H107.758C108.461 28.8002 109.091 28.9442 109.646 29.2322C110.211 29.5202 110.654 29.9255 110.973 30.4482C111.304 30.9709 111.469 31.5842 111.469 32.2882C111.469 32.9922 111.304 33.6055 110.973 34.1282C110.654 34.6509 110.211 35.0562 109.646 35.3442C109.091 35.6322 108.461 35.7762 107.758 35.7762H104.861ZM103.597 40.0002V28.8002H105.437V40.0002H103.597ZM113.174 40.0002V28.4802H114.934V40.0002H113.174ZM120.268 40.1602C119.575 40.1602 118.946 39.9842 118.38 39.6322C117.826 39.2802 117.383 38.8055 117.052 38.2082C116.732 37.6002 116.572 36.9229 116.572 36.1762C116.572 35.4189 116.732 34.7415 117.052 34.1442C117.383 33.5362 117.826 33.0562 118.38 32.7042C118.946 32.3415 119.575 32.1602 120.268 32.1602C120.855 32.1602 121.372 32.2882 121.82 32.5442C122.279 32.7895 122.642 33.1309 122.908 33.5682C123.175 34.0055 123.308 34.5015 123.308 35.0562V37.2642C123.308 37.8189 123.175 38.3149 122.908 38.7522C122.652 39.1895 122.295 39.5362 121.836 39.7922C121.378 40.0375 120.855 40.1602 120.268 40.1602ZM120.556 38.4962C121.207 38.4962 121.73 38.2775 122.124 37.8402C122.53 37.4029 122.732 36.8429 122.732 36.1602C122.732 35.7015 122.642 35.2962 122.46 34.9442C122.279 34.5922 122.023 34.3202 121.692 34.1282C121.372 33.9255 120.994 33.8242 120.556 33.8242C120.13 33.8242 119.751 33.9255 119.42 34.1282C119.1 34.3202 118.844 34.5922 118.652 34.9442C118.471 35.2962 118.38 35.7015 118.38 36.1602C118.38 36.6189 118.471 37.0242 118.652 37.3762C118.844 37.7282 119.1 38.0055 119.42 38.2082C119.751 38.4002 120.13 38.4962 120.556 38.4962ZM122.62 40.0002V37.9362L122.924 36.0642L122.62 34.2082V32.3202H124.381V40.0002H122.62ZM128.974 40.0802L125.694 32.3202H127.63L129.87 38.0162H129.31L131.678 32.3202H133.63L130.062 40.0802H128.974ZM126.686 43.2002L129.07 38.2882L130.062 40.0802L128.638 43.2002H126.686Z" fill="white"/>
</g>
</g>
</g>
<defs>
<clipPath id="clip0_6513_1020">
<rect y="0.000244141" width="157" height="52" rx="4" fill="white"/>
</clipPath>
<clipPath id="clip1_6513_1020">
<rect width="157" height="52" fill="white" transform="translate(0 0.000244141)"/>
</clipPath>
<clipPath id="clip2_6513_1020">
<rect width="157" height="52" fill="white" transform="translate(0 0.000244141)"/>
</clipPath>
</defs>
</svg>
