<svg width="161" height="52" viewBox="0 0 161 52" fill="none" xmlns="http://www.w3.org/2000/svg">
<g clip-path="url(#clip0_6513_1027)">
<g clip-path="url(#clip1_6513_1027)">
<g clip-path="url(#clip2_6513_1027)">
<path d="M161 0.500244H0V51.5002H161V0.500244Z" fill="#1C1B3C"/>
<path d="M31.1289 34.2487C30.0035 35.8606 28.8103 37.4335 26.9934 37.4595C25.1766 37.4985 24.5935 36.4325 22.5326 36.4325C20.4581 36.4325 19.8208 37.4335 18.0988 37.4985C16.3226 37.5635 14.9803 35.7826 13.8414 34.2097C11.5228 30.9989 9.7466 25.0843 12.133 21.1066C13.3126 19.1307 15.4278 17.8828 17.7192 17.8438C19.4547 17.8178 21.1089 18.9747 22.1801 18.9747C23.2376 18.9747 25.2444 17.5838 27.346 17.7918C28.2273 17.8308 30.695 18.1298 32.2814 20.3656C32.1594 20.4436 29.3391 22.0295 29.3662 25.3183C29.4069 29.244 32.9593 30.5569 33 30.5699C32.9593 30.6609 32.4305 32.4418 31.1289 34.2487ZM23.3868 13.4501C24.3766 12.3711 26.0172 11.5522 27.3731 11.5002C27.5494 13.0211 26.9121 14.555 25.963 15.6469C25.0274 16.7519 23.4817 17.6098 21.9631 17.4928C21.7597 15.9979 22.519 14.438 23.3868 13.4501Z" fill="white"/>
<path d="M47.9237 19.5001V18.4681H50.2397C50.8557 18.4681 51.3957 18.3361 51.8597 18.0721C52.3237 17.8001 52.6837 17.4281 52.9397 16.9561C53.2037 16.4841 53.3357 15.9401 53.3357 15.3241C53.3357 14.7161 53.2037 14.1761 52.9397 13.7041C52.6757 13.2321 52.3117 12.8641 51.8477 12.6001C51.3837 12.3361 50.8477 12.2041 50.2397 12.2041H47.9357V11.1721H50.2637C50.8717 11.1721 51.4317 11.2761 51.9437 11.4841C52.4637 11.6921 52.9117 11.9841 53.2877 12.3601C53.6717 12.7361 53.9677 13.1761 54.1757 13.6801C54.3917 14.1841 54.4997 14.7361 54.4997 15.3361C54.4997 15.9281 54.3917 16.4801 54.1757 16.9921C53.9677 17.4961 53.6757 17.9361 53.2997 18.3121C52.9237 18.6881 52.4757 18.9801 51.9557 19.1881C51.4437 19.3961 50.8877 19.5001 50.2877 19.5001H47.9237ZM47.1797 19.5001V11.1721H48.3077V19.5001H47.1797ZM58.5945 19.6201C58.0345 19.6201 57.5305 19.4881 57.0825 19.2241C56.6345 18.9601 56.2785 18.6041 56.0145 18.1561C55.7505 17.7001 55.6185 17.1921 55.6185 16.6321C55.6185 16.0801 55.7505 15.5841 56.0145 15.1441C56.2785 14.6961 56.6345 14.3401 57.0825 14.0761C57.5305 13.8121 58.0345 13.6801 58.5945 13.6801C59.1465 13.6801 59.6465 13.8121 60.0945 14.0761C60.5505 14.3321 60.9105 14.6841 61.1745 15.1321C61.4385 15.5801 61.5705 16.0801 61.5705 16.6321C61.5705 17.1921 61.4385 17.7001 61.1745 18.1561C60.9105 18.6041 60.5505 18.9601 60.0945 19.2241C59.6465 19.4881 59.1465 19.6201 58.5945 19.6201ZM58.5945 18.5761C58.9545 18.5761 59.2745 18.4921 59.5545 18.3241C59.8345 18.1561 60.0545 17.9281 60.2145 17.6401C60.3745 17.3441 60.4545 17.0081 60.4545 16.6321C60.4545 16.2641 60.3705 15.9361 60.2025 15.6481C60.0425 15.3601 59.8225 15.1361 59.5425 14.9761C59.2705 14.8081 58.9545 14.7241 58.5945 14.7241C58.2345 14.7241 57.9145 14.8081 57.6345 14.9761C57.3545 15.1361 57.1345 15.3601 56.9745 15.6481C56.8145 15.9361 56.7345 16.2641 56.7345 16.6321C56.7345 17.0081 56.8145 17.3441 56.9745 17.6401C57.1345 17.9281 57.3545 18.1561 57.6345 18.3241C57.9145 18.4921 58.2345 18.5761 58.5945 18.5761ZM64.3753 19.5001L62.1193 13.8001H63.2473L64.8793 18.2401H64.5193L66.1393 13.8001H66.7633L68.3833 18.2401H68.0233L69.6553 13.8001H70.7833L68.5393 19.5001H67.9033L66.2593 15.1921H66.6553L64.9993 19.5001H64.3753ZM75.8953 19.5001V16.1761C75.8953 15.7441 75.7593 15.3881 75.4873 15.1081C75.2153 14.8281 74.8633 14.6881 74.4313 14.6881C74.1433 14.6881 73.8873 14.7521 73.6633 14.8801C73.4393 15.0081 73.2633 15.1841 73.1353 15.4081C73.0073 15.6321 72.9433 15.8881 72.9433 16.1761L72.4993 15.9241C72.4993 15.4921 72.5953 15.1081 72.7873 14.7721C72.9793 14.4361 73.2473 14.1721 73.5913 13.9801C73.9353 13.7801 74.3233 13.6801 74.7553 13.6801C75.1873 13.6801 75.5673 13.7881 75.8953 14.0041C76.2313 14.2201 76.4953 14.5041 76.6873 14.8561C76.8793 15.2001 76.9753 15.5681 76.9753 15.9601V19.5001H75.8953ZM71.8633 19.5001V13.8001H72.9433V19.5001H71.8633ZM78.5575 19.5001V10.9321H79.6375V19.5001H78.5575ZM83.9417 19.6201C83.3817 19.6201 82.8777 19.4881 82.4297 19.2241C81.9817 18.9601 81.6257 18.6041 81.3617 18.1561C81.0977 17.7001 80.9657 17.1921 80.9657 16.6321C80.9657 16.0801 81.0977 15.5841 81.3617 15.1441C81.6257 14.6961 81.9817 14.3401 82.4297 14.0761C82.8777 13.8121 83.3817 13.6801 83.9417 13.6801C84.4937 13.6801 84.9937 13.8121 85.4417 14.0761C85.8977 14.3321 86.2577 14.6841 86.5217 15.1321C86.7857 15.5801 86.9177 16.0801 86.9177 16.6321C86.9177 17.1921 86.7857 17.7001 86.5217 18.1561C86.2577 18.6041 85.8977 18.9601 85.4417 19.2241C84.9937 19.4881 84.4937 19.6201 83.9417 19.6201ZM83.9417 18.5761C84.3017 18.5761 84.6217 18.4921 84.9017 18.3241C85.1817 18.1561 85.4017 17.9281 85.5617 17.6401C85.7217 17.3441 85.8017 17.0081 85.8017 16.6321C85.8017 16.2641 85.7177 15.9361 85.5497 15.6481C85.3897 15.3601 85.1697 15.1361 84.8897 14.9761C84.6177 14.8081 84.3017 14.7241 83.9417 14.7241C83.5817 14.7241 83.2617 14.8081 82.9817 14.9761C82.7017 15.1361 82.4817 15.3601 82.3217 15.6481C82.1617 15.9361 82.0817 16.2641 82.0817 16.6321C82.0817 17.0081 82.1617 17.3441 82.3217 17.6401C82.4817 17.9281 82.7017 18.1561 82.9817 18.3241C83.2617 18.4921 83.5817 18.5761 83.9417 18.5761ZM90.6785 19.6201C90.1585 19.6201 89.6865 19.4921 89.2625 19.2361C88.8385 18.9721 88.5025 18.6161 88.2545 18.1681C88.0145 17.7201 87.8945 17.2161 87.8945 16.6561C87.8945 16.0961 88.0145 15.5921 88.2545 15.1441C88.5025 14.6961 88.8345 14.3401 89.2505 14.0761C89.6745 13.8121 90.1505 13.6801 90.6785 13.6801C91.1105 13.6801 91.4945 13.7721 91.8305 13.9561C92.1745 14.1321 92.4505 14.3801 92.6585 14.7001C92.8665 15.0121 92.9825 15.3761 93.0065 15.7921V17.5081C92.9825 17.9161 92.8665 18.2801 92.6585 18.6001C92.4585 18.9201 92.1865 19.1721 91.8425 19.3561C91.5065 19.5321 91.1185 19.6201 90.6785 19.6201ZM90.8585 18.6001C91.3945 18.6001 91.8265 18.4201 92.1545 18.0601C92.4825 17.6921 92.6465 17.2241 92.6465 16.6561C92.6465 16.2641 92.5705 15.9241 92.4185 15.6361C92.2745 15.3401 92.0665 15.1121 91.7945 14.9521C91.5225 14.7841 91.2065 14.7001 90.8465 14.7001C90.4865 14.7001 90.1665 14.7841 89.8865 14.9521C89.6145 15.1201 89.3985 15.3521 89.2385 15.6481C89.0865 15.9361 89.0105 16.2681 89.0105 16.6441C89.0105 17.0281 89.0865 17.3681 89.2385 17.6641C89.3985 17.9521 89.6185 18.1801 89.8985 18.3481C90.1785 18.5161 90.4985 18.6001 90.8585 18.6001ZM92.5745 19.5001V17.9641L92.7785 16.5721L92.5745 15.1921V13.8001H93.6665V19.5001H92.5745ZM97.7709 19.6201C97.2429 19.6201 96.7709 19.4921 96.3549 19.2361C95.9389 18.9721 95.6069 18.6161 95.3589 18.1681C95.1189 17.7201 94.9989 17.2161 94.9989 16.6561C94.9989 16.0961 95.1189 15.5921 95.3589 15.1441C95.6069 14.6961 95.9389 14.3401 96.3549 14.0761C96.7709 13.8121 97.2429 13.6801 97.7709 13.6801C98.1949 13.6801 98.5789 13.7721 98.9229 13.9561C99.2669 14.1321 99.5429 14.3801 99.7509 14.7001C99.9669 15.0121 100.086 15.3761 100.11 15.7921V17.5081C100.086 17.9161 99.9709 18.2801 99.7629 18.6001C99.5549 18.9201 99.2789 19.1721 98.9349 19.3561C98.5909 19.5321 98.2029 19.6201 97.7709 19.6201ZM97.9509 18.6001C98.3109 18.6001 98.6229 18.5161 98.8869 18.3481C99.1589 18.1801 99.3709 17.9521 99.5229 17.6641C99.6749 17.3681 99.7509 17.0321 99.7509 16.6561C99.7509 16.2641 99.6709 15.9241 99.5109 15.6361C99.3589 15.3481 99.1469 15.1201 98.8749 14.9521C98.6109 14.7841 98.2989 14.7001 97.9389 14.7001C97.5789 14.7001 97.2629 14.7841 96.9909 14.9521C96.7189 15.1201 96.5029 15.3521 96.3429 15.6481C96.1909 15.9361 96.1149 16.2681 96.1149 16.6441C96.1149 17.0281 96.1909 17.3681 96.3429 17.6641C96.5029 17.9521 96.7189 18.1801 96.9909 18.3481C97.2709 18.5161 97.5909 18.6001 97.9509 18.6001ZM100.77 19.5001H99.6789V17.9641L99.8829 16.5721L99.6789 15.1921V10.9321H100.77V19.5001ZM109.063 19.6201C108.471 19.6201 107.919 19.5121 107.407 19.2961C106.895 19.0721 106.447 18.7641 106.063 18.3721C105.679 17.9721 105.379 17.5121 105.163 16.9921C104.955 16.4721 104.851 15.9161 104.851 15.3241C104.851 14.7241 104.955 14.1681 105.163 13.6561C105.379 13.1361 105.675 12.6801 106.051 12.2881C106.435 11.8961 106.879 11.5921 107.383 11.3761C107.895 11.1601 108.447 11.0521 109.039 11.0521C109.631 11.0521 110.179 11.1601 110.683 11.3761C111.195 11.5921 111.643 11.8961 112.027 12.2881C112.411 12.6801 112.711 13.1361 112.927 13.6561C113.143 14.1761 113.251 14.7361 113.251 15.3361C113.251 15.9281 113.143 16.4841 112.927 17.0041C112.711 17.5241 112.411 17.9801 112.027 18.3721C111.651 18.7641 111.207 19.0721 110.695 19.2961C110.191 19.5121 109.647 19.6201 109.063 19.6201ZM109.039 18.5401C109.639 18.5401 110.163 18.4041 110.611 18.1321C111.067 17.8521 111.427 17.4721 111.691 16.9921C111.955 16.5041 112.087 15.9481 112.087 15.3241C112.087 14.8601 112.011 14.4361 111.859 14.0521C111.707 13.6601 111.495 13.3201 111.223 13.0321C110.951 12.7441 110.631 12.5241 110.263 12.3721C109.895 12.2121 109.487 12.1321 109.039 12.1321C108.447 12.1321 107.923 12.2681 107.467 12.5401C107.019 12.8121 106.663 13.1881 106.399 13.6681C106.143 14.1481 106.015 14.7001 106.015 15.3241C106.015 15.7881 106.087 16.2201 106.231 16.6201C106.383 17.0121 106.591 17.3521 106.855 17.6401C107.127 17.9201 107.447 18.1401 107.815 18.3001C108.191 18.4601 108.599 18.5401 109.039 18.5401ZM118.758 19.5001V16.1761C118.758 15.7441 118.622 15.3881 118.35 15.1081C118.078 14.8281 117.726 14.6881 117.294 14.6881C117.006 14.6881 116.75 14.7521 116.526 14.8801C116.302 15.0081 116.126 15.1841 115.998 15.4081C115.87 15.6321 115.806 15.8881 115.806 16.1761L115.362 15.9241C115.362 15.4921 115.458 15.1081 115.65 14.7721C115.842 14.4361 116.11 14.1721 116.454 13.9801C116.798 13.7801 117.186 13.6801 117.618 13.6801C118.05 13.6801 118.43 13.7881 118.758 14.0041C119.094 14.2201 119.358 14.5041 119.55 14.8561C119.742 15.2001 119.838 15.5681 119.838 15.9601V19.5001H118.758ZM114.726 19.5001V13.8001H115.806V19.5001H114.726ZM126.249 19.5001V11.4121H127.377V19.5001H126.249ZM123.417 12.2041V11.1721H130.197V12.2041H123.417ZM135.501 19.5001V16.1761C135.501 15.7441 135.365 15.3881 135.093 15.1081C134.821 14.8281 134.469 14.6881 134.037 14.6881C133.749 14.6881 133.493 14.7521 133.269 14.8801C133.045 15.0081 132.869 15.1841 132.741 15.4081C132.613 15.6321 132.549 15.8881 132.549 16.1761L132.105 15.9241C132.105 15.4921 132.201 15.1081 132.393 14.7721C132.585 14.4361 132.853 14.1721 133.197 13.9801C133.541 13.7801 133.929 13.6801 134.361 13.6801C134.793 13.6801 135.173 13.7761 135.501 13.9681C135.837 14.1601 136.101 14.4281 136.293 14.7721C136.485 15.1161 136.581 15.5121 136.581 15.9601V19.5001H135.501ZM131.469 19.5001V10.9321H132.549V19.5001H131.469ZM140.803 19.6201C140.235 19.6201 139.723 19.4921 139.267 19.2361C138.811 18.9721 138.451 18.6161 138.187 18.1681C137.923 17.7201 137.791 17.2121 137.791 16.6441C137.791 16.0841 137.919 15.5801 138.175 15.1321C138.439 14.6841 138.791 14.3321 139.231 14.0761C139.679 13.8121 140.179 13.6801 140.731 13.6801C141.259 13.6801 141.723 13.8001 142.123 14.0401C142.531 14.2801 142.847 14.6121 143.071 15.0361C143.303 15.4601 143.419 15.9401 143.419 16.4761C143.419 16.5561 143.415 16.6441 143.407 16.7401C143.399 16.8281 143.383 16.9321 143.359 17.0521H138.547V16.1521H142.783L142.387 16.5001C142.387 16.1161 142.319 15.7921 142.183 15.5281C142.047 15.2561 141.855 15.0481 141.607 14.9041C141.359 14.7521 141.059 14.6761 140.707 14.6761C140.339 14.6761 140.015 14.7561 139.735 14.9161C139.455 15.0761 139.239 15.3001 139.087 15.5881C138.935 15.8761 138.859 16.2161 138.859 16.6081C138.859 17.0081 138.939 17.3601 139.099 17.6641C139.259 17.9601 139.487 18.1921 139.783 18.3601C140.079 18.5201 140.419 18.6001 140.803 18.6001C141.123 18.6001 141.415 18.5441 141.679 18.4321C141.951 18.3201 142.183 18.1521 142.375 17.9281L143.071 18.6361C142.799 18.9561 142.463 19.2001 142.063 19.3681C141.671 19.5361 141.251 19.6201 140.803 19.6201Z" fill="#B2BBCC"/>
<path d="M45.168 37.5002L49.776 26.3002H51.056L55.632 37.5002H53.648L50.064 28.4282H50.736L47.12 37.5002H45.168ZM47.44 35.3402V33.7402H53.376V35.3402H47.44ZM61.2664 37.6602C60.6797 37.6602 60.1571 37.5375 59.6984 37.2922C59.2397 37.0362 58.8771 36.6895 58.6104 36.2522C58.3544 35.8149 58.2264 35.3189 58.2264 34.7642V32.5562C58.2264 32.0015 58.3597 31.5055 58.6264 31.0682C58.8931 30.6309 59.2557 30.2895 59.7144 30.0442C60.1731 29.7882 60.6904 29.6602 61.2664 29.6602C61.9597 29.6602 62.5837 29.8415 63.1384 30.2042C63.7037 30.5562 64.1464 31.0362 64.4664 31.6442C64.7971 32.2415 64.9624 32.9189 64.9624 33.6762C64.9624 34.4229 64.7971 35.1002 64.4664 35.7082C64.1464 36.3055 63.7037 36.7802 63.1384 37.1322C62.5837 37.4842 61.9597 37.6602 61.2664 37.6602ZM60.9784 35.9962C61.4051 35.9962 61.7784 35.9002 62.0984 35.7082C62.4291 35.5055 62.6851 35.2282 62.8664 34.8762C63.0584 34.5242 63.1544 34.1189 63.1544 33.6602C63.1544 33.2015 63.0584 32.7962 62.8664 32.4442C62.6851 32.0922 62.4291 31.8202 62.0984 31.6282C61.7784 31.4255 61.4051 31.3242 60.9784 31.3242C60.5517 31.3242 60.1731 31.4255 59.8424 31.6282C59.5117 31.8202 59.2557 32.0922 59.0744 32.4442C58.8931 32.7962 58.8024 33.2015 58.8024 33.6602C58.8024 34.1189 58.8931 34.5242 59.0744 34.8762C59.2557 35.2282 59.5117 35.5055 59.8424 35.7082C60.1731 35.9002 60.5517 35.9962 60.9784 35.9962ZM57.1544 40.7002V29.8202H58.9144V31.8842L58.6104 33.7562L58.9144 35.6122V40.7002H57.1544ZM70.7077 37.6602C70.121 37.6602 69.5983 37.5375 69.1397 37.2922C68.681 37.0362 68.3183 36.6895 68.0517 36.2522C67.7957 35.8149 67.6677 35.3189 67.6677 34.7642V32.5562C67.6677 32.0015 67.801 31.5055 68.0677 31.0682C68.3343 30.6309 68.697 30.2895 69.1557 30.0442C69.6143 29.7882 70.1317 29.6602 70.7077 29.6602C71.401 29.6602 72.025 29.8415 72.5797 30.2042C73.145 30.5562 73.5877 31.0362 73.9077 31.6442C74.2383 32.2415 74.4037 32.9189 74.4037 33.6762C74.4037 34.4229 74.2383 35.1002 73.9077 35.7082C73.5877 36.3055 73.145 36.7802 72.5797 37.1322C72.025 37.4842 71.401 37.6602 70.7077 37.6602ZM70.4197 35.9962C70.8463 35.9962 71.2197 35.9002 71.5397 35.7082C71.8703 35.5055 72.1263 35.2282 72.3077 34.8762C72.4997 34.5242 72.5957 34.1189 72.5957 33.6602C72.5957 33.2015 72.4997 32.7962 72.3077 32.4442C72.1263 32.0922 71.8703 31.8202 71.5397 31.6282C71.2197 31.4255 70.8463 31.3242 70.4197 31.3242C69.993 31.3242 69.6143 31.4255 69.2837 31.6282C68.953 31.8202 68.697 32.0922 68.5157 32.4442C68.3343 32.7962 68.2437 33.2015 68.2437 33.6602C68.2437 34.1189 68.3343 34.5242 68.5157 34.8762C68.697 35.2282 68.953 35.5055 69.2837 35.7082C69.6143 35.9002 69.993 35.9962 70.4197 35.9962ZM66.5957 40.7002V29.8202H68.3557V31.8842L68.0517 33.7562L68.3557 35.6122V40.7002H66.5957ZM76.0369 37.5002V25.9802H77.7969V37.5002H76.0369ZM83.4837 37.6602C82.7157 37.6602 82.0223 37.4895 81.4037 37.1482C80.7957 36.7962 80.3103 36.3162 79.9477 35.7082C79.5957 35.1002 79.4197 34.4175 79.4197 33.6602C79.4197 32.9029 79.5957 32.2255 79.9477 31.6282C80.2997 31.0202 80.7743 30.5402 81.3717 30.1882C81.9797 29.8362 82.6517 29.6602 83.3877 29.6602C84.1023 29.6602 84.7317 29.8255 85.2757 30.1562C85.8303 30.4869 86.2623 30.9402 86.5717 31.5162C86.8917 32.0922 87.0517 32.7482 87.0517 33.4842C87.0517 33.6122 87.041 33.7455 87.0197 33.8842C87.009 34.0122 86.9877 34.1562 86.9557 34.3162H80.6517V32.8762H86.0437L85.3877 33.4522C85.3663 32.9829 85.2757 32.5882 85.1157 32.2682C84.9557 31.9482 84.7263 31.7029 84.4277 31.5322C84.1397 31.3615 83.7823 31.2762 83.3557 31.2762C82.9077 31.2762 82.5183 31.3722 82.1877 31.5642C81.857 31.7562 81.601 32.0282 81.4197 32.3802C81.2383 32.7215 81.1477 33.1322 81.1477 33.6122C81.1477 34.0922 81.2437 34.5135 81.4357 34.8762C81.6277 35.2389 81.8997 35.5215 82.2517 35.7242C82.6037 35.9162 83.009 36.0122 83.4677 36.0122C83.8623 36.0122 84.225 35.9429 84.5557 35.8042C84.897 35.6655 85.185 35.4629 85.4197 35.1962L86.5397 36.3322C86.1663 36.7695 85.713 37.1002 85.1797 37.3242C84.6463 37.5482 84.081 37.6602 83.4837 37.6602ZM95.3457 37.6602C94.4603 37.6602 93.7083 37.5002 93.0897 37.1802C92.471 36.8602 91.9163 36.3909 91.4257 35.7722L92.6737 34.5242C92.983 34.9722 93.351 35.3242 93.7777 35.5802C94.2043 35.8255 94.7483 35.9482 95.4097 35.9482C96.0283 35.9482 96.519 35.8202 96.8817 35.5642C97.255 35.3082 97.4417 34.9562 97.4417 34.5082C97.4417 34.1349 97.3457 33.8309 97.1537 33.5962C96.9617 33.3615 96.7057 33.1695 96.3857 33.0202C96.0763 32.8602 95.7297 32.7215 95.3457 32.6042C94.9723 32.4762 94.5937 32.3375 94.2097 32.1882C93.8363 32.0282 93.4897 31.8309 93.1697 31.5962C92.8603 31.3615 92.6097 31.0575 92.4177 30.6842C92.2257 30.3109 92.1297 29.8362 92.1297 29.2602C92.1297 28.5989 92.2897 28.0389 92.6097 27.5802C92.9403 27.1109 93.383 26.7535 93.9377 26.5082C94.4923 26.2629 95.111 26.1402 95.7937 26.1402C96.5297 26.1402 97.1857 26.2842 97.7617 26.5722C98.3483 26.8602 98.823 27.2282 99.1857 27.6762L97.9377 28.9242C97.6177 28.5615 97.2817 28.2949 96.9297 28.1242C96.5883 27.9429 96.1937 27.8522 95.7457 27.8522C95.191 27.8522 94.7537 27.9642 94.4337 28.1882C94.1243 28.4122 93.9697 28.7269 93.9697 29.1322C93.9697 29.4735 94.0657 29.7509 94.2577 29.9642C94.4497 30.1669 94.7003 30.3429 95.0097 30.4922C95.3297 30.6309 95.6763 30.7642 96.0497 30.8922C96.4337 31.0202 96.8123 31.1642 97.1857 31.3242C97.5697 31.4842 97.9163 31.6922 98.2257 31.9482C98.5457 32.1935 98.8017 32.5135 98.9937 32.9082C99.1857 33.3029 99.2817 33.7989 99.2817 34.3962C99.2817 35.3989 98.9243 36.1935 98.2097 36.7802C97.5057 37.3669 96.551 37.6602 95.3457 37.6602ZM102.204 37.5002V26.6202H103.964V37.5002H102.204ZM100.364 31.4202V29.8202H105.804V31.4202H100.364ZM110.544 37.6602C109.798 37.6602 109.12 37.4842 108.512 37.1322C107.904 36.7695 107.419 36.2842 107.056 35.6762C106.704 35.0682 106.528 34.3909 106.528 33.6442C106.528 32.8975 106.704 32.2255 107.056 31.6282C107.419 31.0309 107.904 30.5562 108.512 30.2042C109.12 29.8415 109.798 29.6602 110.544 29.6602C111.302 29.6602 111.984 29.8362 112.592 30.1882C113.2 30.5402 113.68 31.0202 114.032 31.6282C114.395 32.2255 114.576 32.8975 114.576 33.6442C114.576 34.3909 114.395 35.0682 114.032 35.6762C113.68 36.2842 113.2 36.7695 112.592 37.1322C111.984 37.4842 111.302 37.6602 110.544 37.6602ZM110.544 35.9642C110.982 35.9642 111.366 35.8682 111.696 35.6762C112.038 35.4735 112.299 35.1962 112.48 34.8442C112.672 34.4922 112.768 34.0922 112.768 33.6442C112.768 33.1962 112.672 32.8015 112.48 32.4602C112.288 32.1189 112.027 31.8522 111.696 31.6602C111.366 31.4575 110.982 31.3562 110.544 31.3562C110.118 31.3562 109.734 31.4575 109.392 31.6602C109.062 31.8522 108.8 32.1189 108.608 32.4602C108.427 32.8015 108.336 33.1962 108.336 33.6442C108.336 34.0922 108.427 34.4922 108.608 34.8442C108.8 35.1962 109.062 35.4735 109.392 35.6762C109.734 35.8682 110.118 35.9642 110.544 35.9642ZM116.2 37.5002V29.8202H117.96V37.5002H116.2ZM117.96 33.2282L117.352 32.9242C117.352 31.9535 117.565 31.1695 117.992 30.5722C118.429 29.9642 119.085 29.6602 119.96 29.6602C120.344 29.6602 120.691 29.7295 121 29.8682C121.309 30.0069 121.597 30.2309 121.864 30.5402L120.712 31.7242C120.573 31.5749 120.419 31.4682 120.248 31.4042C120.077 31.3402 119.88 31.3082 119.656 31.3082C119.165 31.3082 118.76 31.4629 118.44 31.7722C118.12 32.0815 117.96 32.5669 117.96 33.2282ZM126.209 37.6602C125.441 37.6602 124.748 37.4895 124.129 37.1482C123.521 36.7962 123.036 36.3162 122.673 35.7082C122.321 35.1002 122.145 34.4175 122.145 33.6602C122.145 32.9029 122.321 32.2255 122.673 31.6282C123.025 31.0202 123.5 30.5402 124.097 30.1882C124.705 29.8362 125.377 29.6602 126.113 29.6602C126.828 29.6602 127.457 29.8255 128.001 30.1562C128.556 30.4869 128.988 30.9402 129.297 31.5162C129.617 32.0922 129.777 32.7482 129.777 33.4842C129.777 33.6122 129.767 33.7455 129.745 33.8842C129.735 34.0122 129.713 34.1562 129.681 34.3162H123.377V32.8762H128.769L128.113 33.4522C128.092 32.9829 128.001 32.5882 127.841 32.2682C127.681 31.9482 127.452 31.7029 127.153 31.5322C126.865 31.3615 126.508 31.2762 126.081 31.2762C125.633 31.2762 125.244 31.3722 124.913 31.5642C124.583 31.7562 124.327 32.0282 124.145 32.3802C123.964 32.7215 123.873 33.1322 123.873 33.6122C123.873 34.0922 123.969 34.5135 124.161 34.8762C124.353 35.2389 124.625 35.5215 124.977 35.7242C125.329 35.9162 125.735 36.0122 126.193 36.0122C126.588 36.0122 126.951 35.9429 127.281 35.8042C127.623 35.6655 127.911 35.4629 128.145 35.1962L129.265 36.3322C128.892 36.7695 128.439 37.1002 127.905 37.3242C127.372 37.5482 126.807 37.6602 126.209 37.6602Z" fill="white"/>
</g>
</g>
</g>
<defs>
<clipPath id="clip0_6513_1027">
<rect y="0.500244" width="161" height="51" rx="4" fill="white"/>
</clipPath>
<clipPath id="clip1_6513_1027">
<rect width="161" height="51" fill="white" transform="translate(0 0.500244)"/>
</clipPath>
<clipPath id="clip2_6513_1027">
<rect width="161" height="51" fill="white" transform="translate(0 0.500244)"/>
</clipPath>
</defs>
</svg>
