<svg width="21" height="15" viewBox="0 0 21 15" fill="none" xmlns="http://www.w3.org/2000/svg">
<g opacity="0.6" clip-path="url(#clip0_6513_724)">
<g clip-path="url(#clip1_6513_724)">
<g clip-path="url(#clip2_6513_724)">
<path d="M18.6719 0.583252H3.00521C2.26884 0.583252 1.67188 1.22001 1.67188 2.00547V12.4944C1.67188 13.2798 2.26884 13.9166 3.00521 13.9166H18.6719C19.4083 13.9166 20.0052 13.2798 20.0052 12.4944V2.00547C20.0052 1.22001 19.4083 0.583252 18.6719 0.583252ZM10.8385 8.44441L3.14854 1.47214H18.5286L10.8385 8.44441ZM2.50521 2.05547L7.52571 6.60738L2.50521 12.3745V2.05547ZM8.16129 7.18365L10.5687 9.36632C10.6465 9.43685 10.7425 9.47214 10.8385 9.47214C10.9346 9.47214 11.0306 9.43685 11.1084 9.36632L13.5158 7.18365L18.6033 13.0277H3.07384L8.16129 7.18365ZM14.1514 6.60738L19.1719 2.05547V12.3745L14.1514 6.60738Z" fill="white"/>
</g>
</g>
</g>
<defs>
<clipPath id="clip0_6513_724">
<rect width="20" height="14" fill="white" transform="translate(0.839844 0.25)"/>
</clipPath>
<clipPath id="clip1_6513_724">
<rect width="20" height="14" fill="white" transform="translate(0.839844 0.25)"/>
</clipPath>
<clipPath id="clip2_6513_724">
<rect width="20" height="14" fill="white" transform="translate(0.839844 0.25)"/>
</clipPath>
</defs>
</svg>
