<svg width="16" height="21" viewBox="0 0 16 21" fill="none" xmlns="http://www.w3.org/2000/svg">
<g opacity="0.6" clip-path="url(#clip0_6513_718)">
<g clip-path="url(#clip1_6513_718)">
<g clip-path="url(#clip2_6513_718)">
<path d="M7.83486 0.25C5.88917 0.252201 4.0238 1.0261 2.648 2.4019C1.27219 3.77771 0.498294 5.64308 0.496094 7.58876C0.496094 11.514 7.21983 19.746 7.50604 20.0946C7.54596 20.1432 7.59615 20.1823 7.65301 20.2092C7.70986 20.2361 7.77197 20.25 7.83486 20.25C7.89774 20.25 7.95984 20.2361 8.0167 20.2092C8.07356 20.1823 8.12375 20.1432 8.16367 20.0946C8.44988 19.746 15.1737 11.514 15.1737 7.58876C15.1715 5.64308 14.3976 3.77771 13.0218 2.4019C11.646 1.0261 9.78054 0.252201 7.83486 0.25ZM7.83486 19.1443C6.47224 17.4245 1.34715 10.7456 1.34715 7.58877C1.34715 6.73679 1.51496 5.89316 1.841 5.10603C2.16704 4.31891 2.64492 3.60371 3.24736 3.00127C3.8498 2.39883 4.565 1.92095 5.35212 1.59492C6.13924 1.26888 6.98288 1.10107 7.83486 1.10107C8.68683 1.10107 9.53047 1.26888 10.3176 1.59492C11.1048 1.92095 11.82 2.39883 12.4224 3.00127C13.0248 3.60371 13.5027 4.31891 13.8288 5.10603C14.1548 5.89316 14.3226 6.73679 14.3226 7.58877C14.3226 10.7456 9.19747 17.4245 7.83486 19.1443Z" fill="white"/>
<path d="M7.83097 4.34897C7.23861 4.34897 6.65955 4.52462 6.16702 4.85372C5.67449 5.18282 5.29061 5.65058 5.06392 6.19785C4.83724 6.74512 4.77793 7.34732 4.89349 7.9283C5.00905 8.50928 5.2943 9.04295 5.71317 9.46181C6.13203 9.88067 6.66569 10.1659 7.24667 10.2815C7.82765 10.397 8.42985 10.3377 8.97712 10.111C9.52439 9.88436 9.99216 9.50048 10.3213 9.00795C10.6504 8.51542 10.826 7.93636 10.826 7.344C10.8251 6.54995 10.5093 5.78868 9.94778 5.2272C9.3863 4.66572 8.62503 4.34988 7.83097 4.34897ZM7.83097 9.48797C7.40694 9.48797 6.99242 9.36223 6.63985 9.12665C6.28727 8.89106 6.01248 8.55622 5.8502 8.16446C5.68793 7.7727 5.64547 7.34162 5.7282 6.92573C5.81093 6.50984 6.01512 6.12782 6.31496 5.82798C6.6148 5.52814 6.99682 5.32395 7.41271 5.24123C7.8286 5.1585 8.25968 5.20096 8.65144 5.36323C9.0432 5.5255 9.37804 5.8003 9.61362 6.15287C9.8492 6.50545 9.97494 6.91996 9.97494 7.344C9.97429 7.91242 9.7482 8.45736 9.34627 8.85929C8.94434 9.26123 8.39939 9.48732 7.83097 9.48797Z" fill="white"/>
</g>
</g>
</g>
<defs>
<clipPath id="clip0_6513_718">
<rect width="16" height="20" fill="white" transform="translate(0 0.25)"/>
</clipPath>
<clipPath id="clip1_6513_718">
<rect width="16" height="20" fill="white" transform="translate(0 0.25)"/>
</clipPath>
<clipPath id="clip2_6513_718">
<rect width="16" height="20" fill="white" transform="translate(0 0.25)"/>
</clipPath>
</defs>
</svg>
