<svg width="15" height="16" viewBox="0 0 15 16" fill="none" xmlns="http://www.w3.org/2000/svg">
<g clip-path="url(#clip0_6513_1014)">
<path d="M10.3125 0.140137H4.6875C2.09906 0.140137 0 2.2392 0 4.82764V10.4526C0 13.041 2.09906 15.1401 4.6875 15.1401H10.3125C12.9009 15.1401 15 13.041 15 10.4526V4.82764C15 2.2392 12.9009 0.140137 10.3125 0.140137ZM13.5938 10.4526C13.5938 12.262 12.1219 13.7339 10.3125 13.7339H4.6875C2.87813 13.7339 1.40625 12.262 1.40625 10.4526V4.82764C1.40625 3.01827 2.87813 1.54639 4.6875 1.54639H10.3125C12.1219 1.54639 13.5938 3.01827 13.5938 4.82764V10.4526Z" fill="#B2BBCC"/>
<path d="M7.5 3.89014C5.42906 3.89014 3.75 5.5692 3.75 7.64014C3.75 9.71108 5.42906 11.3901 7.5 11.3901C9.57094 11.3901 11.25 9.71108 11.25 7.64014C11.25 5.5692 9.57094 3.89014 7.5 3.89014ZM7.5 9.98389C6.20813 9.98389 5.15625 8.93201 5.15625 7.64014C5.15625 6.34733 6.20813 5.29639 7.5 5.29639C8.79187 5.29639 9.84375 6.34733 9.84375 7.64014C9.84375 8.93201 8.79187 9.98389 7.5 9.98389Z" fill="#B2BBCC"/>
<path d="M11.5309 4.10851C11.8068 4.10851 12.0307 3.88479 12.0307 3.60882C12.0307 3.33285 11.8068 3.10913 11.5309 3.10913C11.2549 3.10913 11.0312 3.33285 11.0312 3.60882C11.0312 3.88479 11.2549 4.10851 11.5309 4.10851Z" fill="#B2BBCC"/>
</g>
<defs>
<clipPath id="clip0_6513_1014">
<rect width="15" height="15" fill="white" transform="translate(0 0.140137)"/>
</clipPath>
</defs>
</svg>
