<svg width="17" height="17" viewBox="0 0 17 17" fill="none" xmlns="http://www.w3.org/2000/svg">
<g clip-path="url(#clip0_6513_787)">
<path d="M9.98985 12.2778C9.62167 12.2778 9.32318 12.5763 9.32318 12.9445C9.32318 13.3126 9.62167 13.6111 9.98985 13.6111V12.2778ZM15.3232 13.6111C15.6914 13.6111 15.9899 13.3126 15.9899 12.9445C15.9899 12.5763 15.6914 12.2778 15.3232 12.2778V13.6111ZM13.3232 10.2778C13.3232 9.90961 13.0247 9.61112 12.6565 9.61112C12.2883 9.61112 11.9899 9.90961 11.9899 10.2778H13.3232ZM11.9899 15.6111C11.9899 15.9793 12.2883 16.2778 12.6565 16.2778C13.0247 16.2778 13.3232 15.9793 13.3232 15.6111H11.9899ZM9.98985 13.6111H12.6565V12.2778H9.98985V13.6111ZM15.3232 12.2778H12.6565V13.6111H15.3232V12.2778ZM13.3232 12.9445V10.2778H11.9899V12.9445H13.3232ZM11.9899 12.9445V15.6111H13.3232V12.9445H11.9899ZM1.77474 6.1889V1.92223H0.441406V6.1889H1.77474ZM1.77474 1.92223C1.77474 1.95759 1.7607 1.99151 1.73569 2.01651L0.792878 1.0737C0.567835 1.29874 0.441406 1.60397 0.441406 1.92223H1.77474ZM1.73569 2.01651C1.71069 2.04152 1.67677 2.05556 1.64141 2.05556V0.722229C1.32315 0.722229 1.01792 0.848657 0.792878 1.0737L1.73569 2.01651ZM1.64141 2.05556H5.90807V0.722229H1.64141V2.05556ZM5.90807 2.05556C5.87271 2.05556 5.8388 2.04152 5.81379 2.01651L6.7566 1.0737C6.53156 0.848657 6.22633 0.722229 5.90807 0.722229V2.05556ZM5.81379 2.01651C5.78878 1.9915 5.77474 1.95759 5.77474 1.92223H7.10807C7.10807 1.60397 6.98165 1.29875 6.7566 1.0737L5.81379 2.01651ZM5.77474 1.92223V6.1889H7.10807V1.92223H5.77474ZM5.77474 6.1889C5.77474 6.15354 5.78878 6.11962 5.81379 6.09461L6.7566 7.03742C6.98165 6.81238 7.10807 6.50715 7.10807 6.1889H5.77474ZM5.81379 6.09461C5.8388 6.06961 5.87271 6.05556 5.90807 6.05556V7.3889C6.22633 7.3889 6.53156 7.26247 6.7566 7.03742L5.81379 6.09461ZM5.90807 6.05556H1.64141V7.3889H5.90807V6.05556ZM1.64141 6.05556C1.67677 6.05556 1.71068 6.06961 1.73569 6.09461L0.792878 7.03742C1.01792 7.26247 1.32315 7.3889 1.64141 7.3889V6.05556ZM1.73569 6.09461C1.7607 6.11962 1.77474 6.15354 1.77474 6.1889H0.441406C0.441406 6.50715 0.567834 6.81238 0.792878 7.03742L1.73569 6.09461ZM1.77474 15.0778V10.8111H0.441406V15.0778H1.77474ZM1.77474 10.8111C1.77474 10.8465 1.7607 10.8804 1.73569 10.9054L0.792878 9.96258C0.567834 10.1877 0.441406 10.4929 0.441406 10.8111H1.77474ZM1.73569 10.9054C1.71068 10.9304 1.67677 10.9445 1.64141 10.9445V9.61112C1.32315 9.61112 1.01792 9.73752 0.792878 9.96258L1.73569 10.9054ZM1.64141 10.9445H5.90807V9.61112H1.64141V10.9445ZM5.90807 10.9445C5.87271 10.9445 5.8388 10.9304 5.81379 10.9054L6.7566 9.96258C6.53156 9.73752 6.22633 9.61112 5.90807 9.61112V10.9445ZM5.81379 10.9054C5.78878 10.8804 5.77474 10.8465 5.77474 10.8111H7.10807C7.10807 10.4929 6.98165 10.1877 6.7566 9.96258L5.81379 10.9054ZM5.77474 10.8111V15.0778H7.10807V10.8111H5.77474ZM5.77474 15.0778C5.77474 15.0424 5.78878 15.0085 5.81379 14.9835L6.7566 15.9263C6.98165 15.7013 7.10807 15.396 7.10807 15.0778H5.77474ZM5.81379 14.9835C5.8388 14.9585 5.87271 14.9445 5.90807 14.9445V16.2778C6.22633 16.2778 6.53156 16.1514 6.7566 15.9263L5.81379 14.9835ZM5.90807 14.9445H1.64141V16.2778H5.90807V14.9445ZM1.64141 14.9445C1.67677 14.9445 1.71068 14.9585 1.73569 14.9835L0.792878 15.9263C1.01792 16.1514 1.32315 16.2778 1.64141 16.2778V14.9445ZM1.73569 14.9835C1.7607 15.0085 1.77474 15.0424 1.77474 15.0778H0.441406C0.441406 15.396 0.567834 15.7013 0.792878 15.9263L1.73569 14.9835ZM10.6636 6.1889V1.92223H9.3303V6.1889H10.6636ZM10.6636 1.92223C10.6636 1.95759 10.6496 1.9915 10.6246 2.01651L9.68176 1.0737C9.4567 1.29875 9.3303 1.60397 9.3303 1.92223H10.6636ZM10.6246 2.01651C10.5995 2.04152 10.5657 2.05556 10.5303 2.05556V0.722229C10.2121 0.722229 9.90683 0.848657 9.68176 1.0737L10.6246 2.01651ZM10.5303 2.05556H14.797V0.722229H10.5303V2.05556ZM14.797 2.05556C14.7616 2.05556 14.7277 2.04152 14.7027 2.01651L15.6455 1.0737C15.4204 0.848657 15.1152 0.722229 14.797 0.722229V2.05556ZM14.7027 2.01651C14.6777 1.9915 14.6636 1.95759 14.6636 1.92223H15.997C15.997 1.60397 15.8706 1.29875 15.6455 1.0737L14.7027 2.01651ZM14.6636 1.92223V6.1889H15.997V1.92223H14.6636ZM14.6636 6.1889C14.6636 6.15354 14.6777 6.11962 14.7027 6.09461L15.6455 7.03742C15.8706 6.81238 15.997 6.50715 15.997 6.1889H14.6636ZM14.7027 6.09461C14.7277 6.06961 14.7616 6.05556 14.797 6.05556V7.3889C15.1152 7.3889 15.4204 7.26247 15.6455 7.03742L14.7027 6.09461ZM14.797 6.05556H10.5303V7.3889H14.797V6.05556ZM10.5303 6.05556C10.5657 6.05556 10.5995 6.06961 10.6246 6.09461L9.68176 7.03742C9.90683 7.26247 10.2121 7.3889 10.5303 7.3889V6.05556ZM10.6246 6.09461C10.6496 6.11962 10.6636 6.15354 10.6636 6.1889H9.3303C9.3303 6.50715 9.4567 6.81238 9.68176 7.03742L10.6246 6.09461Z" fill="#5751E1"/>
</g>
<defs>
<clipPath id="clip0_6513_787">
<rect width="16" height="16" fill="white" transform="translate(0.21875 0.5)"/>
</clipPath>
</defs>
</svg>
